#VRML V2.0 utf8
# 3D model generated by easyeda2kicad.py (https://github.com/uPesy/easyeda2kicad.py)

Shape{
    appearance Appearance {
        material  Material 	{
            diffuseColor 0.7529411764705882 0.7529411764705882 0.7529411764705882
            specularColor 0.3764705882352941 0.3764705882352941 0.3764705882352941
            ambientIntensity 0.7529
            transparency 0.0
            shininess 0.5
        }
    }
    geometry IndexedFaceSet {
        ccw TRUE
        solid FALSE
        coord DEF co Coordinate {
            point [
                0.2559 0.8091 0.0, 0.2559 -0.8051 0.0, 0.2559 0.8091 0.0197, 0.2559 -0.8051 0.0197, 0.7677 0.8091 0.0, 0.7677 0.8091 0.0197, 0.7779 0.8077 0.0197, 0.7779 0.8077 0.0, 0.7874 0.8038 0.0197, 0.7874 0.8038 0.0, 0.7956 0.7975 0.0197, 0.7956 0.7975 0.0, 0.8018 0.7894 0.0197, 0.8018 0.7894 0.0, 0.8057 0.7799 0.0197, 0.8057 0.7799 0.0, 0.8071 0.7697 0.0197, 0.8071 0.7697 0.0, 0.8071 -0.7657 0.0, 0.8071 -0.7657 0.0197, 0.8057 -0.7759 0.0197, 0.8057 -0.7759 0.0, 0.8018 -0.7854 0.0197, 0.8018 -0.7854 0.0, 0.7956 -0.7936 0.0197, 0.7956 -0.7936 0.0, 0.7874 -0.7998 0.0197, 0.7874 -0.7998 0.0, 0.7779 -0.8038 0.0197, 0.7779 -0.8038 0.0, 0.7677 -0.8051 0.0197, 0.7677 -0.8051 0.0, -0.2559 -0.8051 0.0, -0.2559 0.8091 0.0, -0.2559 -0.8051 0.0197, -0.2559 0.8091 0.0197, -0.7677 0.8091 0.0, -0.7677 0.8091 0.0197, -0.8071 0.7697 0.0, -0.8071 0.7697 0.0197, -0.8057 0.7799 0.0197, -0.8057 0.7799 0.0, -0.8018 0.7894 0.0197, -0.8018 0.7894 0.0, -0.7956 0.7975 0.0197, -0.7956 0.7975 0.0, -0.7874 0.8038 0.0197, -0.7874 0.8038 0.0, -0.7779 0.8077 0.0197, -0.7779 0.8077 0.0, -0.8071 -0.7657 0.0, -0.8071 -0.7657 0.0197, -0.7677 -0.8051 0.0, -0.7677 -0.8051 0.0197, -0.7779 -0.8038 0.0197, -0.7779 -0.8038 0.0, -0.7874 -0.7998 0.0197, -0.7874 -0.7998 0.0, -0.7956 -0.7936 0.0197, -0.7956 -0.7936 0.0, -0.8018 -0.7854 0.0197, -0.8018 -0.7854 0.0, -0.8057 -0.7759 0.0197, -0.8057 -0.7759 0.0
            ]
        }
        coordIndex [
            0,1,2,-1,2,1,3,-1,4,0,5,-1,5,0,2,-1,4,5,6,-1,4,6,7,-1,7,6,8,-1,7,8,9,-1,9,8,10,-1,9,10,11,-1,11,10,12,-1,11,12,13,-1,13,12,14,-1,13,14,15,-1,15,14,16,-1,15,16,17,-1,18,17,19,-1,19,17,16,-1,18,19,20,-1,18,20,21,-1,21,20,22,-1,21,22,23,-1,23,22,24,-1,23,24,25,-1,25,24,26,-1,25,26,27,-1,27,26,28,-1,27,28,29,-1,29,28,30,-1,29,30,31,-1,1,31,3,-1,3,31,30,-1,1,0,31,-1,31,0,4,-1,4,17,31,-1,31,17,18,-1,31,18,21,-1,9,11,7,-1,7,11,13,-1,7,13,4,-1,4,13,15,-1,4,15,17,-1,21,23,31,-1,31,23,25,-1,31,25,29,-1,29,25,27,-1,5,2,16,-1,2,3,16,-1,16,3,30,-1,16,30,19,-1,19,30,20,-1,28,26,24,-1,16,14,5,-1,5,14,12,-1,5,12,6,-1,6,12,10,-1,6,10,8,-1,28,24,30,-1,30,24,22,-1,30,22,20,-1,32,33,34,-1,34,33,35,-1,33,36,35,-1,35,36,37,-1,38,39,40,-1,38,40,41,-1,41,40,42,-1,41,42,43,-1,43,42,44,-1,43,44,45,-1,45,44,46,-1,45,46,47,-1,47,46,48,-1,47,48,49,-1,49,48,37,-1,49,37,36,-1,38,50,39,-1,39,50,51,-1,52,53,54,-1,52,54,55,-1,55,54,56,-1,55,56,57,-1,57,56,58,-1,57,58,59,-1,59,58,60,-1,59,60,61,-1,61,60,62,-1,61,62,63,-1,63,62,51,-1,63,51,50,-1,52,32,53,-1,53,32,34,-1,36,33,38,-1,33,32,38,-1,38,32,52,-1,38,52,50,-1,50,52,63,-1,55,57,59,-1,38,41,36,-1,36,41,43,-1,36,43,49,-1,49,43,45,-1,49,45,47,-1,55,59,52,-1,52,59,61,-1,52,61,63,-1,34,35,53,-1,53,35,37,-1,37,39,53,-1,53,39,51,-1,53,51,62,-1,46,44,48,-1,48,44,42,-1,48,42,37,-1,37,42,40,-1,37,40,39,-1,62,60,53,-1,53,60,58,-1,53,58,54,-1,54,58,56,-1,
        ]
    }
}
Shape{
    appearance Appearance {
        material  Material 	{
            diffuseColor 0.25098039215686274 0.25098039215686274 0.25098039215686274
            specularColor 0.12549019607843137 0.12549019607843137 0.12549019607843137
            ambientIntensity 0.251
            transparency 0.0
            shininess 0.5
        }
    }
    geometry IndexedFaceSet {
        ccw TRUE
        solid FALSE
        coord DEF co Coordinate {
            point [
                -0.0262 -0.8051 0.1294, -0.0262 -0.8051 0.1082, 0.0252 -0.8051 0.1082, -0.0262 -0.8051 0.2141, -0.0262 -0.8051 0.1984, 0.0252 -0.8051 0.1984, 0.0455 -0.8051 0.2678, 0.0496 -0.8051 0.2683, 0.0284 -0.8051 0.2683, 0.0593 -0.8051 0.2144, 0.0559 -0.8051 0.2141, 0.0736 -0.8051 0.2141, 0.0835 -0.8051 0.2618, 0.0835 -0.8051 0.2447, 0.0979 -0.8051 0.2447, 0.0869 -0.8051 0.1297, 0.0846 -0.8051 0.1294, 0.0979 -0.8051 0.1294, 0.0751 -0.8051 0.1295, 0.0736 -0.8051 0.1301, 0.0736 -0.8051 0.1294, 0.1504 -0.8051 0.1771, 0.1504 -0.8051 0.16, 0.1604 -0.8051 0.16, -0.29 -0.8051 0.1945, -0.2893 -0.8051 0.1984, -0.529 -0.8051 0.1984, -0.072 -0.8051 0.226, -0.0618 -0.8051 0.2172, -0.0262 -0.8051 0.2683, -0.1148 -0.8051 0.2683, -0.1061 -0.8051 0.2625, -0.0937 -0.8051 0.2482, -0.0856 -0.8051 0.2325, -0.0833 -0.8051 0.2317, -0.1421 -0.8051 0.2806, -0.1231 -0.8051 0.2739, -0.0262 -0.8051 0.7677, -0.1941 -0.8051 0.2731, -0.1766 -0.8051 0.2799, -0.529 -0.8051 0.7677, -0.1577 -0.8051 0.2822, -0.2724 -0.8051 0.2333, -0.2689 -0.8051 0.2365, -0.529 -0.8051 0.2683, -0.2018 -0.8051 0.2683, -0.2033 -0.8051 0.2674, -0.2561 -0.8051 0.245, -0.242 -0.8051 0.25, -0.2287 -0.8051 0.2515, -0.2122 -0.8051 0.2598, -0.2243 -0.8051 0.2512, -0.22 -0.8051 0.2507, -0.529 -0.8051 0.2141, -0.287 -0.8051 0.2095, -0.2849 -0.8051 0.2141, -0.2806 -0.8051 0.223, -0.2439 -0.8051 0.1304, -0.2505 -0.8051 0.1325, -0.529 -0.8051 0.1294, -0.264 -0.8051 0.1396, -0.2743 -0.8051 0.1486, -0.2757 -0.8051 0.1503, -0.2837 -0.8051 0.1626, -0.2888 -0.8051 0.1768, -0.2902 -0.8051 0.19, -0.2345 -0.8051 0.1153, -0.2401 -0.8051 0.1223, -0.2434 -0.8051 0.1294, -0.1921 -0.8051 0.1082, -0.1987 -0.8051 0.1057, -0.0262 -0.8051 0.0197, -0.2078 -0.8051 0.1046, -0.2093 -0.8051 0.1046, -0.529 -0.8051 0.0197, -0.2183 -0.8051 0.106, -0.529 -0.8051 0.1082, -0.2235 -0.8051 0.1082, -0.227 -0.8051 0.1097, -0.1723 -0.8051 0.1294, -0.1723 -0.8051 0.1293, -0.1768 -0.8051 0.1208, -0.1826 -0.8051 0.1142, -0.1902 -0.8051 0.109, -0.0621 -0.8051 0.1467, -0.0729 -0.8051 0.1377, -0.0549 -0.8051 0.1567, -0.1794 -0.8051 0.168, -0.1285 -0.8051 0.1945, -0.186 -0.8051 0.174, -0.194 -0.8051 0.1783, -0.0718 -0.8051 0.1857, -0.0735 -0.8051 0.193, -0.0765 -0.8051 0.1984, -0.2653 -0.8051 0.1984, -0.121 -0.8051 0.1528, -0.1168 -0.8051 0.1744, -0.1237 -0.8051 0.1519, -0.126 -0.8051 0.1502, -0.1208 -0.8051 0.1299, -0.1234 -0.8051 0.1308, -0.1259 -0.8051 0.1325, -0.1271 -0.8051 0.1337, -0.2631 -0.8051 0.1757, -0.2586 -0.8051 0.1679, -0.2393 -0.8051 0.164, -0.2518 -0.8051 0.1609, -0.2435 -0.8051 0.1558, -0.2253 -0.8051 0.1766, -0.233 -0.8051 0.1712, -0.2663 -0.8051 0.1908, -0.2658 -0.8051 0.185, -0.0497 -0.8051 0.1947, -0.0481 -0.8051 0.1828, -0.0481 -0.8051 0.181, -0.05 -0.8051 0.1686, -0.0846 -0.8051 0.1321, -0.0966 -0.8051 0.1297, -0.119 -0.8051 0.1297, -0.2169 -0.8051 0.1798, -0.2078 -0.8051 0.1809, -0.2032 -0.8051 0.1806, -0.1183 -0.8051 0.1532, -0.1179 -0.8051 0.1532, -0.1168 -0.8051 0.1529, -0.13 -0.8051 0.1414, -0.13 -0.8051 0.1425, -0.1699 -0.8051 0.1463, -0.1293 -0.8051 0.1454, -0.128 -0.8051 0.148, -0.1287 -0.8051 0.1361, -0.1297 -0.8051 0.1387, -0.1701 -0.8051 0.1387, -0.1699 -0.8051 0.1426, -0.0793 -0.8051 0.1623, -0.0751 -0.8051 0.1683, -0.0725 -0.8051 0.175, -0.0716 -0.8051 0.1824, -0.116 -0.8051 0.1528, -0.0989 -0.8051 0.1528, -0.0921 -0.8051 0.1541, -0.0854 -0.8051 0.1572, -0.0798 -0.8051 0.1618, -0.1042 -0.8051 0.212, -0.2619 -0.8051 0.2084, -0.2652 -0.8051 0.1999, -0.1012 -0.8051 0.212, -0.0771 -0.8051 0.1995, -0.0815 -0.8051 0.2045, -0.0874 -0.8051 0.2086, -0.094 -0.8051 0.2111, -0.258 -0.8051 0.2141, -0.2082 -0.8051 0.223, -0.211 -0.8051 0.2245, -0.1112 -0.8051 0.2329, -0.1194 -0.8051 0.2435, -0.1225 -0.8051 0.2464, -0.1332 -0.8051 0.2536, -0.1452 -0.8051 0.258, -0.2195 -0.8051 0.2276, -0.2283 -0.8051 0.2287, -0.2322 -0.8051 0.2285, -0.1046 -0.8051 0.2141, -0.1059 -0.8051 0.2204, -0.1574 -0.8051 0.2594, -0.159 -0.8051 0.2594, -0.2029 -0.8051 0.2343, -0.1716 -0.8051 0.2576, -0.1945 -0.8051 0.2446, -0.184 -0.8051 0.2525, -0.2416 -0.8051 0.2263, -0.2501 -0.8051 0.2218, -0.2567 -0.8051 0.216, -0.0596 -0.8051 0.2141, -0.0542 -0.8051 0.2063, -0.0511 -0.8051 0.1984, 0.1722 -0.8051 0.1359, 0.1722 -0.8051 0.1298, 0.1772 -0.8051 0.1294, 0.1604 -0.8051 0.1294, 0.1695 -0.8051 0.1539, 0.1604 -0.8051 0.1539, 0.1604 -0.8051 0.1359, 0.1504 -0.8051 0.1539, 0.1504 -0.8051 0.1359, 0.1695 -0.8051 0.16, 0.171 -0.8051 0.1771, 0.1604 -0.8051 0.1771, 0.1604 -0.8051 0.1298, 0.1435 -0.8051 0.1298, 0.1399 -0.8051 0.1294, 0.1435 -0.8051 0.1832, 0.0335 -0.8051 0.148, 0.0345 -0.8051 0.1588, 0.0321 -0.8051 0.1461, 0.0312 -0.8051 0.1437, 0.0514 -0.8051 0.1319, 0.0489 -0.8051 0.1303, 0.0547 -0.8051 0.1298, 0.0465 -0.8051 0.1294, 0.0614 -0.8051 0.1298, 0.0284 -0.8051 0.1294, 0.0319 -0.8051 0.1347, 0.0311 -0.8051 0.1369, 0.0493 -0.8051 0.1632, 0.047 -0.8051 0.1634, 0.0434 -0.8051 0.1525, 0.0284 -0.8051 0.1082, 0.039 -0.8051 0.1294, 0.0388 -0.8051 0.1294, 0.0363 -0.8051 0.1304, 0.0355 -0.8051 0.1498, 0.0383 -0.8051 0.1512, 0.0391 -0.8051 0.1617, 0.0433 -0.8051 0.1631, 0.034 -0.8051 0.1319, 0.0334 -0.8051 0.1326, 0.0735 -0.8051 0.1505, 0.0705 -0.8051 0.1381, 0.0736 -0.8051 0.1505, 0.0729 -0.8051 0.1366, 0.0736 -0.8051 0.1363, 0.0408 -0.8051 0.168, 0.0284 -0.8051 0.1984, 0.0358 -0.8051 0.1661, 0.0345 -0.8051 0.1653, 0.0547 -0.8051 0.1357, 0.0545 -0.8051 0.1357, 0.0535 -0.8051 0.1341, 0.0724 -0.8051 0.1516, 0.0614 -0.8051 0.1544, 0.0705 -0.8051 0.1312, 0.0308 -0.8051 0.14, 0.0308 -0.8051 0.1408, 0.0547 -0.8051 0.1541, 0.0545 -0.8051 0.157, 0.0538 -0.8051 0.1594, 0.053 -0.8051 0.1608, 0.0584 -0.8051 0.1647, 0.0598 -0.8051 0.1625, 0.0715 -0.8051 0.162, 0.0609 -0.8051 0.1595, 0.0707 -0.8051 0.1599, 0.0476 -0.8051 0.1688, 0.0516 -0.8051 0.1685, 0.0544 -0.8051 0.1676, 0.052 -0.8051 0.1618, 0.0508 -0.8051 0.1626, 0.0716 -0.8051 0.1528, 0.0709 -0.8051 0.1548, 0.0705 -0.8051 0.1577, 0.0765 -0.8051 0.1294, 0.0736 -0.8051 0.1082, 0.0808 -0.8051 0.1289, 0.0944 -0.8051 0.1671, 0.0944 -0.8051 0.1606, 0.0952 -0.8051 0.1356, 0.094 -0.8051 0.1338, 0.096 -0.8051 0.1378, 0.0726 -0.8051 0.1638, 0.0736 -0.8051 0.1647, 0.0736 -0.8051 0.1984, 0.0748 -0.8051 0.1658, 0.0764 -0.8051 0.1668, 0.0919 -0.8051 0.132, 0.0904 -0.8051 0.131, 0.08 -0.8051 0.1682, 0.0853 -0.8051 0.1688, 0.0979 -0.8051 0.1984, 0.09 -0.8051 0.1684, 0.094 -0.8051 0.1465, 0.0952 -0.8051 0.1447, 0.0959 -0.8051 0.1427, 0.0962 -0.8051 0.1402, 0.0847 -0.8051 0.1634, 0.0827 -0.8051 0.1633, 0.0774 -0.8051 0.1583, 0.0809 -0.8051 0.1628, 0.0794 -0.8051 0.162, 0.0775 -0.8051 0.1574, 0.0777 -0.8051 0.1563, 0.0782 -0.8051 0.1554, 0.0789 -0.8051 0.1547, 0.0812 -0.8051 0.1533, 0.0894 -0.8051 0.1628, 0.0853 -0.8051 0.1515, 0.0931 -0.8051 0.1614, 0.0879 -0.8051 0.1504, 0.0924 -0.8051 0.1479, 0.0784 -0.8051 0.1611, 0.0778 -0.8051 0.1602, 0.0775 -0.8051 0.1593, 0.077 -0.8051 0.1349, 0.0806 -0.8051 0.1466, 0.0766 -0.8051 0.1484, 0.0815 -0.8051 0.1344, 0.0818 -0.8051 0.1344, 0.085 -0.8051 0.1448, 0.0852 -0.8051 0.1348, 0.0893 -0.8051 0.1396, 0.0893 -0.8051 0.1404, 0.0869 -0.8051 0.1354, 0.0875 -0.8051 0.1358, 0.0883 -0.8051 0.1365, 0.0889 -0.8051 0.1373, 0.0892 -0.8051 0.1383, 0.089 -0.8051 0.1414, 0.0885 -0.8051 0.1423, 0.0876 -0.8051 0.1432, 0.1968 -0.8051 0.2291, 0.1772 -0.8051 0.2291, 0.2023 -0.8051 0.2145, 0.1772 -0.8051 0.2141, 0.2099 -0.8051 0.2145, 0.7677 -0.8051 0.2141, 0.7677 -0.8051 0.2683, 0.1896 -0.8051 0.2679, 0.1772 -0.8051 0.2683, 0.1746 -0.8051 0.2291, 0.1695 -0.8051 0.2145, 0.1604 -0.8051 0.2141, 0.1619 -0.8051 0.2145, 0.1604 -0.8051 0.2683, 0.1772 -0.8051 0.2549, 0.1822 -0.8051 0.2679, 0.1399 -0.8051 0.2141, 0.1393 -0.8051 0.2156, 0.1301 -0.8051 0.2145, 0.1307 -0.8051 0.2679, 0.1399 -0.8051 0.2683, 0.1104 -0.8051 0.2683, 0.1104 -0.8051 0.2141, 0.1154 -0.8051 0.2145, 0.1154 -0.8051 0.2679, 0.1574 -0.8051 0.2323, 0.1548 -0.8051 0.2267, 0.1527 -0.8051 0.259, 0.156 -0.8051 0.2544, 0.1508 -0.8051 0.222, 0.1453 -0.8051 0.218, 0.1399 -0.8051 0.2159, 0.1508 -0.8051 0.2608, 0.1388 -0.8051 0.267, 0.1399 -0.8051 0.2666, 0.1453 -0.8051 0.2646, 0.158 -0.8051 0.2493, 0.1589 -0.8051 0.2419, 0.1587 -0.8051 0.2385, 0.0979 -0.8051 0.2683, 0.1041 -0.8051 0.2679, 0.0979 -0.8051 0.2679, 0.1041 -0.8051 0.2618, 0.1054 -0.8051 0.2206, 0.1054 -0.8051 0.2145, 0.0979 -0.8051 0.2141, 0.0835 -0.8051 0.2206, 0.0979 -0.8051 0.2206, 0.0835 -0.8051 0.2386, 0.0979 -0.8051 0.2386, 0.1026 -0.8051 0.2386, 0.1026 -0.8051 0.2447, 0.0979 -0.8051 0.2618, 0.0766 -0.8051 0.2679, 0.0736 -0.8051 0.2683, 0.0766 -0.8051 0.2145, 0.066 -0.8051 0.2666, 0.0604 -0.8051 0.2682, 0.059 -0.8051 0.2683, 0.0979 -0.8051 0.2145, 0.066 -0.8051 0.2594, 0.065 -0.8051 0.2163, 0.0547 -0.8051 0.2199, 0.0607 -0.8051 0.221, 0.066 -0.8051 0.2233, 0.066 -0.8051 0.2167, 0.0599 -0.8051 0.2618, 0.0534 -0.8051 0.2626, 0.0332 -0.8051 0.2406, 0.0359 -0.8051 0.229, 0.0385 -0.8051 0.2254, 0.0395 -0.8051 0.2243, 0.043 -0.8051 0.2219, 0.0468 -0.8051 0.2204, 0.0522 -0.8051 0.2198, 0.0388 -0.8051 0.2567, 0.0359 -0.8051 0.2526, 0.0425 -0.8051 0.2597, 0.0467 -0.8051 0.2616, 0.0513 -0.8051 0.2625, 0.0341 -0.8051 0.248, 0.0654 -0.8051 0.2597, 0.0333 -0.8051 0.2386, 0.0341 -0.8051 0.2333, 0.0533 -0.8051 0.2688, 0.0284 -0.8051 0.7677, 0.0736 -0.8051 0.7677, 0.0534 -0.8051 0.2688, 0.0298 -0.8051 0.2559, 0.0337 -0.8051 0.2609, 0.035 -0.8051 0.2622, 0.04 -0.8051 0.2657, 0.0284 -0.8051 0.2281, 0.0271 -0.8051 0.2314, 0.0252 -0.8051 0.2141, 0.026 -0.8051 0.2402, 0.0261 -0.8051 0.243, 0.0252 -0.8051 0.2683, 0.0273 -0.8051 0.25, 0.0284 -0.8051 0.2525, 0.0371 -0.8051 0.2173, 0.0328 -0.8051 0.2209, 0.0284 -0.8051 0.2141, 0.0293 -0.8051 0.2259, 0.0512 -0.8051 0.2136, 0.048 -0.8051 0.2138, 0.0465 -0.8051 0.2141, 0.0422 -0.8051 0.215, 0.0566 -0.8051 0.1664, 0.0462 -0.8051 0.1293, 0.0429 -0.8051 0.1289, 0.1294 -0.8051 0.168, 0.1363 -0.8051 0.168, 0.1399 -0.8051 0.1984, 0.171 -0.8051 0.1832, 0.1772 -0.8051 0.1984, 0.1604 -0.8051 0.1832, 0.1604 -0.8051 0.1984, 0.1211 -0.8051 0.1294, 0.1171 -0.8051 0.1393, 0.1179 -0.8051 0.1362, 0.1181 -0.8051 0.1362, 0.1104 -0.8051 0.1984, 0.1104 -0.8051 0.1587, 0.1189 -0.8051 0.1393, 0.1184 -0.8051 0.1375, 0.1104 -0.8051 0.1294, 0.1104 -0.8051 0.1407, 0.0997 -0.8051 0.168, 0.1072 -0.8051 0.168, 0.1146 -0.8051 0.1299, 0.1144 -0.8051 0.1294, 0.1117 -0.8051 0.123, 0.0979 -0.8051 0.1082, 0.1011 -0.8051 0.1124, 0.1011 -0.8051 0.1184, 0.1024 -0.8051 0.1179, 0.1049 -0.8051 0.1176, 0.1061 -0.8051 0.1177, 0.1076 -0.8051 0.1182, 0.1089 -0.8051 0.1189, 0.1104 -0.8051 0.1131, 0.1082 -0.8051 0.1122, 0.1104 -0.8051 0.1082, 0.1054 -0.8051 0.1119, 0.1039 -0.8051 0.1119, 0.1102 -0.8051 0.1203, 0.1104 -0.8051 0.1207, 0.1399 -0.8051 0.1082, 0.1132 -0.8051 0.1149, 0.1109 -0.8051 0.1133, 0.119 -0.8051 0.1241, 0.1159 -0.8051 0.1181, -0.7677 -0.8051 0.0197, -0.7677 -0.8051 0.1082, -0.7677 -0.8051 0.1294, -0.7677 -0.8051 0.1984, -0.7677 -0.8051 0.2141, -0.7677 -0.8051 0.2683, -0.7677 -0.8051 0.7677, 0.0238 -0.8051 0.2206, 0.0238 -0.8051 0.2145, -0.0043 -0.8051 0.2145, 0.0026 -0.8051 0.2679, 0.0026 -0.8051 0.2206, -0.0043 -0.8051 0.2679, 0.0252 -0.8051 0.1294, 0.0244 -0.8051 0.1298, -0.0043 -0.8051 0.1298, 0.0244 -0.8051 0.1359, 0.0232 -0.8051 0.1771, 0.0026 -0.8051 0.1539, 0.0026 -0.8051 0.1359, 0.0216 -0.8051 0.1539, 0.0216 -0.8051 0.16, 0.0026 -0.8051 0.16, 0.0026 -0.8051 0.1771, -0.0043 -0.8051 0.1832, 0.0232 -0.8051 0.1832, 0.0252 -0.8051 0.7677, 0.0979 -0.8051 0.7677, 0.1104 -0.8051 0.7677, 0.1399 -0.8051 0.7677, 0.1604 -0.8051 0.7677, 0.1772 -0.8051 0.7677, 0.7677 -0.8051 0.7677, 0.1823 -0.8051 0.1298, 0.1823 -0.8051 0.1832, 0.197 -0.8051 0.1298, 0.2691 -0.8051 0.1298, 0.2767 -0.8051 0.1298, 0.7677 -0.8051 0.1294, 0.2564 -0.8051 0.1832, 0.7677 -0.8051 0.1984, 0.2637 -0.8051 0.1444, 0.2414 -0.8051 0.1444, 0.2363 -0.8051 0.1298, 0.2287 -0.8051 0.1298, 0.249 -0.8051 0.1832, 0.2217 -0.8051 0.142, 0.2177 -0.8051 0.1373, 0.2122 -0.8051 0.1333, 0.2061 -0.8051 0.131, 0.2177 -0.8051 0.1761, 0.2195 -0.8051 0.1743, 0.2229 -0.8051 0.1697, 0.2248 -0.8051 0.1646, 0.1975 -0.8051 0.1832, 0.2057 -0.8051 0.1823, 0.2121 -0.8051 0.18, 0.2257 -0.8051 0.1572, 0.2256 -0.8051 0.1538, 0.2243 -0.8051 0.1476, 0.1604 -0.8051 0.1082, 0.1772 -0.8051 0.1082, 0.7677 -0.8051 0.1082, 0.0252 -0.8051 0.0197, 0.0284 -0.8051 0.0197, 0.0736 -0.8051 0.0197, 0.0979 -0.8051 0.0197, 0.1104 -0.8051 0.0197, 0.1399 -0.8051 0.0197, 0.1604 -0.8051 0.0197, 0.1772 -0.8051 0.0197, 0.7677 -0.8051 0.0197, 0.8071 -0.7657 0.7677, 0.8071 -0.7657 0.0197, 0.8071 0.7697 0.7677, 0.8071 0.7697 0.0197, 0.7677 0.8091 0.7677, 0.7677 0.8091 0.0197, -0.7677 0.8091 0.7677, -0.7677 0.8091 0.0197, -0.8071 0.7697 0.7677, -0.8071 0.7697 0.0197, -0.8071 -0.7657 0.7677, -0.8071 -0.7657 0.0197, 0.7874 -0.7657 0.7874, 0.7874 0.7697 0.7874, 0.7677 0.7894 0.7874, -0.7728 0.7887 0.7874, -0.7874 0.7697 0.7874, -0.7677 0.7894 0.7874, -0.7874 -0.7657 0.7874, 0.7677 -0.7854 0.7874, -0.7677 -0.7854 0.7874, -0.7867 -0.7708 0.7874, -0.7848 -0.7756 0.7874, 0.7776 -0.7828 0.7874, 0.7816 -0.7797 0.7874, 0.7728 -0.7848 0.7874, 0.7848 -0.7756 0.7874, 0.7867 -0.7708 0.7874, -0.7816 -0.7797 0.7874, -0.7776 -0.7828 0.7874, -0.7728 -0.7848 0.7874, 0.7848 0.7795 0.7874, 0.7816 0.7836 0.7874, 0.7867 0.7748 0.7874, 0.7776 0.7867 0.7874, 0.7728 0.7887 0.7874, -0.7776 0.7867 0.7874, -0.7816 0.7836 0.7874, -0.7848 0.7795 0.7874, -0.7867 0.7748 0.7874, 0.8057 -0.7759 0.0197, 0.8018 -0.7854 0.0197, 0.7956 -0.7936 0.0197, 0.7779 -0.8038 0.0197, 0.7874 -0.7998 0.0197, -0.8057 0.7799 0.0197, -0.7779 -0.8038 0.0197, -0.7874 -0.7998 0.0197, -0.7956 -0.7936 0.0197, -0.8018 -0.7854 0.0197, -0.8057 -0.7759 0.0197, -0.8018 0.7894 0.0197, -0.7956 0.7975 0.0197, -0.7874 0.8038 0.0197, -0.7779 0.8077 0.0197, 0.7874 0.8038 0.0197, 0.7956 0.7975 0.0197, 0.7779 0.8077 0.0197, 0.8018 0.7894 0.0197, 0.8057 0.7799 0.0197, -0.8057 -0.7759 0.7677, -0.8018 -0.7854 0.7677, -0.7956 -0.7936 0.7677, -0.7874 -0.7998 0.7677, -0.7779 -0.8038 0.7677, 0.7779 -0.8038 0.7677, 0.7874 -0.7998 0.7677, 0.7956 -0.7936 0.7677, 0.8018 -0.7854 0.7677, 0.8057 -0.7759 0.7677, 0.8057 0.7799 0.7677, 0.8018 0.7894 0.7677, 0.7956 0.7975 0.7677, 0.7874 0.8038 0.7677, 0.7779 0.8077 0.7677, -0.7779 0.8077 0.7677, -0.7874 0.8038 0.7677, -0.7956 0.7975 0.7677, -0.8018 0.7894 0.7677, -0.8057 0.7799 0.7677, 0.7739 -0.789 0.7869, 0.7918 -0.7657 0.7869, 0.791 -0.772 0.7869, 0.7925 -0.7657 0.7867, 0.795 -0.7731 0.7855, 0.7677 -0.7898 0.7869, 0.7677 -0.7905 0.7867, 0.775 -0.793 0.7855, 0.7986 -0.774 0.7831, 0.7972 -0.7657 0.7847, 0.7959 -0.7657 0.7855, 0.7677 -0.794 0.7855, 0.7677 -0.7952 0.7847, 0.776 -0.7966 0.7831, 0.8016 -0.7748 0.78, 0.8012 -0.7657 0.7815, 0.7997 -0.7657 0.7831, 0.7677 -0.7977 0.7831, 0.7677 -0.7993 0.7815, 0.7768 -0.7996 0.78, 0.8064 -0.7657 0.7728, 0.8051 -0.7657 0.7763, 0.8039 -0.7754 0.7763, 0.8044 -0.7657 0.7775, 0.8028 -0.7657 0.78, 0.7886 -0.7778 0.7869, 0.7922 -0.7799 0.7855, 0.7954 -0.7817 0.7831, 0.7981 -0.7833 0.78, 0.8001 -0.7845 0.7763, 0.7847 -0.7828 0.7869, 0.7877 -0.7857 0.7855, 0.7903 -0.7883 0.7831, 0.7925 -0.7905 0.78, 0.7942 -0.7922 0.7763, 0.7797 -0.7866 0.7869, 0.7818 -0.7902 0.7855, 0.7837 -0.7934 0.7831, 0.7853 -0.7961 0.78, 0.7864 -0.7982 0.7763, 0.7774 -0.8019 0.7763, 0.8066 -0.7657 0.7721, 0.8053 -0.7758 0.7721, 0.7677 -0.8008 0.78, 0.7677 -0.8024 0.7775, 0.7677 -0.8032 0.7763, 0.7677 -0.8044 0.7728, 0.8014 -0.7852 0.7721, 0.7952 -0.7932 0.7721, 0.7872 -0.7994 0.7721, 0.7778 -0.8033 0.7721, 0.7677 -0.8046 0.7721, 0.7918 0.7697 0.7869, 0.7925 0.7697 0.7867, 0.7959 0.7697 0.7855, 0.7972 0.7697 0.7847, 0.7997 0.7697 0.7831, 0.8012 0.7697 0.7815, 0.8028 0.7697 0.78, 0.8044 0.7697 0.7775, 0.8051 0.7697 0.7763, 0.8064 0.7697 0.7728, 0.8066 0.7697 0.7721, -0.7677 -0.7905 0.7867, -0.7677 -0.7953 0.7848, -0.7677 -0.7994 0.7816, -0.7677 -0.8025 0.7776, -0.7677 -0.8044 0.7728, 0.791 0.7759 0.7869, 0.7677 0.7938 0.7869, 0.7739 0.7929 0.7869, 0.7677 0.7944 0.7867, 0.775 0.7969 0.7855, 0.795 0.777 0.7855, 0.776 0.8006 0.7831, 0.7677 0.7992 0.7847, 0.7677 0.7979 0.7855, 0.7986 0.778 0.7831, 0.7768 0.8036 0.78, 0.7677 0.8032 0.7815, 0.7677 0.8016 0.7831, 0.8016 0.7788 0.78, 0.7677 0.8083 0.7728, 0.7677 0.8071 0.7763, 0.7774 0.8058 0.7763, 0.7677 0.8063 0.7775, 0.7677 0.8048 0.78, 0.7797 0.7905 0.7869, 0.7818 0.7941 0.7855, 0.7837 0.7974 0.7831, 0.7853 0.8001 0.78, 0.7864 0.8021 0.7763, 0.7847 0.7867 0.7869, 0.7877 0.7896 0.7855, 0.7903 0.7923 0.7831, 0.7925 0.7945 0.78, 0.7942 0.7961 0.7763, 0.7886 0.7817 0.7869, 0.7922 0.7838 0.7855, 0.7954 0.7857 0.7831, 0.7981 0.7872 0.78, 0.8001 0.7884 0.7763, 0.8039 0.7794 0.7763, 0.7677 0.8086 0.7721, 0.7778 0.8072 0.7721, 0.7872 0.8034 0.7721, 0.7952 0.7972 0.7721, 0.8014 0.7891 0.7721, 0.8053 0.7797 0.7721, -0.7741 -0.7897 0.7867, -0.7754 -0.7943 0.7848, -0.7764 -0.7982 0.7816, -0.7772 -0.8012 0.7776, -0.7777 -0.8031 0.7728, -0.7801 -0.7872 0.7867, -0.7825 -0.7913 0.7848, -0.7845 -0.7949 0.7816, -0.7861 -0.7976 0.7776, -0.7871 -0.7993 0.7728, -0.7852 -0.7833 0.7867, -0.7886 -0.7866 0.7848, -0.7915 -0.7895 0.7816, -0.7937 -0.7917 0.7776, -0.7951 -0.7931 0.7728, -0.7892 -0.7781 0.7867, -0.7933 -0.7805 0.7848, -0.7968 -0.7826 0.7816, -0.7995 -0.7841 0.7776, -0.8012 -0.7851 0.7728, -0.7917 -0.7722 0.7867, -0.7962 -0.7734 0.7848, -0.8002 -0.7744 0.7816, -0.8032 -0.7753 0.7776, -0.8051 -0.7758 0.7728, -0.7925 -0.7657 0.7867, -0.7972 -0.7657 0.7848, -0.8013 -0.7657 0.7816, -0.8044 -0.7657 0.7776, -0.8064 -0.7657 0.7728, -0.7677 0.7945 0.7867, -0.7677 0.7992 0.7848, -0.7677 0.8033 0.7816, -0.7677 0.8064 0.7776, -0.7677 0.8084 0.7728, -0.7925 0.7697 0.7867, -0.7972 0.7697 0.7848, -0.8013 0.7697 0.7816, -0.8044 0.7697 0.7776, -0.8064 0.7697 0.7728, -0.7917 0.7761 0.7867, -0.7962 0.7773 0.7848, -0.8002 0.7784 0.7816, -0.8032 0.7792 0.7776, -0.8051 0.7797 0.7728, -0.7892 0.7821 0.7867, -0.7933 0.7844 0.7848, -0.7968 0.7865 0.7816, -0.7995 0.7881 0.7776, -0.8012 0.789 0.7728, -0.7852 0.7872 0.7867, -0.7886 0.7906 0.7848, -0.7915 0.7934 0.7816, -0.7937 0.7957 0.7776, -0.7951 0.797 0.7728, -0.7801 0.7911 0.7867, -0.7825 0.7953 0.7848, -0.7845 0.7988 0.7816, -0.7861 0.8015 0.7776, -0.7871 0.8032 0.7728, -0.7741 0.7936 0.7867, -0.7754 0.7982 0.7848, -0.7764 0.8021 0.7816, -0.7772 0.8052 0.7776, -0.7777 0.8071 0.7728
            ]
        }
        coordIndex [
            0,1,2,-1,3,4,5,-1,6,7,8,-1,9,10,11,-1,12,13,14,-1,15,16,17,-1,18,19,20,-1,21,22,23,-1,24,25,26,-1,27,28,29,-1,29,28,3,-1,30,31,29,-1,29,31,32,-1,32,33,29,-1,29,33,34,-1,29,34,27,-1,35,36,37,-1,38,39,40,-1,40,39,37,-1,37,39,41,-1,37,41,35,-1,42,43,44,-1,38,40,45,-1,45,40,44,-1,45,44,46,-1,43,47,44,-1,44,47,48,-1,44,48,46,-1,46,48,49,-1,46,49,50,-1,50,49,51,-1,50,51,52,-1,26,25,53,-1,25,54,53,-1,53,54,55,-1,53,55,44,-1,44,55,56,-1,44,56,42,-1,57,58,59,-1,58,60,59,-1,59,60,61,-1,59,61,62,-1,62,63,59,-1,59,63,64,-1,59,64,26,-1,26,64,65,-1,26,65,24,-1,66,67,59,-1,59,67,68,-1,59,68,57,-1,69,70,71,-1,70,72,71,-1,71,72,73,-1,71,73,74,-1,74,73,75,-1,74,75,76,-1,76,75,77,-1,76,77,59,-1,59,77,78,-1,59,78,66,-1,0,79,1,-1,1,79,80,-1,1,80,81,-1,81,82,1,-1,1,82,83,-1,1,83,69,-1,84,85,0,-1,84,0,86,-1,87,88,89,-1,89,88,90,-1,91,92,88,-1,88,92,93,-1,88,93,94,-1,95,96,97,-1,97,96,98,-1,99,100,79,-1,79,100,101,-1,79,101,102,-1,103,104,105,-1,105,104,106,-1,105,106,107,-1,108,94,109,-1,109,94,110,-1,109,110,105,-1,105,110,111,-1,105,111,103,-1,112,113,4,-1,4,113,114,-1,4,114,0,-1,0,114,115,-1,0,115,86,-1,85,116,0,-1,0,116,117,-1,0,117,79,-1,79,117,118,-1,79,118,99,-1,108,119,94,-1,94,119,120,-1,94,120,88,-1,88,120,121,-1,88,121,90,-1,95,122,96,-1,96,122,123,-1,96,123,124,-1,125,126,127,-1,127,126,128,-1,127,128,96,-1,96,128,129,-1,96,129,98,-1,102,130,79,-1,79,130,131,-1,79,131,132,-1,132,131,125,-1,132,125,133,-1,133,125,127,-1,134,135,96,-1,96,135,136,-1,96,136,88,-1,88,136,137,-1,88,137,91,-1,124,138,96,-1,96,138,139,-1,96,139,140,-1,140,141,96,-1,96,141,142,-1,96,142,134,-1,143,144,145,-1,145,94,143,-1,143,94,93,-1,143,93,146,-1,146,93,147,-1,147,148,146,-1,146,148,149,-1,146,149,150,-1,151,152,153,-1,154,155,152,-1,155,156,152,-1,152,156,157,-1,152,157,158,-1,153,159,151,-1,151,159,160,-1,151,160,161,-1,144,143,151,-1,151,143,162,-1,151,162,152,-1,152,162,163,-1,152,163,154,-1,158,164,152,-1,152,164,165,-1,152,165,166,-1,166,165,167,-1,166,167,168,-1,168,167,169,-1,170,171,161,-1,161,171,172,-1,161,172,151,-1,28,173,3,-1,3,173,174,-1,3,174,4,-1,4,174,175,-1,4,175,112,-1,176,177,178,-1,178,177,179,-1,180,181,182,-1,182,181,183,-1,182,183,184,-1,182,176,180,-1,180,176,178,-1,180,178,185,-1,185,178,186,-1,185,186,23,-1,23,186,187,-1,23,187,21,-1,177,188,179,-1,179,188,189,-1,179,189,190,-1,190,189,191,-1,192,193,194,-1,194,193,195,-1,196,197,198,-1,198,197,199,-1,198,199,200,-1,201,202,203,-1,204,205,206,-1,207,208,201,-1,201,208,209,-1,201,209,210,-1,192,211,193,-1,193,211,212,-1,193,212,213,-1,213,212,206,-1,213,206,214,-1,214,206,205,-1,210,215,201,-1,201,215,216,-1,201,216,202,-1,217,218,219,-1,219,218,220,-1,219,220,221,-1,222,223,224,-1,224,223,225,-1,226,227,198,-1,198,227,228,-1,198,228,196,-1,217,229,218,-1,218,229,230,-1,218,230,231,-1,231,230,200,-1,231,200,19,-1,203,232,201,-1,201,232,233,-1,201,233,223,-1,223,233,195,-1,223,195,225,-1,225,195,193,-1,234,235,206,-1,206,235,236,-1,206,236,237,-1,238,239,240,-1,240,239,241,-1,240,241,242,-1,222,243,223,-1,223,243,244,-1,223,244,245,-1,237,246,206,-1,206,246,247,-1,206,247,204,-1,229,248,230,-1,230,248,249,-1,230,249,241,-1,241,249,250,-1,241,250,242,-1,18,20,251,-1,251,20,252,-1,251,252,253,-1,254,255,17,-1,256,257,17,-1,256,17,258,-1,259,260,261,-1,261,260,262,-1,261,262,263,-1,257,264,17,-1,17,264,265,-1,17,265,15,-1,263,266,261,-1,261,266,267,-1,261,267,268,-1,268,267,269,-1,268,269,254,-1,270,271,255,-1,255,271,272,-1,255,272,17,-1,17,272,273,-1,17,273,258,-1,274,275,276,-1,276,275,277,-1,276,277,278,-1,276,279,274,-1,274,279,280,-1,274,280,281,-1,281,282,274,-1,274,282,283,-1,274,283,284,-1,284,283,285,-1,284,285,286,-1,286,285,287,-1,286,287,255,-1,255,287,288,-1,255,288,270,-1,289,290,278,-1,278,290,291,-1,278,291,276,-1,292,293,221,-1,221,293,294,-1,221,294,219,-1,292,295,293,-1,293,295,296,-1,293,296,297,-1,297,296,298,-1,297,299,300,-1,298,301,297,-1,297,301,302,-1,297,302,303,-1,303,304,297,-1,297,304,305,-1,297,305,299,-1,300,306,297,-1,297,306,307,-1,297,307,308,-1,309,310,311,-1,311,310,312,-1,311,312,313,-1,314,315,316,-1,316,315,317,-1,310,318,312,-1,312,318,319,-1,312,319,320,-1,320,319,321,-1,320,321,322,-1,322,321,323,-1,322,323,317,-1,317,323,324,-1,317,324,316,-1,325,326,327,-1,328,329,330,-1,325,327,331,-1,331,327,332,-1,331,332,330,-1,330,332,333,-1,330,333,328,-1,334,335,320,-1,336,337,322,-1,335,338,320,-1,320,338,339,-1,320,339,325,-1,325,339,340,-1,325,340,326,-1,336,322,341,-1,328,342,329,-1,329,342,343,-1,329,343,322,-1,322,343,344,-1,322,344,341,-1,337,345,322,-1,322,345,346,-1,322,346,320,-1,320,346,347,-1,320,347,334,-1,330,348,349,-1,349,348,350,-1,349,351,330,-1,330,351,352,-1,330,352,331,-1,331,352,353,-1,331,353,354,-1,355,356,357,-1,357,356,358,-1,358,356,359,-1,359,356,352,-1,359,352,360,-1,360,352,351,-1,360,351,14,-1,14,351,361,-1,14,361,12,-1,350,348,362,-1,362,348,363,-1,362,363,364,-1,365,363,366,-1,366,363,367,-1,353,368,354,-1,354,368,364,-1,354,364,11,-1,11,364,363,-1,11,363,369,-1,369,363,365,-1,9,11,370,-1,371,372,369,-1,369,372,373,-1,369,373,11,-1,11,373,374,-1,11,374,370,-1,375,376,377,-1,378,379,369,-1,369,379,380,-1,369,380,381,-1,381,382,369,-1,369,382,383,-1,369,383,371,-1,384,385,386,-1,386,385,387,-1,376,388,377,-1,377,388,387,-1,377,387,389,-1,389,387,385,-1,375,377,390,-1,390,377,391,-1,390,391,369,-1,369,391,392,-1,369,392,378,-1,7,393,394,-1,394,393,395,-1,395,393,396,-1,395,396,367,-1,8,397,398,-1,398,399,8,-1,8,399,400,-1,8,400,6,-1,401,402,403,-1,404,405,406,-1,406,405,407,-1,406,407,8,-1,8,407,408,-1,8,408,397,-1,409,410,411,-1,411,410,412,-1,413,414,223,-1,223,414,415,-1,223,415,411,-1,411,415,416,-1,411,416,409,-1,10,413,261,-1,261,413,223,-1,261,223,259,-1,259,223,245,-1,259,245,240,-1,240,245,417,-1,240,417,238,-1,19,200,20,-1,20,200,199,-1,20,199,252,-1,252,199,418,-1,252,418,207,-1,207,418,419,-1,207,419,208,-1,420,421,422,-1,423,424,425,-1,425,424,426,-1,425,426,191,-1,191,426,422,-1,191,422,190,-1,190,422,421,-1,190,421,427,-1,428,429,430,-1,422,431,420,-1,420,431,432,-1,420,432,433,-1,433,432,428,-1,433,428,434,-1,434,428,430,-1,435,436,17,-1,17,436,437,-1,254,17,268,-1,268,17,437,-1,268,437,431,-1,431,437,438,-1,431,438,432,-1,439,436,440,-1,440,436,435,-1,440,435,441,-1,442,443,444,-1,253,252,16,-1,16,252,442,-1,16,442,17,-1,17,442,444,-1,17,444,435,-1,435,444,445,-1,435,445,446,-1,446,447,435,-1,435,447,448,-1,435,448,449,-1,450,451,452,-1,452,451,453,-1,452,453,442,-1,442,453,454,-1,442,454,443,-1,449,455,435,-1,435,455,456,-1,435,456,441,-1,457,458,452,-1,452,458,459,-1,452,459,450,-1,427,460,457,-1,457,460,461,-1,457,461,458,-1,462,74,463,-1,463,74,76,-1,463,76,464,-1,464,76,59,-1,464,59,465,-1,465,59,26,-1,465,26,466,-1,466,26,53,-1,466,53,467,-1,467,53,44,-1,467,44,468,-1,468,44,40,-1,469,470,403,-1,403,470,471,-1,472,406,29,-1,402,404,403,-1,403,404,406,-1,403,406,469,-1,469,406,472,-1,469,472,473,-1,5,403,3,-1,3,403,471,-1,3,471,29,-1,29,471,474,-1,29,474,472,-1,475,476,477,-1,476,475,478,-1,478,475,5,-1,478,5,479,-1,480,481,482,-1,482,481,478,-1,482,478,483,-1,483,478,479,-1,483,479,484,-1,484,479,485,-1,2,475,0,-1,0,475,477,-1,0,477,4,-1,4,477,486,-1,4,486,5,-1,5,486,487,-1,5,487,479,-1,7,394,8,-1,8,394,488,-1,8,488,406,-1,406,488,37,-1,406,37,29,-1,29,37,36,-1,29,36,30,-1,2,207,475,-1,475,207,201,-1,475,201,5,-1,5,201,223,-1,5,223,403,-1,403,223,411,-1,403,411,401,-1,401,411,412,-1,10,261,11,-1,11,261,268,-1,11,268,354,-1,354,268,431,-1,354,431,331,-1,331,431,422,-1,331,422,325,-1,325,422,426,-1,325,426,320,-1,320,426,424,-1,320,424,312,-1,367,363,395,-1,395,363,348,-1,395,348,489,-1,489,348,330,-1,489,330,490,-1,490,330,329,-1,490,329,491,-1,491,329,322,-1,491,322,492,-1,492,322,317,-1,492,317,493,-1,493,317,315,-1,493,315,494,-1,495,496,424,-1,423,186,424,-1,424,186,178,-1,424,178,495,-1,495,178,497,-1,498,178,499,-1,499,178,500,-1,499,500,501,-1,501,500,502,-1,503,504,498,-1,498,504,505,-1,498,505,178,-1,178,505,506,-1,178,506,497,-1,316,313,314,-1,314,313,312,-1,314,312,502,-1,502,312,424,-1,502,424,501,-1,501,424,507,-1,506,508,509,-1,509,510,506,-1,506,510,511,-1,506,511,497,-1,512,513,507,-1,507,513,514,-1,507,514,515,-1,496,516,424,-1,424,516,517,-1,424,517,507,-1,507,517,518,-1,507,518,512,-1,515,519,507,-1,507,519,520,-1,507,520,506,-1,506,520,521,-1,506,521,508,-1,427,457,190,-1,190,457,522,-1,190,522,179,-1,179,522,523,-1,179,523,178,-1,178,523,524,-1,178,524,500,-1,69,71,1,-1,1,71,525,-1,1,525,2,-1,2,525,526,-1,2,526,207,-1,207,526,527,-1,207,527,252,-1,252,527,528,-1,252,528,442,-1,442,528,529,-1,442,529,452,-1,452,529,530,-1,452,530,457,-1,457,530,531,-1,457,531,522,-1,522,531,532,-1,522,532,523,-1,523,532,533,-1,523,533,524,-1,534,535,536,-1,536,535,537,-1,538,539,540,-1,540,539,541,-1,542,543,544,-1,544,543,545,-1,546,547,548,-1,549,550,551,-1,551,550,552,-1,551,552,548,-1,546,548,553,-1,553,548,552,-1,553,552,554,-1,554,552,555,-1,554,555,556,-1,557,558,559,-1,559,558,560,-1,559,560,553,-1,553,560,561,-1,553,561,546,-1,556,562,554,-1,554,562,563,-1,554,563,564,-1,565,566,567,-1,567,566,568,-1,567,568,547,-1,547,568,569,-1,547,569,548,-1,549,570,571,-1,571,572,549,-1,549,572,573,-1,549,573,550,-1,574,533,535,-1,535,533,545,-1,535,545,537,-1,537,545,543,-1,574,575,533,-1,533,575,576,-1,533,576,577,-1,577,576,578,-1,539,537,541,-1,541,537,543,-1,541,543,579,-1,533,462,545,-1,545,462,580,-1,545,580,581,-1,581,582,545,-1,545,582,583,-1,545,583,584,-1,579,585,586,-1,586,587,579,-1,579,587,588,-1,579,588,541,-1,589,590,591,-1,591,590,592,-1,591,592,539,-1,539,592,593,-1,539,593,537,-1,544,545,584,-1,544,584,594,-1,594,584,583,-1,594,583,595,-1,595,583,582,-1,595,582,596,-1,596,582,581,-1,596,581,597,-1,597,581,580,-1,597,580,598,-1,598,580,462,-1,598,462,468,-1,494,533,577,-1,494,577,599,-1,599,577,578,-1,599,578,600,-1,600,578,576,-1,600,576,601,-1,601,576,575,-1,601,575,602,-1,602,575,574,-1,602,574,603,-1,603,574,535,-1,603,535,534,-1,536,537,593,-1,536,593,604,-1,604,593,592,-1,604,592,605,-1,605,592,590,-1,605,590,606,-1,606,590,589,-1,606,589,607,-1,607,589,591,-1,607,591,608,-1,608,591,539,-1,608,539,538,-1,540,541,588,-1,540,588,609,-1,609,588,587,-1,609,587,610,-1,610,587,586,-1,610,586,611,-1,611,586,585,-1,611,585,612,-1,612,585,579,-1,612,579,613,-1,613,579,543,-1,613,543,542,-1,614,559,553,-1,546,561,615,-1,615,561,616,-1,615,616,617,-1,617,616,618,-1,553,619,614,-1,614,619,620,-1,614,620,621,-1,622,623,618,-1,618,623,624,-1,618,624,617,-1,620,625,621,-1,621,625,626,-1,621,626,627,-1,628,629,622,-1,622,629,630,-1,622,630,623,-1,626,631,627,-1,627,631,632,-1,627,632,633,-1,634,635,636,-1,636,635,637,-1,636,637,628,-1,628,637,638,-1,628,638,629,-1,561,560,616,-1,616,560,639,-1,616,639,618,-1,618,639,640,-1,618,640,622,-1,622,640,641,-1,622,641,628,-1,628,641,642,-1,628,642,636,-1,636,642,643,-1,560,558,639,-1,639,558,644,-1,639,644,640,-1,640,644,645,-1,640,645,641,-1,641,645,646,-1,641,646,642,-1,642,646,647,-1,642,647,643,-1,643,647,648,-1,558,557,644,-1,644,557,649,-1,644,649,645,-1,645,649,650,-1,645,650,646,-1,646,650,651,-1,646,651,647,-1,647,651,652,-1,647,652,648,-1,648,652,653,-1,557,559,649,-1,649,559,614,-1,649,614,650,-1,650,614,621,-1,650,621,651,-1,651,621,627,-1,651,627,652,-1,652,627,633,-1,652,633,653,-1,653,633,654,-1,534,655,656,-1,656,655,634,-1,632,657,633,-1,633,657,658,-1,633,658,654,-1,654,658,659,-1,654,659,660,-1,634,636,656,-1,656,636,643,-1,656,643,661,-1,661,643,648,-1,661,648,662,-1,662,648,653,-1,662,653,663,-1,663,653,654,-1,663,654,664,-1,664,654,660,-1,664,660,665,-1,534,656,603,-1,603,656,661,-1,603,661,602,-1,602,661,662,-1,602,662,601,-1,601,662,663,-1,601,663,600,-1,600,663,664,-1,600,664,599,-1,599,664,665,-1,599,665,494,-1,547,546,666,-1,666,546,615,-1,666,615,667,-1,667,615,617,-1,667,617,668,-1,668,617,624,-1,668,624,669,-1,669,624,623,-1,669,623,670,-1,670,623,630,-1,670,630,671,-1,671,630,629,-1,671,629,672,-1,672,629,638,-1,672,638,673,-1,673,638,637,-1,673,637,674,-1,674,637,635,-1,674,635,675,-1,675,635,634,-1,675,634,676,-1,676,634,655,-1,676,655,536,-1,536,655,534,-1,619,553,554,-1,619,554,620,-1,620,554,677,-1,620,677,625,-1,625,677,626,-1,626,677,678,-1,626,678,631,-1,631,678,632,-1,632,678,679,-1,632,679,657,-1,657,679,680,-1,657,680,658,-1,658,680,659,-1,659,680,681,-1,659,681,660,-1,660,681,665,-1,665,681,468,-1,665,468,494,-1,682,567,547,-1,548,569,683,-1,683,569,684,-1,683,684,685,-1,685,684,686,-1,547,666,682,-1,682,666,667,-1,682,667,687,-1,688,689,686,-1,686,689,690,-1,686,690,685,-1,667,668,687,-1,687,668,669,-1,687,669,691,-1,692,693,688,-1,688,693,694,-1,688,694,689,-1,669,670,691,-1,691,670,671,-1,691,671,695,-1,696,697,698,-1,698,697,699,-1,698,699,692,-1,692,699,700,-1,692,700,693,-1,569,568,684,-1,684,568,701,-1,684,701,686,-1,686,701,702,-1,686,702,688,-1,688,702,703,-1,688,703,692,-1,692,703,704,-1,692,704,698,-1,698,704,705,-1,568,566,701,-1,701,566,706,-1,701,706,702,-1,702,706,707,-1,702,707,703,-1,703,707,708,-1,703,708,704,-1,704,708,709,-1,704,709,705,-1,705,709,710,-1,566,565,706,-1,706,565,711,-1,706,711,707,-1,707,711,712,-1,707,712,708,-1,708,712,713,-1,708,713,709,-1,709,713,714,-1,709,714,710,-1,710,714,715,-1,565,567,711,-1,711,567,682,-1,711,682,712,-1,712,682,687,-1,712,687,713,-1,713,687,691,-1,713,691,714,-1,714,691,695,-1,714,695,715,-1,715,695,716,-1,538,717,718,-1,718,717,696,-1,671,672,695,-1,695,672,673,-1,695,673,716,-1,716,673,674,-1,716,674,675,-1,696,698,718,-1,718,698,705,-1,718,705,719,-1,719,705,710,-1,719,710,720,-1,720,710,715,-1,720,715,721,-1,721,715,716,-1,721,716,722,-1,722,716,675,-1,722,675,676,-1,538,718,608,-1,608,718,719,-1,608,719,607,-1,607,719,720,-1,607,720,606,-1,606,720,721,-1,606,721,605,-1,605,721,722,-1,605,722,604,-1,604,722,676,-1,604,676,536,-1,554,564,677,-1,677,564,723,-1,677,723,678,-1,678,723,724,-1,678,724,679,-1,679,724,725,-1,679,725,680,-1,680,725,726,-1,680,726,681,-1,681,726,727,-1,681,727,468,-1,468,727,598,-1,564,563,723,-1,723,563,728,-1,723,728,724,-1,724,728,729,-1,724,729,725,-1,725,729,730,-1,725,730,726,-1,726,730,731,-1,726,731,727,-1,727,731,732,-1,727,732,598,-1,598,732,597,-1,563,562,728,-1,728,562,733,-1,728,733,729,-1,729,733,734,-1,729,734,730,-1,730,734,735,-1,730,735,731,-1,731,735,736,-1,731,736,732,-1,732,736,737,-1,732,737,597,-1,597,737,596,-1,562,556,733,-1,733,556,738,-1,733,738,734,-1,734,738,739,-1,734,739,735,-1,735,739,740,-1,735,740,736,-1,736,740,741,-1,736,741,737,-1,737,741,742,-1,737,742,596,-1,596,742,595,-1,556,555,738,-1,738,555,743,-1,738,743,739,-1,739,743,744,-1,739,744,740,-1,740,744,745,-1,740,745,741,-1,741,745,746,-1,741,746,742,-1,742,746,747,-1,742,747,595,-1,595,747,594,-1,555,552,743,-1,743,552,748,-1,743,748,744,-1,744,748,749,-1,744,749,745,-1,745,749,750,-1,745,750,746,-1,746,750,751,-1,746,751,747,-1,747,751,752,-1,747,752,594,-1,594,752,544,-1,548,683,551,-1,551,683,753,-1,683,685,753,-1,753,685,690,-1,753,690,754,-1,690,689,754,-1,754,689,694,-1,754,694,755,-1,755,694,693,-1,755,693,756,-1,693,700,756,-1,756,700,699,-1,756,699,757,-1,699,697,757,-1,757,697,696,-1,757,696,540,-1,540,696,717,-1,540,717,538,-1,552,550,758,-1,552,758,748,-1,748,758,759,-1,748,759,749,-1,749,759,760,-1,749,760,750,-1,750,760,761,-1,750,761,751,-1,751,761,762,-1,751,762,752,-1,752,762,542,-1,752,542,544,-1,550,573,758,-1,758,573,763,-1,758,763,759,-1,759,763,764,-1,759,764,760,-1,760,764,765,-1,760,765,761,-1,761,765,766,-1,761,766,762,-1,762,766,767,-1,762,767,542,-1,542,767,613,-1,573,572,763,-1,763,572,768,-1,763,768,764,-1,764,768,769,-1,764,769,765,-1,765,769,770,-1,765,770,766,-1,766,770,771,-1,766,771,767,-1,767,771,772,-1,767,772,613,-1,613,772,612,-1,572,571,768,-1,768,571,773,-1,768,773,769,-1,769,773,774,-1,769,774,770,-1,770,774,775,-1,770,775,771,-1,771,775,776,-1,771,776,772,-1,772,776,777,-1,772,777,612,-1,612,777,611,-1,571,570,773,-1,773,570,778,-1,773,778,774,-1,774,778,779,-1,774,779,775,-1,775,779,780,-1,775,780,776,-1,776,780,781,-1,776,781,777,-1,777,781,782,-1,777,782,611,-1,611,782,610,-1,570,549,778,-1,778,549,783,-1,778,783,779,-1,779,783,784,-1,779,784,780,-1,780,784,785,-1,780,785,781,-1,781,785,786,-1,781,786,782,-1,782,786,787,-1,782,787,610,-1,610,787,609,-1,549,551,783,-1,783,551,753,-1,783,753,784,-1,784,753,754,-1,784,754,785,-1,785,754,755,-1,785,755,786,-1,786,755,756,-1,786,756,787,-1,787,756,757,-1,787,757,609,-1,609,757,540,-1,
        ]
    }
}
Shape{
    appearance Appearance {
        material  Material 	{
            diffuseColor 1.0 1.0 1.0
            specularColor 0.5019607843137255 0.5019607843137255 0.5019607843137255
            ambientIntensity 1.0
            transparency 0.0
            shininess 0.5
        }
    }
    geometry IndexedFaceSet {
        ccw TRUE
        solid FALSE
        coord DEF co Coordinate {
            point [
                0.0238 -0.8091 0.2206, 0.0238 -0.8091 0.2145, 0.0238 -0.8051 0.2206, 0.0238 -0.8051 0.2145, 0.0026 -0.8091 0.2206, 0.0026 -0.8051 0.2206, 0.0026 -0.8091 0.2679, 0.0026 -0.8051 0.2679, -0.0043 -0.8091 0.2679, -0.0043 -0.8051 0.2679, -0.0043 -0.8091 0.2145, -0.0043 -0.8051 0.2145, 0.0512 -0.8091 0.2136, 0.0512 -0.8051 0.2136, 0.0593 -0.8091 0.2144, 0.0559 -0.8051 0.2141, 0.0593 -0.8051 0.2144, 0.065 -0.8051 0.2163, 0.065 -0.8091 0.2163, 0.066 -0.8051 0.2167, 0.066 -0.8091 0.2167, 0.066 -0.8091 0.2233, 0.066 -0.8051 0.2233, 0.0607 -0.8051 0.221, 0.0607 -0.8091 0.221, 0.0547 -0.8051 0.2199, 0.0547 -0.8091 0.2199, 0.0522 -0.8051 0.2198, 0.0522 -0.8091 0.2198, 0.0468 -0.8051 0.2204, 0.0468 -0.8091 0.2204, 0.043 -0.8051 0.2219, 0.043 -0.8091 0.2219, 0.0395 -0.8051 0.2243, 0.0395 -0.8091 0.2243, 0.0385 -0.8051 0.2254, 0.0385 -0.8091 0.2254, 0.0359 -0.8051 0.229, 0.0359 -0.8091 0.229, 0.0341 -0.8051 0.2333, 0.0341 -0.8091 0.2333, 0.0333 -0.8051 0.2386, 0.0333 -0.8091 0.2386, 0.0332 -0.8051 0.2406, 0.0332 -0.8091 0.2406, 0.0341 -0.8051 0.248, 0.0341 -0.8091 0.248, 0.0359 -0.8051 0.2526, 0.0359 -0.8091 0.2526, 0.0388 -0.8051 0.2567, 0.0388 -0.8091 0.2567, 0.0425 -0.8051 0.2597, 0.0425 -0.8091 0.2597, 0.0467 -0.8051 0.2616, 0.0467 -0.8091 0.2616, 0.0513 -0.8051 0.2625, 0.0513 -0.8091 0.2625, 0.0534 -0.8051 0.2626, 0.0534 -0.8091 0.2626, 0.0599 -0.8051 0.2618, 0.0599 -0.8091 0.2618, 0.0654 -0.8051 0.2597, 0.0654 -0.8091 0.2597, 0.066 -0.8051 0.2594, 0.066 -0.8091 0.2594, 0.066 -0.8091 0.2666, 0.066 -0.8051 0.2666, 0.0533 -0.8051 0.2688, 0.0533 -0.8091 0.2688, 0.0534 -0.8091 0.2688, 0.0604 -0.8051 0.2682, 0.0604 -0.8091 0.2682, 0.059 -0.8051 0.2683, 0.0534 -0.8051 0.2688, 0.0496 -0.8051 0.2683, 0.0455 -0.8091 0.2678, 0.0455 -0.8051 0.2678, 0.04 -0.8051 0.2657, 0.04 -0.8091 0.2657, 0.035 -0.8051 0.2622, 0.035 -0.8091 0.2622, 0.0337 -0.8051 0.2609, 0.0337 -0.8091 0.2609, 0.0298 -0.8051 0.2559, 0.0284 -0.8051 0.2525, 0.0273 -0.8091 0.25, 0.0298 -0.8091 0.2559, 0.0273 -0.8051 0.25, 0.0261 -0.8051 0.243, 0.0261 -0.8091 0.243, 0.026 -0.8051 0.2402, 0.026 -0.8091 0.2402, 0.0271 -0.8051 0.2314, 0.0284 -0.8051 0.2281, 0.0293 -0.8091 0.2259, 0.0271 -0.8091 0.2314, 0.0293 -0.8051 0.2259, 0.0328 -0.8051 0.2209, 0.0328 -0.8091 0.2209, 0.048 -0.8091 0.2138, 0.0371 -0.8051 0.2173, 0.0371 -0.8091 0.2173, 0.0422 -0.8051 0.215, 0.0422 -0.8091 0.215, 0.0465 -0.8051 0.2141, 0.048 -0.8051 0.2138, 0.1054 -0.8091 0.2206, 0.1054 -0.8091 0.2145, 0.1054 -0.8051 0.2206, 0.1054 -0.8051 0.2145, 0.0835 -0.8051 0.2206, 0.0835 -0.8091 0.2206, 0.0979 -0.8051 0.2206, 0.0835 -0.8091 0.2386, 0.0835 -0.8051 0.2386, 0.1026 -0.8091 0.2386, 0.0979 -0.8051 0.2386, 0.1026 -0.8051 0.2386, 0.1026 -0.8091 0.2447, 0.1026 -0.8051 0.2447, 0.0835 -0.8051 0.2447, 0.0835 -0.8091 0.2447, 0.0979 -0.8051 0.2447, 0.0835 -0.8091 0.2618, 0.0835 -0.8051 0.2618, 0.1041 -0.8091 0.2618, 0.0979 -0.8051 0.2618, 0.1041 -0.8051 0.2618, 0.1041 -0.8091 0.2679, 0.1041 -0.8051 0.2679, 0.0766 -0.8051 0.2679, 0.0766 -0.8091 0.2679, 0.0979 -0.8051 0.2679, 0.0766 -0.8091 0.2145, 0.0766 -0.8051 0.2145, 0.0979 -0.8051 0.2145, 0.1486 -0.8091 0.2295, 0.1459 -0.8091 0.2262, 0.1508 -0.8091 0.222, 0.145 -0.8091 0.2253, 0.1453 -0.8091 0.218, 0.1414 -0.8091 0.223, 0.1393 -0.8091 0.2156, 0.1369 -0.8091 0.2213, 0.1301 -0.8091 0.2145, 0.1301 -0.8091 0.2206, 0.1154 -0.8091 0.2145, 0.1223 -0.8091 0.2206, 0.1154 -0.8091 0.2679, 0.1223 -0.8091 0.2618, 0.1307 -0.8091 0.2679, 0.1304 -0.8091 0.2618, 0.1388 -0.8091 0.267, 0.1373 -0.8091 0.261, 0.1453 -0.8091 0.2646, 0.1419 -0.8091 0.2593, 0.1508 -0.8091 0.2608, 0.1458 -0.8091 0.2567, 0.1527 -0.8091 0.259, 0.1475 -0.8091 0.255, 0.156 -0.8091 0.2544, 0.1496 -0.8091 0.2519, 0.158 -0.8091 0.2493, 0.151 -0.8091 0.2479, 0.1589 -0.8091 0.2419, 0.1517 -0.8091 0.2417, 0.1587 -0.8091 0.2385, 0.1515 -0.8091 0.2383, 0.1574 -0.8091 0.2323, 0.1504 -0.8091 0.2334, 0.1548 -0.8091 0.2267, 0.1301 -0.8051 0.2145, 0.1154 -0.8051 0.2145, 0.1508 -0.8051 0.222, 0.1393 -0.8051 0.2156, 0.1399 -0.8051 0.2159, 0.1453 -0.8051 0.218, 0.1548 -0.8051 0.2267, 0.1574 -0.8051 0.2323, 0.1587 -0.8051 0.2385, 0.1589 -0.8051 0.2419, 0.158 -0.8051 0.2493, 0.156 -0.8051 0.2544, 0.1527 -0.8051 0.259, 0.1508 -0.8051 0.2608, 0.1307 -0.8051 0.2679, 0.1453 -0.8051 0.2646, 0.1399 -0.8051 0.2666, 0.1388 -0.8051 0.267, 0.1154 -0.8051 0.2679, 0.1304 -0.8051 0.2618, 0.1223 -0.8051 0.2618, 0.1223 -0.8051 0.2206, 0.1301 -0.8051 0.2206, 0.1459 -0.8051 0.2262, 0.145 -0.8051 0.2253, 0.1414 -0.8051 0.223, 0.1369 -0.8051 0.2213, 0.1517 -0.8051 0.2417, 0.1515 -0.8051 0.2383, 0.1504 -0.8051 0.2334, 0.1486 -0.8051 0.2295, 0.1458 -0.8051 0.2567, 0.1475 -0.8051 0.255, 0.1496 -0.8051 0.2519, 0.151 -0.8051 0.2479, 0.1373 -0.8051 0.261, 0.1419 -0.8051 0.2593
            ]
        }
        coordIndex [
            0,1,2,-1,2,1,3,-1,4,0,5,-1,5,0,2,-1,6,4,7,-1,7,4,5,-1,8,6,9,-1,9,6,7,-1,10,8,11,-1,11,8,9,-1,1,10,3,-1,3,10,11,-1,6,8,4,-1,4,8,10,-1,4,10,0,-1,0,10,1,-1,12,13,14,-1,14,13,15,-1,15,16,14,-1,14,16,17,-1,14,17,18,-1,18,17,19,-1,18,19,20,-1,21,20,22,-1,22,20,19,-1,21,22,23,-1,21,23,24,-1,24,23,25,-1,24,25,26,-1,26,25,27,-1,26,27,28,-1,28,27,29,-1,28,29,30,-1,30,29,31,-1,30,31,32,-1,32,31,33,-1,32,33,34,-1,34,33,35,-1,34,35,36,-1,36,35,37,-1,36,37,38,-1,38,37,39,-1,38,39,40,-1,40,39,41,-1,40,41,42,-1,42,41,43,-1,42,43,44,-1,44,43,45,-1,44,45,46,-1,46,45,47,-1,46,47,48,-1,48,47,49,-1,48,49,50,-1,50,49,51,-1,50,51,52,-1,52,51,53,-1,52,53,54,-1,54,53,55,-1,54,55,56,-1,56,55,57,-1,56,57,58,-1,58,57,59,-1,58,59,60,-1,60,59,61,-1,60,61,62,-1,62,61,63,-1,62,63,64,-1,65,64,66,-1,66,64,63,-1,67,68,69,-1,65,66,70,-1,65,70,71,-1,71,70,72,-1,71,72,69,-1,69,72,73,-1,69,73,67,-1,68,67,74,-1,68,74,75,-1,74,76,75,-1,75,76,77,-1,75,77,78,-1,78,77,79,-1,78,79,80,-1,80,79,81,-1,80,81,82,-1,82,81,83,-1,84,85,83,-1,83,85,86,-1,83,86,82,-1,84,87,85,-1,85,87,88,-1,85,88,89,-1,89,88,90,-1,89,90,91,-1,91,90,92,-1,93,94,92,-1,92,94,95,-1,92,95,91,-1,93,96,94,-1,94,96,97,-1,94,97,98,-1,13,12,99,-1,98,97,100,-1,98,100,101,-1,101,100,102,-1,101,102,103,-1,103,102,104,-1,103,104,99,-1,99,104,105,-1,99,105,13,-1,62,64,65,-1,52,80,50,-1,50,80,82,-1,50,82,48,-1,48,82,86,-1,48,86,46,-1,62,65,60,-1,60,65,71,-1,60,71,58,-1,58,71,69,-1,58,69,56,-1,56,69,68,-1,56,68,54,-1,54,68,75,-1,54,75,52,-1,52,75,78,-1,52,78,80,-1,91,44,89,-1,89,44,46,-1,89,46,85,-1,85,46,86,-1,20,21,18,-1,18,21,24,-1,18,24,14,-1,14,24,26,-1,14,26,12,-1,12,26,28,-1,12,28,99,-1,99,28,30,-1,99,30,103,-1,103,30,32,-1,103,32,101,-1,101,32,34,-1,101,34,98,-1,98,34,36,-1,98,36,94,-1,94,36,38,-1,94,38,95,-1,95,38,40,-1,95,40,91,-1,91,40,42,-1,91,42,44,-1,106,107,108,-1,108,107,109,-1,110,111,112,-1,112,111,106,-1,112,106,108,-1,113,111,114,-1,114,111,110,-1,113,114,115,-1,115,114,116,-1,115,116,117,-1,118,115,119,-1,119,115,117,-1,120,121,122,-1,122,121,118,-1,122,118,119,-1,123,121,124,-1,124,121,120,-1,123,124,125,-1,125,124,126,-1,125,126,127,-1,128,125,129,-1,129,125,127,-1,130,131,132,-1,132,131,128,-1,132,128,129,-1,133,131,134,-1,134,131,130,-1,133,134,107,-1,107,134,135,-1,107,135,109,-1,133,107,106,-1,106,111,133,-1,133,111,113,-1,133,113,131,-1,125,128,123,-1,123,128,131,-1,123,131,121,-1,121,131,113,-1,121,113,118,-1,118,113,115,-1,136,137,138,-1,138,137,139,-1,138,139,140,-1,140,139,141,-1,140,141,142,-1,142,141,143,-1,142,143,144,-1,144,143,145,-1,144,145,146,-1,146,145,147,-1,146,147,148,-1,148,147,149,-1,148,149,150,-1,150,149,151,-1,150,151,152,-1,152,151,153,-1,152,153,154,-1,154,153,155,-1,154,155,156,-1,156,155,157,-1,156,157,158,-1,158,157,159,-1,158,159,160,-1,160,159,161,-1,160,161,162,-1,162,161,163,-1,162,163,164,-1,164,163,165,-1,164,165,166,-1,166,165,167,-1,166,167,168,-1,168,167,169,-1,168,169,170,-1,170,169,136,-1,170,136,138,-1,144,146,171,-1,171,146,172,-1,173,138,140,-1,144,171,174,-1,144,174,142,-1,142,174,175,-1,142,175,140,-1,140,175,176,-1,140,176,173,-1,138,173,177,-1,138,177,170,-1,170,177,178,-1,170,178,168,-1,168,178,179,-1,168,179,166,-1,166,179,180,-1,166,180,164,-1,164,180,181,-1,164,181,162,-1,162,181,182,-1,162,182,160,-1,160,182,183,-1,160,183,158,-1,158,183,184,-1,158,184,156,-1,185,150,152,-1,156,184,186,-1,156,186,154,-1,154,186,187,-1,154,187,152,-1,152,187,188,-1,152,188,185,-1,148,150,189,-1,189,150,185,-1,146,148,172,-1,172,148,189,-1,151,149,190,-1,190,149,191,-1,149,147,191,-1,191,147,192,-1,147,145,192,-1,192,145,193,-1,137,194,195,-1,137,195,139,-1,139,195,196,-1,139,196,141,-1,141,196,197,-1,141,197,143,-1,143,197,193,-1,143,193,145,-1,165,198,199,-1,165,199,167,-1,167,199,200,-1,167,200,169,-1,169,200,201,-1,169,201,136,-1,136,201,194,-1,136,194,137,-1,157,202,203,-1,157,203,159,-1,159,203,204,-1,159,204,161,-1,161,204,205,-1,161,205,163,-1,163,205,198,-1,163,198,165,-1,151,190,206,-1,151,206,153,-1,153,206,207,-1,153,207,155,-1,155,207,202,-1,155,202,157,-1,
        ]
    }
}
Shape{
    appearance Appearance {
        material  Material 	{
            diffuseColor 0.25098039215686274 0.25098039215686274 0.25098039215686274
            specularColor 0.12549019607843137 0.12549019607843137 0.12549019607843137
            ambientIntensity 0.251
            transparency 0.0
            shininess 0.5
        }
    }
    geometry IndexedFaceSet {
        ccw TRUE
        solid FALSE
        coord DEF co Coordinate {
            point [
                0.1223 -0.8051 0.2618, 0.1223 -0.8051 0.2206, 0.1304 -0.8051 0.2618, 0.1301 -0.8051 0.2206, 0.1369 -0.8051 0.2213, 0.1414 -0.8051 0.223, 0.145 -0.8051 0.2253, 0.1459 -0.8051 0.2262, 0.1486 -0.8051 0.2295, 0.1504 -0.8051 0.2334, 0.1515 -0.8051 0.2383, 0.1517 -0.8051 0.2417, 0.151 -0.8051 0.2479, 0.1496 -0.8051 0.2519, 0.1475 -0.8051 0.255, 0.1458 -0.8051 0.2567, 0.1373 -0.8051 0.261, 0.1419 -0.8051 0.2593
            ]
        }
        coordIndex [
            0,1,2,-1,2,1,3,-1,2,3,4,-1,4,5,2,-1,2,5,6,-1,2,6,7,-1,7,8,2,-1,2,8,9,-1,2,9,10,-1,10,11,2,-1,2,11,12,-1,2,12,13,-1,13,14,2,-1,2,14,15,-1,2,15,16,-1,16,15,17,-1,
        ]
    }
}
Shape{
    appearance Appearance {
        material  Material 	{
            diffuseColor 1.0 1.0 1.0
            specularColor 0.5019607843137255 0.5019607843137255 0.5019607843137255
            ambientIntensity 1.0
            transparency 0.0
            shininess 0.5
        }
    }
    geometry IndexedFaceSet {
        ccw TRUE
        solid FALSE
        coord DEF co Coordinate {
            point [
                0.1768 -0.8091 0.2351, 0.1746 -0.8091 0.2291, 0.1947 -0.8091 0.2351, 0.1968 -0.8091 0.2291, 0.1848 -0.8091 0.2573, 0.1822 -0.8091 0.2679, 0.1619 -0.8091 0.2145, 0.1695 -0.8091 0.2145, 0.1852 -0.8091 0.2589, 0.1856 -0.8091 0.2611, 0.1896 -0.8091 0.2679, 0.1858 -0.8091 0.2611, 0.1862 -0.8091 0.2588, 0.1866 -0.8091 0.2573, 0.2099 -0.8091 0.2145, 0.2023 -0.8091 0.2145, 0.1896 -0.8051 0.2679, 0.2099 -0.8051 0.2145, 0.1822 -0.8051 0.2679, 0.1619 -0.8051 0.2145, 0.1772 -0.8051 0.2549, 0.1695 -0.8051 0.2145, 0.1746 -0.8051 0.2291, 0.1968 -0.8051 0.2291, 0.1772 -0.8051 0.2291, 0.2023 -0.8051 0.2145, 0.1768 -0.8051 0.2351, 0.1947 -0.8051 0.2351, 0.1866 -0.8051 0.2573, 0.1858 -0.8051 0.2611, 0.1862 -0.8051 0.2588, 0.1856 -0.8051 0.2611, 0.1848 -0.8051 0.2573, 0.1852 -0.8051 0.2589
            ]
        }
        coordIndex [
            0,1,2,-1,2,1,3,-1,4,5,0,-1,0,5,6,-1,0,6,1,-1,1,6,7,-1,4,8,5,-1,5,8,9,-1,5,9,10,-1,10,9,11,-1,10,11,12,-1,12,13,10,-1,10,13,2,-1,10,2,14,-1,14,2,3,-1,14,3,15,-1,10,14,16,-1,16,14,17,-1,5,10,18,-1,18,10,16,-1,19,6,20,-1,20,6,5,-1,20,5,18,-1,7,6,21,-1,21,6,19,-1,1,7,22,-1,22,7,21,-1,23,3,24,-1,24,3,1,-1,24,1,22,-1,15,3,25,-1,25,3,23,-1,14,15,17,-1,17,15,25,-1,0,2,26,-1,26,2,27,-1,2,13,27,-1,27,13,28,-1,11,29,30,-1,11,30,12,-1,12,30,28,-1,12,28,13,-1,11,9,29,-1,29,9,31,-1,4,32,33,-1,4,33,8,-1,8,33,31,-1,8,31,9,-1,4,0,32,-1,32,0,26,-1,
        ]
    }
}
Shape{
    appearance Appearance {
        material  Material 	{
            diffuseColor 0.25098039215686274 0.25098039215686274 0.25098039215686274
            specularColor 0.12549019607843137 0.12549019607843137 0.12549019607843137
            ambientIntensity 0.251
            transparency 0.0
            shininess 0.5
        }
    }
    geometry IndexedFaceSet {
        ccw TRUE
        solid FALSE
        coord DEF co Coordinate {
            point [
                0.1858 -0.8051 0.2611, 0.1856 -0.8051 0.2611, 0.1862 -0.8051 0.2588, 0.1852 -0.8051 0.2589, 0.1866 -0.8051 0.2573, 0.1848 -0.8051 0.2573, 0.1947 -0.8051 0.2351, 0.1768 -0.8051 0.2351
            ]
        }
        coordIndex [
            0,1,2,-1,2,1,3,-1,2,3,4,-1,4,3,5,-1,4,5,6,-1,6,5,7,-1,
        ]
    }
}
Shape{
    appearance Appearance {
        material  Material 	{
            diffuseColor 1.0 1.0 1.0
            specularColor 0.5019607843137255 0.5019607843137255 0.5019607843137255
            ambientIntensity 1.0
            transparency 0.0
            shininess 0.5
        }
    }
    geometry IndexedFaceSet {
        ccw TRUE
        solid FALSE
        coord DEF co Coordinate {
            point [
                0.0244 -0.8091 0.1359, 0.0244 -0.8091 0.1298, 0.0244 -0.8051 0.1359, 0.0244 -0.8051 0.1298, 0.0026 -0.8091 0.1359, 0.0026 -0.8051 0.1359, 0.0026 -0.8091 0.1539, 0.0026 -0.8051 0.1539, 0.0216 -0.8091 0.1539, 0.0216 -0.8051 0.1539, 0.0216 -0.8091 0.16, 0.0216 -0.8051 0.16, 0.0026 -0.8091 0.16, 0.0026 -0.8051 0.16, 0.0026 -0.8091 0.1771, 0.0026 -0.8051 0.1771, 0.0232 -0.8091 0.1771, 0.0232 -0.8051 0.1771, 0.0232 -0.8091 0.1832, 0.0232 -0.8051 0.1832, -0.0043 -0.8091 0.1832, -0.0043 -0.8051 0.1832, -0.0043 -0.8091 0.1298, -0.0043 -0.8051 0.1298, 0.0614 -0.8091 0.1544, 0.0547 -0.8091 0.149, 0.0547 -0.8091 0.1453, 0.0545 -0.8091 0.1357, 0.0547 -0.8091 0.1357, 0.0543 -0.8091 0.1421, 0.0547 -0.8091 0.1298, 0.0614 -0.8091 0.1298, 0.0376 -0.8091 0.1416, 0.0379 -0.8091 0.1432, 0.0321 -0.8091 0.1461, 0.0534 -0.8091 0.1397, 0.0518 -0.8091 0.1375, 0.0535 -0.8091 0.1341, 0.051 -0.8091 0.1367, 0.0514 -0.8091 0.1319, 0.0491 -0.8091 0.1354, 0.0489 -0.8091 0.1303, 0.0471 -0.8091 0.1347, 0.0462 -0.8091 0.1293, 0.0446 -0.8091 0.1344, 0.0429 -0.8091 0.1289, 0.0423 -0.8091 0.1347, 0.0388 -0.8091 0.1294, 0.0408 -0.8091 0.1352, 0.0363 -0.8091 0.1304, 0.0395 -0.8091 0.1361, 0.034 -0.8091 0.1319, 0.0389 -0.8091 0.1367, 0.0335 -0.8091 0.148, 0.0385 -0.8091 0.1444, 0.0355 -0.8091 0.1498, 0.0393 -0.8091 0.1454, 0.0383 -0.8091 0.1512, 0.0402 -0.8091 0.1461, 0.0417 -0.8091 0.1468, 0.0434 -0.8091 0.1525, 0.0458 -0.8091 0.1478, 0.0547 -0.8091 0.1541, 0.0312 -0.8091 0.1437, 0.0308 -0.8091 0.1408, 0.0375 -0.8091 0.1406, 0.0308 -0.8091 0.14, 0.0377 -0.8091 0.1391, 0.0311 -0.8091 0.1369, 0.0382 -0.8091 0.1378, 0.0319 -0.8091 0.1347, 0.0334 -0.8091 0.1326, 0.0345 -0.8091 0.1653, 0.0345 -0.8091 0.1588, 0.0358 -0.8091 0.1661, 0.0391 -0.8091 0.1617, 0.0408 -0.8091 0.168, 0.0433 -0.8091 0.1631, 0.0476 -0.8091 0.1688, 0.047 -0.8091 0.1634, 0.0516 -0.8091 0.1685, 0.0493 -0.8091 0.1632, 0.0544 -0.8091 0.1676, 0.0508 -0.8091 0.1626, 0.0566 -0.8091 0.1664, 0.052 -0.8091 0.1618, 0.0584 -0.8091 0.1647, 0.053 -0.8091 0.1608, 0.0598 -0.8091 0.1625, 0.0538 -0.8091 0.1594, 0.0609 -0.8091 0.1595, 0.0545 -0.8091 0.157, 0.0476 -0.8051 0.1688, 0.0408 -0.8051 0.168, 0.0358 -0.8051 0.1661, 0.0345 -0.8051 0.1653, 0.0345 -0.8051 0.1588, 0.0391 -0.8051 0.1617, 0.0433 -0.8051 0.1631, 0.047 -0.8051 0.1634, 0.0493 -0.8051 0.1632, 0.0508 -0.8051 0.1626, 0.052 -0.8051 0.1618, 0.053 -0.8051 0.1608, 0.0538 -0.8051 0.1594, 0.0545 -0.8051 0.157, 0.0547 -0.8051 0.1541, 0.0434 -0.8051 0.1525, 0.0383 -0.8051 0.1512, 0.0355 -0.8051 0.1498, 0.0335 -0.8051 0.148, 0.0321 -0.8051 0.1461, 0.0312 -0.8051 0.1437, 0.0308 -0.8051 0.1408, 0.0308 -0.8051 0.14, 0.0311 -0.8051 0.1369, 0.0319 -0.8051 0.1347, 0.0334 -0.8051 0.1326, 0.034 -0.8051 0.1319, 0.0429 -0.8051 0.1289, 0.039 -0.8051 0.1294, 0.0388 -0.8051 0.1294, 0.0363 -0.8051 0.1304, 0.0462 -0.8051 0.1293, 0.0465 -0.8051 0.1294, 0.0489 -0.8051 0.1303, 0.0514 -0.8051 0.1319, 0.0535 -0.8051 0.1341, 0.0545 -0.8051 0.1357, 0.0547 -0.8051 0.1357, 0.0547 -0.8051 0.1298, 0.0614 -0.8051 0.1298, 0.0614 -0.8051 0.1544, 0.0609 -0.8051 0.1595, 0.0598 -0.8051 0.1625, 0.0584 -0.8051 0.1647, 0.0566 -0.8051 0.1664, 0.0544 -0.8051 0.1676, 0.0516 -0.8051 0.1685, 0.0393 -0.8051 0.1454, 0.0402 -0.8051 0.1461, 0.0417 -0.8051 0.1468, 0.0458 -0.8051 0.1478, 0.0375 -0.8051 0.1406, 0.0376 -0.8051 0.1416, 0.0379 -0.8051 0.1432, 0.0385 -0.8051 0.1444, 0.0395 -0.8051 0.1361, 0.0389 -0.8051 0.1367, 0.0382 -0.8051 0.1378, 0.0377 -0.8051 0.1391, 0.0446 -0.8051 0.1344, 0.0423 -0.8051 0.1347, 0.0408 -0.8051 0.1352, 0.0518 -0.8051 0.1375, 0.051 -0.8051 0.1367, 0.0491 -0.8051 0.1354, 0.0471 -0.8051 0.1347, 0.0547 -0.8051 0.1453, 0.0543 -0.8051 0.1421, 0.0534 -0.8051 0.1397, 0.0547 -0.8051 0.149
            ]
        }
        coordIndex [
            0,1,2,-1,2,1,3,-1,4,0,5,-1,5,0,2,-1,6,4,7,-1,7,4,5,-1,8,6,9,-1,9,6,7,-1,10,8,11,-1,11,8,9,-1,12,10,13,-1,13,10,11,-1,14,12,15,-1,15,12,13,-1,16,14,17,-1,17,14,15,-1,18,16,19,-1,19,16,17,-1,20,18,21,-1,21,18,19,-1,22,20,23,-1,23,20,21,-1,1,22,3,-1,3,22,23,-1,22,1,0,-1,0,4,22,-1,22,4,6,-1,22,6,20,-1,16,18,14,-1,14,18,20,-1,14,20,12,-1,12,20,6,-1,12,6,10,-1,10,6,8,-1,24,25,26,-1,27,28,29,-1,30,31,28,-1,28,31,24,-1,28,24,29,-1,29,24,26,-1,32,33,34,-1,29,35,27,-1,27,35,36,-1,27,36,37,-1,37,36,38,-1,37,38,39,-1,39,38,40,-1,39,40,41,-1,41,40,42,-1,41,42,43,-1,43,42,44,-1,43,44,45,-1,45,44,46,-1,45,46,47,-1,47,46,48,-1,47,48,49,-1,49,48,50,-1,49,50,51,-1,51,50,52,-1,34,33,53,-1,53,33,54,-1,53,54,55,-1,55,54,56,-1,55,56,57,-1,56,58,57,-1,57,58,59,-1,57,59,60,-1,60,59,61,-1,60,61,62,-1,34,63,32,-1,32,63,64,-1,32,64,65,-1,65,64,66,-1,65,66,67,-1,67,66,68,-1,67,68,69,-1,69,68,70,-1,69,70,52,-1,52,70,71,-1,52,71,51,-1,72,73,74,-1,74,73,75,-1,74,75,76,-1,76,75,77,-1,76,77,78,-1,78,77,79,-1,78,79,80,-1,80,79,81,-1,80,81,82,-1,82,81,83,-1,82,83,84,-1,84,83,85,-1,84,85,86,-1,86,85,87,-1,86,87,88,-1,88,87,89,-1,88,89,90,-1,90,89,91,-1,90,91,24,-1,24,91,62,-1,24,62,25,-1,25,62,61,-1,78,92,93,-1,78,93,76,-1,76,93,94,-1,76,94,74,-1,74,94,95,-1,74,95,72,-1,73,72,96,-1,96,72,95,-1,73,96,97,-1,73,97,75,-1,75,97,98,-1,75,98,77,-1,77,98,99,-1,77,99,79,-1,79,99,100,-1,79,100,81,-1,81,100,101,-1,81,101,83,-1,83,101,102,-1,83,102,85,-1,85,102,103,-1,85,103,87,-1,87,103,104,-1,87,104,89,-1,89,104,105,-1,89,105,91,-1,91,105,106,-1,91,106,62,-1,60,62,107,-1,107,62,106,-1,60,107,108,-1,60,108,57,-1,57,108,109,-1,57,109,55,-1,55,109,110,-1,55,110,53,-1,53,110,111,-1,53,111,34,-1,34,111,112,-1,34,112,63,-1,63,112,113,-1,63,113,64,-1,64,113,114,-1,64,114,66,-1,66,114,115,-1,66,115,68,-1,68,115,116,-1,68,116,70,-1,70,116,117,-1,70,117,71,-1,71,117,118,-1,71,118,51,-1,119,45,120,-1,120,45,47,-1,120,47,121,-1,121,47,49,-1,121,49,122,-1,122,49,51,-1,122,51,118,-1,45,119,123,-1,45,123,43,-1,43,123,124,-1,43,124,41,-1,124,125,41,-1,41,125,126,-1,41,126,39,-1,39,126,127,-1,39,127,37,-1,37,127,128,-1,37,128,27,-1,28,27,129,-1,129,27,128,-1,30,28,130,-1,130,28,129,-1,31,30,131,-1,131,30,130,-1,24,31,132,-1,132,31,131,-1,24,132,133,-1,24,133,90,-1,90,133,134,-1,90,134,88,-1,88,134,135,-1,88,135,86,-1,86,135,136,-1,86,136,84,-1,84,136,137,-1,84,137,82,-1,82,137,138,-1,82,138,80,-1,80,138,92,-1,80,92,78,-1,56,139,140,-1,56,140,58,-1,58,140,141,-1,58,141,59,-1,59,141,142,-1,59,142,61,-1,65,143,144,-1,65,144,32,-1,32,144,145,-1,32,145,33,-1,33,145,146,-1,33,146,54,-1,54,146,139,-1,54,139,56,-1,50,147,148,-1,50,148,52,-1,52,148,149,-1,52,149,69,-1,69,149,150,-1,69,150,67,-1,67,150,143,-1,67,143,65,-1,44,151,152,-1,44,152,46,-1,46,152,153,-1,46,153,48,-1,48,153,147,-1,48,147,50,-1,36,154,155,-1,36,155,38,-1,38,155,156,-1,38,156,40,-1,40,156,157,-1,40,157,42,-1,42,157,151,-1,42,151,44,-1,26,158,159,-1,26,159,29,-1,29,159,160,-1,29,160,35,-1,35,160,154,-1,35,154,36,-1,26,25,158,-1,158,25,161,-1,25,61,161,-1,161,61,142,-1,
        ]
    }
}
Shape{
    appearance Appearance {
        material  Material 	{
            diffuseColor 0.25098039215686274 0.25098039215686274 0.25098039215686274
            specularColor 0.12549019607843137 0.12549019607843137 0.12549019607843137
            ambientIntensity 0.251
            transparency 0.0
            shininess 0.5
        }
    }
    geometry IndexedFaceSet {
        ccw TRUE
        solid FALSE
        coord DEF co Coordinate {
            point [
                0.0547 -0.8051 0.1453, 0.0547 -0.8051 0.149, 0.0458 -0.8051 0.1478, 0.051 -0.8051 0.1367, 0.0518 -0.8051 0.1375, 0.0417 -0.8051 0.1468, 0.0402 -0.8051 0.1461, 0.0471 -0.8051 0.1347, 0.0491 -0.8051 0.1354, 0.0534 -0.8051 0.1397, 0.0543 -0.8051 0.1421, 0.0393 -0.8051 0.1454, 0.0385 -0.8051 0.1444, 0.0379 -0.8051 0.1432, 0.0376 -0.8051 0.1416, 0.0375 -0.8051 0.1406, 0.0377 -0.8051 0.1391, 0.0408 -0.8051 0.1352, 0.0423 -0.8051 0.1347, 0.0395 -0.8051 0.1361, 0.0446 -0.8051 0.1344, 0.0382 -0.8051 0.1378, 0.0389 -0.8051 0.1367
            ]
        }
        coordIndex [
            0,1,2,-1,3,4,2,-1,5,6,7,-1,5,7,2,-1,2,7,8,-1,2,8,3,-1,4,9,2,-1,2,9,10,-1,2,10,0,-1,6,11,7,-1,7,11,12,-1,7,12,13,-1,13,14,7,-1,7,14,15,-1,7,15,16,-1,17,18,19,-1,19,18,20,-1,19,20,7,-1,16,21,7,-1,7,21,22,-1,7,22,19,-1,
        ]
    }
}
Shape{
    appearance Appearance {
        material  Material 	{
            diffuseColor 1.0 1.0 1.0
            specularColor 0.5019607843137255 0.5019607843137255 0.5019607843137255
            ambientIntensity 1.0
            transparency 0.0
            shininess 0.5
        }
    }
    geometry IndexedFaceSet {
        ccw TRUE
        solid FALSE
        coord DEF co Coordinate {
            point [
                0.0705 -0.8051 0.1381, 0.0705 -0.8091 0.1381, 0.0729 -0.8091 0.1366, 0.0815 -0.8091 0.1344, 0.0815 -0.8051 0.1344, 0.077 -0.8051 0.1349, 0.077 -0.8091 0.1349, 0.0736 -0.8051 0.1363, 0.0729 -0.8051 0.1366, 0.0705 -0.8091 0.1312, 0.0705 -0.8051 0.1312, 0.0736 -0.8051 0.1301, 0.0751 -0.8091 0.1295, 0.0808 -0.8051 0.1289, 0.0808 -0.8091 0.1289, 0.0765 -0.8051 0.1294, 0.0751 -0.8051 0.1295, 0.0869 -0.8091 0.1297, 0.0846 -0.8051 0.1294, 0.0869 -0.8051 0.1297, 0.0904 -0.8051 0.131, 0.0904 -0.8091 0.131, 0.0919 -0.8051 0.132, 0.0919 -0.8091 0.132, 0.094 -0.8051 0.1338, 0.094 -0.8091 0.1338, 0.0952 -0.8051 0.1356, 0.0952 -0.8091 0.1356, 0.096 -0.8051 0.1378, 0.096 -0.8091 0.1378, 0.0962 -0.8051 0.1402, 0.0962 -0.8091 0.1402, 0.0959 -0.8051 0.1427, 0.0959 -0.8091 0.1427, 0.0952 -0.8051 0.1447, 0.0952 -0.8091 0.1447, 0.094 -0.8051 0.1465, 0.094 -0.8091 0.1465, 0.0924 -0.8051 0.1479, 0.0924 -0.8091 0.1479, 0.0879 -0.8051 0.1504, 0.0879 -0.8091 0.1504, 0.0853 -0.8051 0.1515, 0.0853 -0.8091 0.1515, 0.0812 -0.8051 0.1533, 0.0812 -0.8091 0.1533, 0.0789 -0.8051 0.1547, 0.0789 -0.8091 0.1547, 0.0782 -0.8051 0.1554, 0.0782 -0.8091 0.1554, 0.0777 -0.8051 0.1563, 0.0777 -0.8091 0.1563, 0.0775 -0.8051 0.1574, 0.0775 -0.8091 0.1574, 0.0774 -0.8051 0.1583, 0.0774 -0.8091 0.1583, 0.0775 -0.8051 0.1593, 0.0775 -0.8091 0.1593, 0.0778 -0.8051 0.1602, 0.0778 -0.8091 0.1602, 0.0784 -0.8051 0.1611, 0.0784 -0.8091 0.1611, 0.0794 -0.8051 0.162, 0.0794 -0.8091 0.162, 0.0809 -0.8051 0.1628, 0.0809 -0.8091 0.1628, 0.0827 -0.8051 0.1633, 0.0827 -0.8091 0.1633, 0.0847 -0.8051 0.1634, 0.0847 -0.8091 0.1634, 0.0894 -0.8051 0.1628, 0.0894 -0.8091 0.1628, 0.0931 -0.8051 0.1614, 0.0931 -0.8091 0.1614, 0.0944 -0.8051 0.1606, 0.0944 -0.8091 0.1606, 0.0944 -0.8091 0.1671, 0.0944 -0.8051 0.1671, 0.09 -0.8051 0.1684, 0.09 -0.8091 0.1684, 0.0853 -0.8051 0.1688, 0.0853 -0.8091 0.1688, 0.08 -0.8051 0.1682, 0.08 -0.8091 0.1682, 0.0764 -0.8051 0.1668, 0.0764 -0.8091 0.1668, 0.0748 -0.8051 0.1658, 0.0748 -0.8091 0.1658, 0.0736 -0.8051 0.1647, 0.0726 -0.8091 0.1638, 0.0726 -0.8051 0.1638, 0.0715 -0.8051 0.162, 0.0715 -0.8091 0.162, 0.0707 -0.8051 0.1599, 0.0707 -0.8091 0.1599, 0.0705 -0.8051 0.1577, 0.0705 -0.8091 0.1577, 0.0709 -0.8051 0.1548, 0.0709 -0.8091 0.1548, 0.0716 -0.8051 0.1528, 0.0716 -0.8091 0.1528, 0.0724 -0.8051 0.1516, 0.0724 -0.8091 0.1516, 0.0806 -0.8051 0.1466, 0.0806 -0.8091 0.1466, 0.0766 -0.8091 0.1484, 0.0735 -0.8051 0.1505, 0.0735 -0.8091 0.1505, 0.0736 -0.8051 0.1505, 0.0766 -0.8051 0.1484, 0.085 -0.8051 0.1448, 0.085 -0.8091 0.1448, 0.0876 -0.8051 0.1432, 0.0876 -0.8091 0.1432, 0.0885 -0.8051 0.1423, 0.0885 -0.8091 0.1423, 0.089 -0.8051 0.1414, 0.089 -0.8091 0.1414, 0.0893 -0.8051 0.1404, 0.0893 -0.8091 0.1404, 0.0893 -0.8051 0.1396, 0.0893 -0.8091 0.1396, 0.0892 -0.8051 0.1383, 0.0892 -0.8091 0.1383, 0.0889 -0.8051 0.1373, 0.0889 -0.8091 0.1373, 0.0883 -0.8051 0.1365, 0.0883 -0.8091 0.1365, 0.0875 -0.8051 0.1358, 0.0875 -0.8091 0.1358, 0.0869 -0.8051 0.1354, 0.0869 -0.8091 0.1354, 0.0852 -0.8051 0.1348, 0.0852 -0.8091 0.1348, 0.0818 -0.8051 0.1344, 0.0818 -0.8091 0.1344, 0.1294 -0.8091 0.168, 0.1363 -0.8091 0.168, 0.1294 -0.8051 0.168, 0.1363 -0.8051 0.168, 0.1189 -0.8091 0.1393, 0.1189 -0.8051 0.1393, 0.1184 -0.8051 0.1375, 0.1184 -0.8091 0.1375, 0.1181 -0.8051 0.1362, 0.1181 -0.8091 0.1362, 0.1179 -0.8091 0.1362, 0.1179 -0.8051 0.1362, 0.1171 -0.8091 0.1393, 0.1171 -0.8051 0.1393, 0.1072 -0.8091 0.168, 0.1104 -0.8051 0.1587, 0.1072 -0.8051 0.168, 0.0997 -0.8091 0.168, 0.0997 -0.8051 0.168, 0.1146 -0.8091 0.1299, 0.1104 -0.8051 0.1407, 0.1146 -0.8051 0.1299, 0.1117 -0.8051 0.123, 0.1117 -0.8091 0.123, 0.1144 -0.8051 0.1294, 0.1104 -0.8051 0.1207, 0.1102 -0.8091 0.1203, 0.1102 -0.8051 0.1203, 0.1089 -0.8051 0.1189, 0.1089 -0.8091 0.1189, 0.1076 -0.8051 0.1182, 0.1076 -0.8091 0.1182, 0.1061 -0.8051 0.1177, 0.1061 -0.8091 0.1177, 0.1049 -0.8051 0.1176, 0.1049 -0.8091 0.1176, 0.1024 -0.8051 0.1179, 0.1024 -0.8091 0.1179, 0.1011 -0.8051 0.1184, 0.1011 -0.8091 0.1184, 0.1011 -0.8091 0.1124, 0.1011 -0.8051 0.1124, 0.1039 -0.8051 0.1119, 0.1039 -0.8091 0.1119, 0.1054 -0.8051 0.1119, 0.1054 -0.8091 0.1119, 0.1082 -0.8051 0.1122, 0.1082 -0.8091 0.1122, 0.1104 -0.8051 0.1131, 0.1109 -0.8091 0.1133, 0.1109 -0.8051 0.1133, 0.1132 -0.8051 0.1149, 0.1132 -0.8091 0.1149, 0.1159 -0.8051 0.1181, 0.1159 -0.8091 0.1181, 0.119 -0.8051 0.1241, 0.119 -0.8091 0.1241, 0.1211 -0.8051 0.1294, 0.1722 -0.8091 0.1359, 0.1722 -0.8091 0.1298, 0.1722 -0.8051 0.1359, 0.1722 -0.8051 0.1298, 0.1504 -0.8091 0.1359, 0.1604 -0.8051 0.1359, 0.1504 -0.8051 0.1359, 0.1504 -0.8091 0.1539, 0.1504 -0.8051 0.1539, 0.1695 -0.8091 0.1539, 0.1604 -0.8051 0.1539, 0.1695 -0.8051 0.1539, 0.1695 -0.8091 0.16, 0.1695 -0.8051 0.16, 0.1504 -0.8051 0.16, 0.1504 -0.8091 0.16, 0.1604 -0.8051 0.16, 0.1504 -0.8091 0.1771, 0.1504 -0.8051 0.1771, 0.171 -0.8051 0.1771, 0.171 -0.8091 0.1771, 0.1604 -0.8051 0.1771, 0.171 -0.8091 0.1832, 0.171 -0.8051 0.1832, 0.1435 -0.8051 0.1832, 0.1435 -0.8091 0.1832, 0.1604 -0.8051 0.1832, 0.1435 -0.8091 0.1298, 0.1435 -0.8051 0.1298, 0.1604 -0.8051 0.1298, 0.2155 -0.8091 0.1448, 0.2128 -0.8091 0.1415, 0.2177 -0.8091 0.1373, 0.2118 -0.8091 0.1406, 0.2122 -0.8091 0.1333, 0.2083 -0.8091 0.1383, 0.2061 -0.8091 0.131, 0.2037 -0.8091 0.1367, 0.197 -0.8091 0.1298, 0.1969 -0.8091 0.1359, 0.1823 -0.8091 0.1298, 0.1892 -0.8091 0.1359, 0.1823 -0.8091 0.1832, 0.1892 -0.8091 0.1771, 0.1975 -0.8091 0.1832, 0.1972 -0.8091 0.1771, 0.2057 -0.8091 0.1823, 0.2041 -0.8091 0.1763, 0.2121 -0.8091 0.18, 0.2087 -0.8091 0.1746, 0.2177 -0.8091 0.1761, 0.2126 -0.8091 0.1721, 0.2195 -0.8091 0.1743, 0.2144 -0.8091 0.1703, 0.2229 -0.8091 0.1697, 0.2164 -0.8091 0.1672, 0.2248 -0.8091 0.1646, 0.2178 -0.8091 0.1632, 0.2257 -0.8091 0.1572, 0.2185 -0.8091 0.157, 0.2256 -0.8091 0.1538, 0.2183 -0.8091 0.1536, 0.2243 -0.8091 0.1476, 0.2173 -0.8091 0.1488, 0.2217 -0.8091 0.142, 0.197 -0.8051 0.1298, 0.1823 -0.8051 0.1298, 0.2061 -0.8051 0.131, 0.2122 -0.8051 0.1333, 0.2177 -0.8051 0.1373, 0.2217 -0.8051 0.142, 0.2243 -0.8051 0.1476, 0.2256 -0.8051 0.1538, 0.2257 -0.8051 0.1572, 0.2248 -0.8051 0.1646, 0.2229 -0.8051 0.1697, 0.2195 -0.8051 0.1743, 0.2177 -0.8051 0.1761, 0.2121 -0.8051 0.18, 0.2057 -0.8051 0.1823, 0.1975 -0.8051 0.1832, 0.1823 -0.8051 0.1832, 0.1972 -0.8051 0.1771, 0.1892 -0.8051 0.1771, 0.1892 -0.8051 0.1359, 0.1969 -0.8051 0.1359, 0.2128 -0.8051 0.1415, 0.2118 -0.8051 0.1406, 0.2083 -0.8051 0.1383, 0.2037 -0.8051 0.1367, 0.2185 -0.8051 0.157, 0.2183 -0.8051 0.1536, 0.2173 -0.8051 0.1488, 0.2155 -0.8051 0.1448, 0.2126 -0.8051 0.1721, 0.2144 -0.8051 0.1703, 0.2164 -0.8051 0.1672, 0.2178 -0.8051 0.1632, 0.2041 -0.8051 0.1763, 0.2087 -0.8051 0.1746
            ]
        }
        coordIndex [
            0,1,2,-1,3,4,5,-1,3,5,6,-1,6,5,7,-1,6,7,2,-1,2,7,8,-1,2,8,0,-1,9,1,10,-1,10,1,0,-1,10,11,9,-1,9,11,12,-1,13,14,15,-1,15,14,12,-1,15,12,16,-1,16,12,11,-1,14,13,17,-1,17,13,18,-1,18,19,17,-1,17,19,20,-1,17,20,21,-1,21,20,22,-1,21,22,23,-1,23,22,24,-1,23,24,25,-1,25,24,26,-1,25,26,27,-1,27,26,28,-1,27,28,29,-1,29,28,30,-1,29,30,31,-1,31,30,32,-1,31,32,33,-1,33,32,34,-1,33,34,35,-1,35,34,36,-1,35,36,37,-1,37,36,38,-1,37,38,39,-1,39,38,40,-1,39,40,41,-1,41,40,42,-1,41,42,43,-1,43,42,44,-1,43,44,45,-1,45,44,46,-1,45,46,47,-1,47,46,48,-1,47,48,49,-1,49,48,50,-1,49,50,51,-1,51,50,52,-1,51,52,53,-1,53,52,54,-1,53,54,55,-1,55,54,56,-1,55,56,57,-1,57,56,58,-1,57,58,59,-1,59,58,60,-1,59,60,61,-1,61,60,62,-1,61,62,63,-1,63,62,64,-1,63,64,65,-1,65,64,66,-1,65,66,67,-1,67,66,68,-1,67,68,69,-1,69,68,70,-1,69,70,71,-1,71,70,72,-1,71,72,73,-1,73,72,74,-1,73,74,75,-1,76,75,77,-1,77,75,74,-1,76,77,78,-1,76,78,79,-1,79,78,80,-1,79,80,81,-1,81,80,82,-1,81,82,83,-1,83,82,84,-1,83,84,85,-1,85,84,86,-1,85,86,87,-1,86,88,87,-1,87,88,89,-1,88,90,89,-1,89,90,91,-1,89,91,92,-1,92,91,93,-1,92,93,94,-1,94,93,95,-1,94,95,96,-1,96,95,97,-1,96,97,98,-1,98,97,99,-1,98,99,100,-1,100,99,101,-1,100,101,102,-1,103,104,105,-1,102,101,106,-1,102,106,107,-1,107,106,108,-1,107,108,105,-1,105,108,109,-1,105,109,103,-1,104,103,110,-1,104,110,111,-1,111,110,112,-1,111,112,113,-1,113,112,114,-1,113,114,115,-1,115,114,116,-1,115,116,117,-1,117,116,118,-1,117,118,119,-1,119,118,120,-1,119,120,121,-1,121,120,122,-1,121,122,123,-1,123,122,124,-1,123,124,125,-1,125,124,126,-1,125,126,127,-1,127,126,128,-1,127,128,129,-1,129,128,130,-1,129,130,131,-1,131,130,132,-1,131,132,133,-1,133,132,134,-1,133,134,135,-1,135,134,4,-1,135,4,3,-1,59,61,87,-1,87,61,85,-1,85,61,63,-1,85,63,83,-1,125,25,27,-1,111,43,104,-1,104,43,45,-1,96,98,51,-1,51,98,100,-1,51,100,49,-1,49,100,102,-1,49,102,47,-1,47,102,107,-1,47,107,45,-1,45,107,105,-1,45,105,104,-1,125,27,123,-1,123,27,29,-1,123,29,121,-1,121,29,31,-1,121,31,119,-1,119,31,33,-1,119,33,117,-1,117,33,35,-1,117,35,115,-1,115,35,37,-1,115,37,113,-1,113,37,39,-1,113,39,111,-1,111,39,41,-1,111,41,43,-1,25,125,23,-1,23,125,127,-1,23,127,21,-1,14,3,12,-1,12,3,6,-1,12,6,9,-1,9,6,2,-1,9,2,1,-1,63,65,83,-1,83,65,67,-1,83,67,81,-1,81,67,69,-1,81,69,79,-1,79,69,71,-1,79,71,76,-1,76,71,73,-1,76,73,75,-1,127,129,21,-1,21,129,131,-1,21,131,17,-1,17,131,133,-1,17,133,14,-1,14,133,135,-1,14,135,3,-1,87,89,59,-1,59,89,92,-1,59,92,57,-1,57,92,94,-1,57,94,55,-1,55,94,96,-1,55,96,53,-1,53,96,51,-1,136,137,138,-1,138,137,139,-1,140,136,141,-1,141,136,138,-1,140,141,142,-1,140,142,143,-1,143,142,144,-1,143,144,145,-1,146,145,147,-1,147,145,144,-1,148,146,149,-1,149,146,147,-1,148,149,150,-1,150,149,151,-1,150,151,152,-1,153,150,154,-1,154,150,152,-1,153,154,155,-1,155,154,156,-1,155,156,157,-1,158,159,160,-1,160,159,155,-1,160,155,157,-1,158,161,159,-1,159,161,162,-1,161,163,162,-1,162,163,164,-1,162,164,165,-1,165,164,166,-1,165,166,167,-1,167,166,168,-1,167,168,169,-1,169,168,170,-1,169,170,171,-1,171,170,172,-1,171,172,173,-1,173,172,174,-1,173,174,175,-1,176,175,177,-1,177,175,174,-1,176,177,178,-1,176,178,179,-1,179,178,180,-1,179,180,181,-1,181,180,182,-1,181,182,183,-1,183,182,184,-1,183,184,185,-1,184,186,185,-1,185,186,187,-1,185,187,188,-1,188,187,189,-1,188,189,190,-1,190,189,191,-1,190,191,192,-1,139,137,193,-1,193,137,192,-1,193,192,191,-1,143,145,192,-1,137,136,192,-1,192,136,140,-1,192,140,143,-1,150,153,148,-1,148,153,155,-1,148,155,146,-1,145,146,192,-1,192,146,155,-1,192,155,190,-1,155,159,190,-1,190,159,162,-1,190,162,188,-1,188,162,165,-1,188,165,185,-1,185,165,167,-1,185,167,183,-1,183,167,169,-1,183,169,181,-1,181,169,171,-1,181,171,179,-1,179,171,173,-1,179,173,176,-1,176,173,175,-1,194,195,196,-1,196,195,197,-1,194,196,198,-1,198,196,199,-1,198,199,200,-1,201,198,202,-1,202,198,200,-1,201,202,203,-1,203,202,204,-1,203,204,205,-1,206,203,207,-1,207,203,205,-1,208,209,210,-1,210,209,206,-1,210,206,207,-1,211,209,212,-1,212,209,208,-1,213,214,215,-1,215,214,211,-1,215,211,212,-1,216,214,217,-1,217,214,213,-1,218,219,220,-1,220,219,216,-1,220,216,217,-1,221,219,222,-1,222,219,218,-1,221,222,195,-1,195,222,223,-1,195,223,197,-1,221,195,194,-1,194,198,221,-1,221,198,201,-1,221,201,219,-1,214,216,211,-1,211,216,219,-1,211,219,209,-1,209,219,201,-1,209,201,206,-1,206,201,203,-1,224,225,226,-1,226,225,227,-1,226,227,228,-1,228,227,229,-1,228,229,230,-1,230,229,231,-1,230,231,232,-1,232,231,233,-1,232,233,234,-1,234,233,235,-1,234,235,236,-1,236,235,237,-1,236,237,238,-1,238,237,239,-1,238,239,240,-1,240,239,241,-1,240,241,242,-1,242,241,243,-1,242,243,244,-1,244,243,245,-1,244,245,246,-1,246,245,247,-1,246,247,248,-1,248,247,249,-1,248,249,250,-1,250,249,251,-1,250,251,252,-1,252,251,253,-1,252,253,254,-1,254,253,255,-1,254,255,256,-1,256,255,257,-1,256,257,258,-1,258,257,224,-1,258,224,226,-1,232,234,259,-1,259,234,260,-1,232,259,261,-1,232,261,230,-1,230,261,262,-1,230,262,228,-1,228,262,263,-1,228,263,226,-1,226,263,264,-1,226,264,258,-1,258,264,265,-1,258,265,256,-1,256,265,266,-1,256,266,254,-1,254,266,267,-1,254,267,252,-1,252,267,268,-1,252,268,250,-1,250,268,269,-1,250,269,248,-1,248,269,270,-1,248,270,246,-1,246,270,271,-1,246,271,244,-1,244,271,272,-1,244,272,242,-1,242,272,273,-1,242,273,240,-1,240,273,274,-1,240,274,238,-1,236,238,275,-1,275,238,274,-1,234,236,260,-1,260,236,275,-1,239,237,276,-1,276,237,277,-1,237,235,277,-1,277,235,278,-1,235,233,278,-1,278,233,279,-1,225,280,281,-1,225,281,227,-1,227,281,282,-1,227,282,229,-1,229,282,283,-1,229,283,231,-1,231,283,279,-1,231,279,233,-1,253,284,285,-1,253,285,255,-1,255,285,286,-1,255,286,257,-1,257,286,287,-1,257,287,224,-1,224,287,280,-1,224,280,225,-1,245,288,289,-1,245,289,247,-1,247,289,290,-1,247,290,249,-1,249,290,291,-1,249,291,251,-1,251,291,284,-1,251,284,253,-1,239,276,292,-1,239,292,241,-1,241,292,293,-1,241,293,243,-1,243,293,288,-1,243,288,245,-1,
        ]
    }
}
Shape{
    appearance Appearance {
        material  Material 	{
            diffuseColor 0.25098039215686274 0.25098039215686274 0.25098039215686274
            specularColor 0.12549019607843137 0.12549019607843137 0.12549019607843137
            ambientIntensity 0.251
            transparency 0.0
            shininess 0.5
        }
    }
    geometry IndexedFaceSet {
        ccw TRUE
        solid FALSE
        coord DEF co Coordinate {
            point [
                0.1892 -0.8051 0.1771, 0.1892 -0.8051 0.1359, 0.1972 -0.8051 0.1771, 0.1969 -0.8051 0.1359, 0.2037 -0.8051 0.1367, 0.2083 -0.8051 0.1383, 0.2118 -0.8051 0.1406, 0.2128 -0.8051 0.1415, 0.2155 -0.8051 0.1448, 0.2173 -0.8051 0.1488, 0.2183 -0.8051 0.1536, 0.2185 -0.8051 0.157, 0.2178 -0.8051 0.1632, 0.2164 -0.8051 0.1672, 0.2144 -0.8051 0.1703, 0.2126 -0.8051 0.1721, 0.2041 -0.8051 0.1763, 0.2087 -0.8051 0.1746
            ]
        }
        coordIndex [
            0,1,2,-1,2,1,3,-1,2,3,4,-1,4,5,2,-1,2,5,6,-1,2,6,7,-1,7,8,2,-1,2,8,9,-1,2,9,10,-1,10,11,2,-1,2,11,12,-1,2,12,13,-1,13,14,2,-1,2,14,15,-1,2,15,16,-1,16,15,17,-1,
        ]
    }
}
Shape{
    appearance Appearance {
        material  Material 	{
            diffuseColor 1.0 1.0 1.0
            specularColor 0.5019607843137255 0.5019607843137255 0.5019607843137255
            ambientIntensity 1.0
            transparency 0.0
            shininess 0.5
        }
    }
    geometry IndexedFaceSet {
        ccw TRUE
        solid FALSE
        coord DEF co Coordinate {
            point [
                0.2436 -0.8091 0.1505, 0.2414 -0.8091 0.1444, 0.2615 -0.8091 0.1505, 0.2637 -0.8091 0.1444, 0.2516 -0.8091 0.1727, 0.249 -0.8091 0.1832, 0.2287 -0.8091 0.1298, 0.2363 -0.8091 0.1298, 0.2521 -0.8091 0.1742, 0.2525 -0.8091 0.1764, 0.2564 -0.8091 0.1832, 0.2527 -0.8091 0.1764, 0.2531 -0.8091 0.1741, 0.2535 -0.8091 0.1727, 0.2767 -0.8091 0.1298, 0.2691 -0.8091 0.1298, 0.2564 -0.8051 0.1832, 0.2767 -0.8051 0.1298, 0.249 -0.8051 0.1832, 0.2287 -0.8051 0.1298, 0.2363 -0.8051 0.1298, 0.2414 -0.8051 0.1444, 0.2637 -0.8051 0.1444, 0.2691 -0.8051 0.1298, 0.2436 -0.8051 0.1505, 0.2615 -0.8051 0.1505, 0.2535 -0.8051 0.1727, 0.2527 -0.8051 0.1764, 0.2531 -0.8051 0.1741, 0.2525 -0.8051 0.1764, 0.2516 -0.8051 0.1727, 0.2521 -0.8051 0.1742
            ]
        }
        coordIndex [
            0,1,2,-1,2,1,3,-1,4,5,0,-1,0,5,6,-1,0,6,1,-1,1,6,7,-1,4,8,5,-1,5,8,9,-1,5,9,10,-1,10,9,11,-1,10,11,12,-1,12,13,10,-1,10,13,2,-1,10,2,14,-1,14,2,3,-1,14,3,15,-1,10,14,16,-1,16,14,17,-1,5,10,18,-1,18,10,16,-1,6,5,19,-1,19,5,18,-1,7,6,20,-1,20,6,19,-1,1,7,21,-1,21,7,20,-1,3,1,22,-1,22,1,21,-1,15,3,23,-1,23,3,22,-1,14,15,17,-1,17,15,23,-1,0,2,24,-1,24,2,25,-1,2,13,25,-1,25,13,26,-1,11,27,28,-1,11,28,12,-1,12,28,26,-1,12,26,13,-1,11,9,27,-1,27,9,29,-1,4,30,31,-1,4,31,8,-1,8,31,29,-1,8,29,9,-1,4,0,30,-1,30,0,24,-1,
        ]
    }
}
Shape{
    appearance Appearance {
        material  Material 	{
            diffuseColor 0.25098039215686274 0.25098039215686274 0.25098039215686274
            specularColor 0.12549019607843137 0.12549019607843137 0.12549019607843137
            ambientIntensity 0.251
            transparency 0.0
            shininess 0.5
        }
    }
    geometry IndexedFaceSet {
        ccw TRUE
        solid FALSE
        coord DEF co Coordinate {
            point [
                0.2527 -0.8051 0.1764, 0.2525 -0.8051 0.1764, 0.2531 -0.8051 0.1741, 0.2521 -0.8051 0.1742, 0.2535 -0.8051 0.1727, 0.2516 -0.8051 0.1727, 0.2615 -0.8051 0.1505, 0.2436 -0.8051 0.1505
            ]
        }
        coordIndex [
            0,1,2,-1,2,1,3,-1,2,3,4,-1,4,3,5,-1,4,5,6,-1,6,5,7,-1,
        ]
    }
}
Shape{
    appearance Appearance {
        material  Material 	{
            diffuseColor 1.0 1.0 1.0
            specularColor 0.5019607843137255 0.5019607843137255 0.5019607843137255
            ambientIntensity 1.0
            transparency 0.0
            shininess 0.5
        }
    }
    geometry IndexedFaceSet {
        ccw TRUE
        solid FALSE
        coord DEF co Coordinate {
            point [
                -0.2401 -0.8091 0.1223, -0.2345 -0.8091 0.1153, -0.2435 -0.8091 0.1558, -0.1768 -0.8091 0.1208, -0.1723 -0.8091 0.1293, -0.1701 -0.8091 0.1387, -0.2181 -0.8091 0.1311, -0.215 -0.8091 0.129, -0.227 -0.8091 0.1097, -0.2115 -0.8091 0.1277, -0.0716 -0.8091 0.1824, -0.0725 -0.8091 0.175, -0.05 -0.8091 0.1686, -0.1168 -0.8091 0.1744, -0.1285 -0.8091 0.1945, -0.1699 -0.8091 0.1463, -0.1794 -0.8091 0.168, -0.1699 -0.8091 0.1426, -0.1902 -0.8091 0.109, -0.1826 -0.8091 0.1142, -0.2518 -0.8091 0.1609, -0.2505 -0.8091 0.1325, -0.2439 -0.8091 0.1304, -0.1042 -0.8091 0.212, -0.1012 -0.8091 0.212, -0.0856 -0.8091 0.2325, -0.094 -0.8091 0.2111, -0.0833 -0.8091 0.2317, -0.0874 -0.8091 0.2086, -0.072 -0.8091 0.226, -0.0618 -0.8091 0.2172, -0.211 -0.8091 0.2245, -0.2082 -0.8091 0.223, -0.22 -0.8091 0.2507, -0.2029 -0.8091 0.2343, -0.2122 -0.8091 0.2598, -0.1945 -0.8091 0.2446, -0.2033 -0.8091 0.2674, -0.184 -0.8091 0.2525, -0.1941 -0.8091 0.2731, -0.2183 -0.8091 0.106, -0.2093 -0.8091 0.1046, -0.2082 -0.8091 0.1274, -0.2078 -0.8091 0.1046, -0.205 -0.8091 0.1277, -0.1987 -0.8091 0.1057, -0.2017 -0.8091 0.1289, -0.1987 -0.8091 0.1308, -0.1962 -0.8091 0.1335, -0.0549 -0.8091 0.1567, -0.0751 -0.8091 0.1683, -0.0621 -0.8091 0.1467, -0.1766 -0.8091 0.2799, -0.1716 -0.8091 0.2576, -0.1577 -0.8091 0.2822, -0.1061 -0.8091 0.2625, -0.1194 -0.8091 0.2435, -0.0937 -0.8091 0.2482, -0.1112 -0.8091 0.2329, -0.1059 -0.8091 0.2204, -0.2586 -0.8091 0.1679, -0.2743 -0.8091 0.1486, -0.264 -0.8091 0.1396, -0.2652 -0.8091 0.1999, -0.29 -0.8091 0.1945, -0.2663 -0.8091 0.1908, -0.2902 -0.8091 0.19, -0.2658 -0.8091 0.185, -0.2888 -0.8091 0.1768, -0.2631 -0.8091 0.1757, -0.2837 -0.8091 0.1626, -0.2757 -0.8091 0.1503, -0.2205 -0.8091 0.1339, -0.2221 -0.8091 0.137, -0.2229 -0.8091 0.1405, -0.1944 -0.8091 0.1475, -0.1935 -0.8091 0.144, -0.1935 -0.8091 0.1404, -0.1944 -0.8091 0.1368, -0.0815 -0.8091 0.2045, -0.0771 -0.8091 0.1995, -0.0542 -0.8091 0.2063, -0.0735 -0.8091 0.193, -0.0497 -0.8091 0.1947, -0.0718 -0.8091 0.1857, -0.0481 -0.8091 0.1828, -0.0481 -0.8091 0.181, -0.0793 -0.8091 0.1623, -0.0798 -0.8091 0.1618, -0.0729 -0.8091 0.1377, -0.0854 -0.8091 0.1572, -0.0846 -0.8091 0.1321, -0.0921 -0.8091 0.1541, -0.0966 -0.8091 0.1297, -0.0989 -0.8091 0.1528, -0.119 -0.8091 0.1297, -0.116 -0.8091 0.1528, -0.1208 -0.8091 0.1299, -0.2195 -0.8091 0.2276, -0.2243 -0.8091 0.2512, -0.2283 -0.8091 0.2287, -0.2287 -0.8091 0.2515, -0.2322 -0.8091 0.2285, -0.242 -0.8091 0.25, -0.2416 -0.8091 0.2263, -0.2561 -0.8091 0.245, -0.2501 -0.8091 0.2218, -0.2689 -0.8091 0.2365, -0.2567 -0.8091 0.216, -0.2724 -0.8091 0.2333, -0.2619 -0.8091 0.2084, -0.2806 -0.8091 0.223, -0.287 -0.8091 0.2095, -0.159 -0.8091 0.2594, -0.1574 -0.8091 0.2594, -0.1421 -0.8091 0.2806, -0.1452 -0.8091 0.258, -0.1231 -0.8091 0.2739, -0.1332 -0.8091 0.2536, -0.1225 -0.8091 0.2464, -0.2229 -0.8091 0.1438, -0.222 -0.8091 0.1475, -0.2393 -0.8091 0.164, -0.2203 -0.8091 0.1508, -0.233 -0.8091 0.1712, -0.2178 -0.8091 0.1535, -0.2253 -0.8091 0.1766, -0.2147 -0.8091 0.1555, -0.2169 -0.8091 0.1798, -0.2114 -0.8091 0.1566, -0.2078 -0.8091 0.1809, -0.2082 -0.8091 0.157, -0.2032 -0.8091 0.1806, -0.2051 -0.8091 0.1566, -0.194 -0.8091 0.1783, -0.2016 -0.8091 0.1554, -0.186 -0.8091 0.174, -0.1985 -0.8091 0.1533, -0.1961 -0.8091 0.1506, -0.1179 -0.8091 0.1532, -0.1271 -0.8091 0.1337, -0.1259 -0.8091 0.1325, -0.121 -0.8091 0.1528, -0.1237 -0.8091 0.1519, -0.13 -0.8091 0.1425, -0.13 -0.8091 0.1414, -0.1297 -0.8091 0.1387, -0.1287 -0.8091 0.1361, -0.1168 -0.8091 0.1529, -0.1234 -0.8091 0.1308, -0.1183 -0.8091 0.1532, -0.126 -0.8091 0.1502, -0.128 -0.8091 0.148, -0.1293 -0.8091 0.1454, -0.0596 -0.8051 0.2141, -0.0542 -0.8051 0.2063, -0.0511 -0.8051 0.1984, -0.0497 -0.8051 0.1947, -0.0481 -0.8051 0.1828, -0.0618 -0.8051 0.2172, -0.072 -0.8051 0.226, -0.0833 -0.8051 0.2317, -0.0856 -0.8051 0.2325, -0.0937 -0.8051 0.2482, -0.1061 -0.8051 0.2625, -0.1148 -0.8051 0.2683, -0.1231 -0.8051 0.2739, -0.1421 -0.8051 0.2806, -0.1577 -0.8051 0.2822, -0.2033 -0.8051 0.2674, -0.2018 -0.8051 0.2683, -0.1941 -0.8051 0.2731, -0.1766 -0.8051 0.2799, -0.2122 -0.8051 0.2598, -0.22 -0.8051 0.2507, -0.2243 -0.8051 0.2512, -0.2287 -0.8051 0.2515, -0.242 -0.8051 0.25, -0.2561 -0.8051 0.245, -0.2689 -0.8051 0.2365, -0.2724 -0.8051 0.2333, -0.2806 -0.8051 0.223, -0.2849 -0.8051 0.2141, -0.287 -0.8051 0.2095, -0.2893 -0.8051 0.1984, -0.29 -0.8051 0.1945, -0.2902 -0.8051 0.19, -0.2888 -0.8051 0.1768, -0.2837 -0.8051 0.1626, -0.2757 -0.8051 0.1503, -0.2743 -0.8051 0.1486, -0.264 -0.8051 0.1396, -0.2505 -0.8051 0.1325, -0.2439 -0.8051 0.1304, -0.2434 -0.8051 0.1294, -0.2401 -0.8051 0.1223, -0.2345 -0.8051 0.1153, -0.227 -0.8051 0.1097, -0.2235 -0.8051 0.1082, -0.2183 -0.8051 0.106, -0.2093 -0.8051 0.1046, -0.2078 -0.8051 0.1046, -0.1699 -0.8051 0.1426, -0.1987 -0.8051 0.1057, -0.1921 -0.8051 0.1082, -0.1902 -0.8051 0.109, -0.1826 -0.8051 0.1142, -0.1768 -0.8051 0.1208, -0.1723 -0.8051 0.1293, -0.1723 -0.8051 0.1294, -0.1701 -0.8051 0.1387, -0.1699 -0.8051 0.1463, -0.1168 -0.8051 0.1744, -0.1285 -0.8051 0.1945, -0.1794 -0.8051 0.168, -0.186 -0.8051 0.174, -0.194 -0.8051 0.1783, -0.2032 -0.8051 0.1806, -0.2078 -0.8051 0.1809, -0.2169 -0.8051 0.1798, -0.2253 -0.8051 0.1766, -0.233 -0.8051 0.1712, -0.2393 -0.8051 0.164, -0.2435 -0.8051 0.1558, -0.2518 -0.8051 0.1609, -0.2586 -0.8051 0.1679, -0.2631 -0.8051 0.1757, -0.2658 -0.8051 0.185, -0.2663 -0.8051 0.1908, -0.2653 -0.8051 0.1984, -0.2652 -0.8051 0.1999, -0.2619 -0.8051 0.2084, -0.258 -0.8051 0.2141, -0.2567 -0.8051 0.216, -0.2501 -0.8051 0.2218, -0.2416 -0.8051 0.2263, -0.2322 -0.8051 0.2285, -0.2283 -0.8051 0.2287, -0.2195 -0.8051 0.2276, -0.211 -0.8051 0.2245, -0.2082 -0.8051 0.223, -0.2029 -0.8051 0.2343, -0.1945 -0.8051 0.2446, -0.184 -0.8051 0.2525, -0.1716 -0.8051 0.2576, -0.159 -0.8051 0.2594, -0.1574 -0.8051 0.2594, -0.1042 -0.8051 0.212, -0.1046 -0.8051 0.2141, -0.1059 -0.8051 0.2204, -0.1112 -0.8051 0.2329, -0.1194 -0.8051 0.2435, -0.1225 -0.8051 0.2464, -0.1332 -0.8051 0.2536, -0.1452 -0.8051 0.258, -0.1012 -0.8051 0.212, -0.094 -0.8051 0.2111, -0.0874 -0.8051 0.2086, -0.0815 -0.8051 0.2045, -0.0771 -0.8051 0.1995, -0.0765 -0.8051 0.1984, -0.0735 -0.8051 0.193, -0.0718 -0.8051 0.1857, -0.0716 -0.8051 0.1824, -0.0725 -0.8051 0.175, -0.0751 -0.8051 0.1683, -0.0793 -0.8051 0.1623, -0.0798 -0.8051 0.1618, -0.0854 -0.8051 0.1572, -0.0921 -0.8051 0.1541, -0.0989 -0.8051 0.1528, -0.116 -0.8051 0.1528, -0.1168 -0.8051 0.1529, -0.1179 -0.8051 0.1532, -0.1183 -0.8051 0.1532, -0.121 -0.8051 0.1528, -0.1237 -0.8051 0.1519, -0.126 -0.8051 0.1502, -0.128 -0.8051 0.148, -0.1293 -0.8051 0.1454, -0.13 -0.8051 0.1425, -0.13 -0.8051 0.1414, -0.1297 -0.8051 0.1387, -0.1287 -0.8051 0.1361, -0.1271 -0.8051 0.1337, -0.1259 -0.8051 0.1325, -0.1234 -0.8051 0.1308, -0.1208 -0.8051 0.1299, -0.119 -0.8051 0.1297, -0.0966 -0.8051 0.1297, -0.0846 -0.8051 0.1321, -0.0729 -0.8051 0.1377, -0.0621 -0.8051 0.1467, -0.0549 -0.8051 0.1567, -0.05 -0.8051 0.1686, -0.0481 -0.8051 0.181, -0.2082 -0.8051 0.157, -0.2051 -0.8051 0.1566, -0.2016 -0.8051 0.1554, -0.1985 -0.8051 0.1533, -0.1961 -0.8051 0.1506, -0.1944 -0.8051 0.1475, -0.1935 -0.8051 0.144, -0.1935 -0.8051 0.1404, -0.1944 -0.8051 0.1368, -0.1962 -0.8051 0.1335, -0.1987 -0.8051 0.1308, -0.2017 -0.8051 0.1289, -0.205 -0.8051 0.1277, -0.2082 -0.8051 0.1274, -0.2115 -0.8051 0.1277, -0.215 -0.8051 0.129, -0.2181 -0.8051 0.1311, -0.2205 -0.8051 0.1339, -0.2221 -0.8051 0.137, -0.2229 -0.8051 0.1405, -0.2229 -0.8051 0.1438, -0.222 -0.8051 0.1475, -0.2203 -0.8051 0.1508, -0.2178 -0.8051 0.1535, -0.2147 -0.8051 0.1555, -0.2114 -0.8051 0.1566
            ]
        }
        coordIndex [
            0,1,2,-1,3,4,5,-1,6,1,7,-1,7,1,8,-1,7,8,9,-1,10,11,12,-1,13,14,15,-1,15,14,16,-1,15,16,17,-1,17,16,18,-1,17,18,5,-1,5,18,19,-1,5,19,3,-1,20,21,2,-1,2,21,22,-1,2,22,0,-1,23,24,25,-1,25,24,26,-1,25,26,27,-1,27,26,28,-1,27,28,29,-1,29,28,30,-1,31,32,33,-1,33,32,34,-1,33,34,35,-1,35,34,36,-1,35,36,37,-1,37,36,38,-1,37,38,39,-1,8,40,9,-1,9,40,41,-1,9,41,42,-1,42,41,43,-1,42,43,44,-1,44,43,45,-1,44,45,46,-1,46,45,18,-1,46,18,47,-1,47,18,48,-1,12,11,49,-1,49,11,50,-1,49,50,51,-1,39,38,52,-1,52,38,53,-1,52,53,54,-1,55,56,57,-1,57,56,58,-1,57,58,25,-1,25,58,59,-1,25,59,23,-1,60,61,20,-1,20,61,62,-1,20,62,21,-1,63,64,65,-1,65,64,66,-1,65,66,67,-1,67,66,68,-1,67,68,69,-1,69,68,70,-1,69,70,60,-1,60,70,71,-1,60,71,61,-1,6,72,1,-1,1,72,73,-1,1,73,2,-1,2,73,74,-1,75,76,16,-1,16,76,77,-1,16,77,18,-1,18,77,78,-1,18,78,48,-1,28,79,30,-1,30,79,80,-1,30,80,81,-1,81,80,82,-1,81,82,83,-1,83,82,84,-1,83,84,85,-1,85,84,10,-1,85,10,86,-1,86,10,12,-1,50,87,51,-1,51,87,88,-1,51,88,89,-1,89,88,90,-1,89,90,91,-1,91,90,92,-1,91,92,93,-1,93,92,94,-1,93,94,95,-1,95,94,96,-1,95,96,97,-1,31,33,98,-1,98,33,99,-1,98,99,100,-1,100,99,101,-1,100,101,102,-1,102,101,103,-1,102,103,104,-1,104,103,105,-1,104,105,106,-1,106,105,107,-1,106,107,108,-1,108,107,109,-1,108,109,110,-1,110,109,111,-1,110,111,63,-1,63,111,112,-1,63,112,64,-1,53,113,54,-1,54,113,114,-1,54,114,115,-1,115,114,116,-1,115,116,117,-1,117,116,118,-1,117,118,55,-1,55,118,119,-1,55,119,56,-1,74,120,2,-1,2,120,121,-1,2,121,122,-1,122,121,123,-1,122,123,124,-1,124,123,125,-1,124,125,126,-1,126,125,127,-1,126,127,128,-1,128,127,129,-1,128,129,130,-1,130,129,131,-1,130,131,132,-1,132,131,133,-1,132,133,134,-1,134,133,135,-1,134,135,136,-1,136,135,137,-1,136,137,16,-1,16,137,138,-1,16,138,75,-1,139,140,141,-1,142,143,144,-1,145,146,139,-1,139,146,147,-1,139,147,140,-1,96,148,97,-1,97,148,139,-1,97,139,149,-1,149,139,141,-1,145,139,144,-1,144,139,150,-1,144,150,142,-1,143,151,144,-1,144,151,152,-1,144,152,153,-1,154,30,155,-1,155,30,81,-1,155,81,156,-1,156,81,83,-1,156,83,157,-1,157,83,85,-1,157,85,158,-1,154,159,30,-1,30,159,160,-1,30,160,29,-1,29,160,161,-1,29,161,27,-1,27,161,162,-1,27,162,25,-1,25,162,163,-1,25,163,57,-1,57,163,164,-1,57,164,55,-1,55,164,117,-1,117,164,165,-1,165,166,117,-1,117,166,167,-1,117,167,115,-1,115,167,168,-1,115,168,54,-1,169,37,170,-1,170,37,39,-1,170,39,171,-1,171,39,52,-1,171,52,172,-1,172,52,54,-1,172,54,168,-1,37,169,173,-1,37,173,35,-1,35,173,174,-1,35,174,33,-1,33,174,175,-1,33,175,99,-1,99,175,176,-1,99,176,101,-1,101,176,177,-1,101,177,103,-1,103,177,178,-1,103,178,105,-1,105,178,179,-1,105,179,107,-1,107,179,180,-1,107,180,109,-1,112,111,181,-1,181,111,109,-1,181,109,180,-1,181,182,112,-1,112,182,183,-1,112,183,64,-1,64,183,184,-1,184,185,64,-1,64,185,186,-1,64,186,66,-1,66,186,187,-1,66,187,68,-1,68,187,188,-1,68,188,70,-1,70,188,189,-1,70,189,71,-1,71,189,190,-1,71,190,61,-1,61,190,191,-1,61,191,62,-1,62,191,192,-1,62,192,21,-1,21,192,193,-1,21,193,22,-1,22,193,194,-1,22,194,0,-1,194,195,0,-1,0,195,196,-1,0,196,1,-1,1,196,197,-1,1,197,8,-1,8,197,198,-1,8,198,40,-1,198,199,40,-1,40,199,200,-1,40,200,41,-1,41,200,201,-1,41,201,43,-1,202,17,5,-1,43,201,203,-1,43,203,45,-1,45,203,204,-1,45,204,18,-1,204,205,18,-1,18,205,206,-1,18,206,19,-1,19,206,207,-1,19,207,3,-1,3,207,208,-1,3,208,4,-1,4,208,209,-1,4,209,5,-1,5,209,210,-1,5,210,202,-1,15,17,211,-1,211,17,202,-1,13,15,212,-1,212,15,211,-1,14,13,213,-1,213,13,212,-1,16,14,214,-1,214,14,213,-1,16,214,215,-1,16,215,136,-1,136,215,216,-1,136,216,134,-1,134,216,217,-1,134,217,132,-1,132,217,218,-1,132,218,130,-1,130,218,219,-1,130,219,128,-1,128,219,220,-1,128,220,126,-1,126,220,221,-1,126,221,124,-1,124,221,222,-1,124,222,122,-1,122,222,223,-1,122,223,2,-1,2,223,224,-1,2,224,20,-1,20,224,225,-1,20,225,60,-1,60,225,226,-1,60,226,69,-1,69,226,227,-1,69,227,67,-1,67,227,228,-1,67,228,65,-1,65,228,229,-1,65,229,63,-1,63,229,230,-1,63,230,231,-1,232,108,231,-1,231,108,110,-1,231,110,63,-1,232,233,108,-1,108,233,234,-1,108,234,106,-1,106,234,235,-1,106,235,104,-1,104,235,236,-1,104,236,102,-1,102,236,237,-1,102,237,100,-1,100,237,238,-1,100,238,98,-1,98,238,239,-1,98,239,31,-1,31,239,240,-1,31,240,32,-1,32,240,241,-1,32,241,34,-1,34,241,242,-1,34,242,36,-1,36,242,243,-1,36,243,38,-1,38,243,244,-1,38,244,53,-1,53,244,245,-1,53,245,113,-1,113,245,246,-1,113,246,114,-1,247,23,248,-1,248,23,59,-1,248,59,249,-1,249,59,58,-1,249,58,250,-1,250,58,56,-1,250,56,251,-1,251,56,119,-1,251,119,252,-1,252,119,118,-1,252,118,253,-1,253,118,116,-1,253,116,254,-1,254,116,114,-1,254,114,246,-1,24,23,255,-1,255,23,247,-1,24,255,256,-1,24,256,26,-1,26,256,257,-1,26,257,28,-1,28,257,258,-1,28,258,79,-1,79,258,259,-1,79,259,80,-1,80,259,260,-1,80,260,82,-1,260,261,82,-1,82,261,262,-1,82,262,84,-1,84,262,263,-1,84,263,10,-1,10,263,264,-1,10,264,11,-1,11,264,265,-1,11,265,50,-1,50,265,266,-1,50,266,87,-1,87,266,267,-1,87,267,88,-1,88,267,268,-1,88,268,90,-1,90,268,269,-1,90,269,92,-1,92,269,270,-1,92,270,94,-1,96,94,271,-1,271,94,270,-1,96,271,272,-1,96,272,148,-1,148,272,273,-1,148,273,139,-1,139,273,274,-1,139,274,150,-1,150,274,275,-1,150,275,142,-1,142,275,276,-1,142,276,143,-1,143,276,277,-1,143,277,151,-1,151,277,278,-1,151,278,152,-1,152,278,279,-1,152,279,153,-1,153,279,280,-1,153,280,144,-1,144,280,281,-1,144,281,145,-1,145,281,282,-1,145,282,146,-1,146,282,283,-1,146,283,147,-1,147,283,284,-1,147,284,140,-1,140,284,285,-1,140,285,141,-1,141,285,286,-1,141,286,149,-1,149,286,287,-1,149,287,97,-1,97,287,288,-1,97,288,95,-1,93,95,289,-1,289,95,288,-1,93,289,290,-1,93,290,91,-1,91,290,291,-1,91,291,89,-1,89,291,292,-1,89,292,51,-1,51,292,293,-1,51,293,49,-1,49,293,294,-1,49,294,12,-1,12,294,295,-1,12,295,86,-1,86,295,158,-1,86,158,85,-1,131,296,297,-1,131,297,133,-1,133,297,298,-1,133,298,135,-1,135,298,299,-1,135,299,137,-1,137,299,300,-1,137,300,138,-1,138,300,301,-1,138,301,75,-1,75,301,302,-1,75,302,76,-1,76,302,303,-1,76,303,77,-1,77,303,304,-1,77,304,78,-1,78,304,305,-1,78,305,48,-1,48,305,306,-1,48,306,47,-1,47,306,307,-1,47,307,46,-1,46,307,308,-1,46,308,44,-1,44,308,309,-1,44,309,42,-1,42,309,310,-1,42,310,9,-1,9,310,311,-1,9,311,7,-1,7,311,312,-1,7,312,6,-1,6,312,313,-1,6,313,72,-1,72,313,314,-1,72,314,73,-1,73,314,315,-1,73,315,74,-1,74,315,316,-1,74,316,120,-1,120,316,317,-1,120,317,121,-1,121,317,318,-1,121,318,123,-1,123,318,319,-1,123,319,125,-1,125,319,320,-1,125,320,127,-1,127,320,321,-1,127,321,129,-1,129,321,296,-1,129,296,131,-1,
        ]
    }
}
Shape{
    appearance Appearance {
        material  Material 	{
            diffuseColor 0.25098039215686274 0.25098039215686274 0.25098039215686274
            specularColor 0.12549019607843137 0.12549019607843137 0.12549019607843137
            ambientIntensity 0.251
            transparency 0.0
            shininess 0.5
        }
    }
    geometry IndexedFaceSet {
        ccw TRUE
        solid FALSE
        coord DEF co Coordinate {
            point [
                -0.2114 -0.8051 0.1566, -0.2082 -0.8051 0.1274, -0.2082 -0.8051 0.157, -0.205 -0.8051 0.1277, -0.2051 -0.8051 0.1566, -0.2229 -0.8051 0.1405, -0.2229 -0.8051 0.1438, -0.2147 -0.8051 0.1555, -0.1987 -0.8051 0.1308, -0.1961 -0.8051 0.1506, -0.1985 -0.8051 0.1533, -0.2178 -0.8051 0.1535, -0.2203 -0.8051 0.1508, -0.222 -0.8051 0.1475, -0.2221 -0.8051 0.137, -0.2205 -0.8051 0.1339, -0.2181 -0.8051 0.1311, -0.2017 -0.8051 0.1289, -0.2016 -0.8051 0.1554, -0.215 -0.8051 0.129, -0.2115 -0.8051 0.1277, -0.1944 -0.8051 0.1368, -0.1935 -0.8051 0.1404, -0.1962 -0.8051 0.1335, -0.1935 -0.8051 0.144, -0.1944 -0.8051 0.1475
            ]
        }
        coordIndex [
            0,1,2,-1,2,1,3,-1,2,3,4,-1,5,0,6,-1,6,0,7,-1,8,9,10,-1,7,11,6,-1,6,11,12,-1,6,12,13,-1,5,14,0,-1,0,14,15,-1,0,15,16,-1,3,17,4,-1,4,17,8,-1,4,8,18,-1,18,8,10,-1,16,19,0,-1,0,19,20,-1,0,20,1,-1,21,22,23,-1,23,22,24,-1,23,24,8,-1,8,24,25,-1,8,25,9,-1,
        ]
    }
}