#VRML V2.0 utf8
# 3D model generated by easyeda2kicad.py (https://github.com/uPesy/easyeda2kicad.py)

Shape{
    appearance Appearance {
        material  Material 	{
            diffuseColor 1.0 1.0 1.0
            specularColor 0.5019607843137255 0.5019607843137255 0.5019607843137255
            ambientIntensity 1.0
            transparency 0.0
            shininess 0.5
        }
    }
    geometry IndexedFaceSet {
        ccw TRUE
        solid FALSE
        coord DEF co Coordinate {
            point [
                -0.3591 0.2461 0.0591, -0.3591 0.2461 0.0, -0.3591 0.1476 0.0591, -0.3591 0.1476 0.0, -0.2685 0.2461 0.0591, -0.2685 0.2461 0.0, -0.2623 0.2457 0.0591, -0.2623 0.2457 0.0, -0.2563 0.2445 0.0591, -0.2563 0.2445 0.0, -0.2504 0.2425 0.0591, -0.2504 0.2425 0.0, -0.2449 0.2397 0.0591, -0.2449 0.2397 0.0, -0.2397 0.2363 0.0591, -0.2397 0.2363 0.0, -0.2351 0.2322 0.0591, -0.2351 0.2322 0.0, -0.231 0.2276 0.0591, -0.231 0.2276 0.0, -0.2276 0.2224 0.0591, -0.2276 0.2224 0.0, -0.2249 0.2169 0.0591, -0.2249 0.2169 0.0, -0.2229 0.211 0.0591, -0.2229 0.211 0.0, -0.2217 0.205 0.0591, -0.2217 0.205 0.0, -0.2213 0.1988 0.0591, -0.2213 0.1988 0.0, -0.2213 0.1949 0.0591, -0.2213 0.1949 0.0, -0.2217 0.1887 0.0591, -0.2217 0.1887 0.0, -0.2229 0.1827 0.0591, -0.2229 0.1827 0.0, -0.2249 0.1768 0.0591, -0.2249 0.1768 0.0, -0.2276 0.1713 0.0591, -0.2276 0.1713 0.0, -0.231 0.1661 0.0591, -0.231 0.1661 0.0, -0.2351 0.1615 0.0591, -0.2351 0.1615 0.0, -0.2397 0.1574 0.0591, -0.2397 0.1574 0.0, -0.2449 0.154 0.0591, -0.2449 0.154 0.0, -0.2504 0.1512 0.0591, -0.2504 0.1512 0.0, -0.2563 0.1492 0.0591, -0.2563 0.1492 0.0, -0.2623 0.148 0.0591, -0.2623 0.148 0.0, -0.2685 0.1476 0.0591, -0.2685 0.1476 0.0, -0.1031 -0.1575 0.0591, -0.1031 -0.1575 0.0, -0.1031 -0.2953 0.0591, -0.1031 -0.2953 0.0, -0.0638 -0.1181 0.0591, -0.0638 -0.1181 0.0, -0.0559 -0.1181 0.0591, -0.0559 -0.1181 0.0, -0.0504 -0.1186 0.0591, -0.0504 -0.1186 0.0, -0.0451 -0.12 0.0591, -0.0451 -0.12 0.0, -0.0402 -0.1223 0.0591, -0.0402 -0.1223 0.0, -0.0357 -0.1255 0.0591, -0.0357 -0.1255 0.0, -0.0318 -0.1294 0.0591, -0.0318 -0.1294 0.0, -0.0286 -0.1339 0.0591, -0.0286 -0.1339 0.0, -0.0263 -0.1388 0.0591, -0.0263 -0.1388 0.0, -0.0249 -0.1441 0.0591, -0.0249 -0.1441 0.0, -0.0244 -0.1496 0.0591, -0.0244 -0.1496 0.0, -0.0244 -0.2953 0.0591, -0.0244 -0.2953 0.0, -0.2685 0.0492 0.0591, -0.2685 0.0492 0.0, -0.3591 0.0492 0.0591, -0.3591 0.0492 0.0, -0.2623 0.0488 0.0591, -0.2623 0.0488 0.0, -0.2563 0.0476 0.0591, -0.2563 0.0476 0.0, -0.2504 0.0456 0.0591, -0.2504 0.0456 0.0, -0.2449 0.0429 0.0591, -0.2449 0.0429 0.0, -0.2397 0.0394 0.0591, -0.2397 0.0394 0.0, -0.2351 0.0354 0.0591, -0.2351 0.0354 0.0, -0.231 0.0307 0.0591, -0.231 0.0307 0.0, -0.2276 0.0256 0.0591, -0.2276 0.0256 0.0, -0.2249 0.02 0.0591, -0.2249 0.02 0.0, -0.2229 0.0142 0.0591, -0.2229 0.0142 0.0, -0.2217 0.0081 0.0591, -0.2217 0.0081 0.0, -0.2213 0.002 0.0591, -0.2213 0.002 0.0, -0.2213 -0.002 0.0591, -0.2213 -0.002 0.0, -0.2217 -0.0081 0.0591, -0.2217 -0.0081 0.0, -0.2229 -0.0142 0.0591, -0.2229 -0.0142 0.0, -0.2249 -0.02 0.0591, -0.2249 -0.02 0.0, -0.2276 -0.0256 0.0591, -0.2276 -0.0256 0.0, -0.231 -0.0307 0.0591, -0.231 -0.0307 0.0, -0.2351 -0.0354 0.0591, -0.2351 -0.0354 0.0, -0.2397 -0.0394 0.0591, -0.2397 -0.0394 0.0, -0.2449 -0.0429 0.0591, -0.2449 -0.0429 0.0, -0.2504 -0.0456 0.0591, -0.2504 -0.0456 0.0, -0.2563 -0.0476 0.0591, -0.2563 -0.0476 0.0, -0.2623 -0.0488 0.0591, -0.2623 -0.0488 0.0, -0.2685 -0.0492 0.0591, -0.2685 -0.0492 0.0, -0.3591 -0.0492 0.0591, -0.3591 -0.0492 0.0, -0.2685 -0.1476 0.0591, -0.2685 -0.1476 0.0, -0.3591 -0.1476 0.0591, -0.3591 -0.1476 0.0, -0.2623 -0.148 0.0591, -0.2623 -0.148 0.0, -0.2563 -0.1492 0.0591, -0.2563 -0.1492 0.0, -0.2504 -0.1512 0.0591, -0.2504 -0.1512 0.0, -0.2449 -0.154 0.0591, -0.2449 -0.154 0.0, -0.2397 -0.1574 0.0591, -0.2397 -0.1574 0.0, -0.2351 -0.1615 0.0591, -0.2351 -0.1615 0.0, -0.231 -0.1661 0.0591, -0.231 -0.1661 0.0, -0.2276 -0.1713 0.0591, -0.2276 -0.1713 0.0, -0.2249 -0.1768 0.0591, -0.2249 -0.1768 0.0, -0.2229 -0.1827 0.0591, -0.2229 -0.1827 0.0, -0.2217 -0.1887 0.0591, -0.2217 -0.1887 0.0, -0.2213 -0.1949 0.0591, -0.2213 -0.1949 0.0, -0.2213 -0.1988 0.0591, -0.2213 -0.1988 0.0, -0.2217 -0.205 0.0591, -0.2217 -0.205 0.0, -0.2229 -0.211 0.0591, -0.2229 -0.211 0.0, -0.2249 -0.2169 0.0591, -0.2249 -0.2169 0.0, -0.2276 -0.2224 0.0591, -0.2276 -0.2224 0.0, -0.231 -0.2276 0.0591, -0.231 -0.2276 0.0, -0.2351 -0.2322 0.0591, -0.2351 -0.2322 0.0, -0.2397 -0.2363 0.0591, -0.2397 -0.2363 0.0, -0.2449 -0.2397 0.0591, -0.2449 -0.2397 0.0, -0.2504 -0.2425 0.0591, -0.2504 -0.2425 0.0, -0.2563 -0.2445 0.0591, -0.2563 -0.2445 0.0, -0.2623 -0.2457 0.0591, -0.2623 -0.2457 0.0, -0.2685 -0.2461 0.0591, -0.2685 -0.2461 0.0, -0.3591 -0.2461 0.0591, -0.3591 -0.2461 0.0, 0.0937 -0.2953 0.0591, 0.0937 -0.2953 0.0, 0.1724 -0.2953 0.0591, 0.1724 -0.2953 0.0, 0.0937 -0.1496 0.0591, 0.0937 -0.1496 0.0, 0.0942 -0.1441 0.0591, 0.0942 -0.1441 0.0, 0.0956 -0.1388 0.0591, 0.0956 -0.1388 0.0, 0.0979 -0.1339 0.0591, 0.0979 -0.1339 0.0, 0.1011 -0.1294 0.0591, 0.1011 -0.1294 0.0, 0.105 -0.1255 0.0591, 0.105 -0.1255 0.0, 0.1095 -0.1223 0.0591, 0.1095 -0.1223 0.0, 0.1144 -0.12 0.0591, 0.1144 -0.12 0.0, 0.1197 -0.1186 0.0591, 0.1197 -0.1186 0.0, 0.1252 -0.1181 0.0591, 0.1252 -0.1181 0.0, 0.1409 -0.1181 0.0591, 0.1409 -0.1181 0.0, 0.1464 -0.1186 0.0591, 0.1464 -0.1186 0.0, 0.1517 -0.12 0.0591, 0.1517 -0.12 0.0, 0.1567 -0.1223 0.0591, 0.1567 -0.1223 0.0, 0.1612 -0.1255 0.0591, 0.1612 -0.1255 0.0, 0.1651 -0.1294 0.0591, 0.1651 -0.1294 0.0, 0.1682 -0.1339 0.0591, 0.1682 -0.1339 0.0, 0.1705 -0.1388 0.0591, 0.1705 -0.1388 0.0, 0.172 -0.1441 0.0591, 0.172 -0.1441 0.0, 0.1724 -0.1496 0.0591, 0.1724 -0.1496 0.0, 0.2906 -0.2953 0.0591, 0.2906 -0.2953 0.0, 0.3693 -0.2953 0.0591, 0.3693 -0.2953 0.0, 0.2906 -0.1496 0.0591, 0.2906 -0.1496 0.0, 0.291 -0.1441 0.0591, 0.291 -0.1441 0.0, 0.2925 -0.1388 0.0591, 0.2925 -0.1388 0.0, 0.2948 -0.1339 0.0591, 0.2948 -0.1339 0.0, 0.2979 -0.1294 0.0591, 0.2979 -0.1294 0.0, 0.3018 -0.1255 0.0591, 0.3018 -0.1255 0.0, 0.3063 -0.1223 0.0591, 0.3063 -0.1223 0.0, 0.3113 -0.12 0.0591, 0.3113 -0.12 0.0, 0.3166 -0.1186 0.0591, 0.3166 -0.1186 0.0, 0.3221 -0.1181 0.0591, 0.3221 -0.1181 0.0, 0.3378 -0.1181 0.0591, 0.3378 -0.1181 0.0, 0.3433 -0.1186 0.0591, 0.3433 -0.1186 0.0, 0.3486 -0.12 0.0591, 0.3486 -0.12 0.0, 0.3535 -0.1223 0.0591, 0.3535 -0.1223 0.0, 0.358 -0.1255 0.0591, 0.358 -0.1255 0.0, 0.3619 -0.1294 0.0591, 0.3619 -0.1294 0.0, 0.3651 -0.1339 0.0591, 0.3651 -0.1339 0.0, 0.3674 -0.1388 0.0591, 0.3674 -0.1388 0.0, 0.3688 -0.1441 0.0591, 0.3688 -0.1441 0.0, 0.3693 -0.1496 0.0591, 0.3693 -0.1496 0.0, -0.1031 0.2953 0.0591, -0.1031 0.2953 0.0, -0.1031 0.0157 0.0591, -0.1031 0.0157 0.0, -0.0244 0.2953 0.0591, -0.0244 0.2953 0.0, -0.0244 0.0157 0.0591, -0.0244 0.0157 0.0, -0.0251 0.0088 0.0591, -0.0251 0.0088 0.0, -0.0271 0.0022 0.0591, -0.0271 0.0022 0.0, -0.0304 -0.0039 0.0591, -0.0304 -0.0039 0.0, -0.0348 -0.0093 0.0591, -0.0348 -0.0093 0.0, -0.0402 -0.0137 0.0591, -0.0402 -0.0137 0.0, -0.0463 -0.017 0.0591, -0.0463 -0.017 0.0, -0.0529 -0.019 0.0591, -0.0529 -0.019 0.0, -0.0598 -0.0197 0.0591, -0.0598 -0.0197 0.0, -0.0677 -0.0197 0.0591, -0.0677 -0.0197 0.0, -0.0746 -0.019 0.0591, -0.0746 -0.019 0.0, -0.0813 -0.017 0.0591, -0.0813 -0.017 0.0, -0.0874 -0.0137 0.0591, -0.0874 -0.0137 0.0, -0.0928 -0.0093 0.0591, -0.0928 -0.0093 0.0, -0.0972 -0.0039 0.0591, -0.0972 -0.0039 0.0, -0.1004 0.0022 0.0591, -0.1004 0.0022 0.0, -0.1025 0.0088 0.0591, -0.1025 0.0088 0.0, 0.0937 0.2953 0.0591, 0.0937 0.2953 0.0, 0.0937 0.1535 0.0591, 0.0937 0.1535 0.0, 0.1724 0.2953 0.0591, 0.1724 0.2953 0.0, 0.1724 0.1535 0.0591, 0.1724 0.1535 0.0, 0.172 0.148 0.0591, 0.172 0.148 0.0, 0.1707 0.1426 0.0591, 0.1707 0.1426 0.0, 0.1686 0.1375 0.0591, 0.1686 0.1375 0.0, 0.1657 0.1327 0.0591, 0.1657 0.1327 0.0, 0.1621 0.1285 0.0591, 0.1621 0.1285 0.0, 0.1578 0.1249 0.0591, 0.1578 0.1249 0.0, 0.1531 0.122 0.0591, 0.1531 0.122 0.0, 0.148 0.1198 0.0591, 0.148 0.1198 0.0, 0.1426 0.1185 0.0591, 0.1426 0.1185 0.0, 0.137 0.1181 0.0591, 0.137 0.1181 0.0, 0.1291 0.1181 0.0591, 0.1291 0.1181 0.0, 0.1236 0.1185 0.0591, 0.1236 0.1185 0.0, 0.1182 0.1198 0.0591, 0.1182 0.1198 0.0, 0.1131 0.122 0.0591, 0.1131 0.122 0.0, 0.1083 0.1249 0.0591, 0.1083 0.1249 0.0, 0.1041 0.1285 0.0591, 0.1041 0.1285 0.0, 0.1005 0.1327 0.0591, 0.1005 0.1327 0.0, 0.0976 0.1375 0.0591, 0.0976 0.1375 0.0, 0.0954 0.1426 0.0591, 0.0954 0.1426 0.0, 0.0941 0.148 0.0591, 0.0941 0.148 0.0, 0.2906 0.2953 0.0591, 0.2906 0.2953 0.0, 0.2906 0.0157 0.0591, 0.2906 0.0157 0.0, 0.3693 0.2953 0.0591, 0.3693 0.2953 0.0, 0.3693 0.0157 0.0591, 0.3693 0.0157 0.0, 0.3686 0.0088 0.0591, 0.3686 0.0088 0.0, 0.3666 0.0022 0.0591, 0.3666 0.0022 0.0, 0.3633 -0.0039 0.0591, 0.3633 -0.0039 0.0, 0.3589 -0.0093 0.0591, 0.3589 -0.0093 0.0, 0.3535 -0.0137 0.0591, 0.3535 -0.0137 0.0, 0.3474 -0.017 0.0591, 0.3474 -0.017 0.0, 0.3408 -0.019 0.0591, 0.3408 -0.019 0.0, 0.3339 -0.0197 0.0591, 0.3339 -0.0197 0.0, 0.326 -0.0197 0.0591, 0.326 -0.0197 0.0, 0.3191 -0.019 0.0591, 0.3191 -0.019 0.0, 0.3124 -0.017 0.0591, 0.3124 -0.017 0.0, 0.3063 -0.0137 0.0591, 0.3063 -0.0137 0.0, 0.3009 -0.0093 0.0591, 0.3009 -0.0093 0.0, 0.2965 -0.0039 0.0591, 0.2965 -0.0039 0.0, 0.2933 0.0022 0.0591, 0.2933 0.0022 0.0, 0.2912 0.0088 0.0591, 0.2912 0.0088 0.0
            ]
        }
        coordIndex [
            0,1,2,-1,2,1,3,-1,4,5,0,-1,0,5,1,-1,5,4,6,-1,5,6,7,-1,7,6,8,-1,7,8,9,-1,9,8,10,-1,9,10,11,-1,11,10,12,-1,11,12,13,-1,13,12,14,-1,13,14,15,-1,15,14,16,-1,15,16,17,-1,17,16,18,-1,17,18,19,-1,19,18,20,-1,19,20,21,-1,21,20,22,-1,21,22,23,-1,23,22,24,-1,23,24,25,-1,25,24,26,-1,25,26,27,-1,27,26,28,-1,27,28,29,-1,30,31,28,-1,28,31,29,-1,31,30,32,-1,31,32,33,-1,33,32,34,-1,33,34,35,-1,35,34,36,-1,35,36,37,-1,37,36,38,-1,37,38,39,-1,39,38,40,-1,39,40,41,-1,41,40,42,-1,41,42,43,-1,43,42,44,-1,43,44,45,-1,45,44,46,-1,45,46,47,-1,47,46,48,-1,47,48,49,-1,49,48,50,-1,49,50,51,-1,51,50,52,-1,51,52,53,-1,53,52,54,-1,53,54,55,-1,2,3,54,-1,54,3,55,-1,27,29,9,-1,9,29,7,-1,51,53,1,-1,1,53,55,-1,1,55,3,-1,1,43,45,-1,35,37,1,-1,45,47,1,-1,1,47,49,-1,1,49,51,-1,37,39,1,-1,1,39,41,-1,1,41,43,-1,11,13,9,-1,9,13,15,-1,15,17,9,-1,9,17,19,-1,9,19,21,-1,7,29,5,-1,5,29,31,-1,5,31,1,-1,1,31,33,-1,1,33,35,-1,21,23,9,-1,9,23,25,-1,9,25,27,-1,0,2,54,-1,54,52,0,-1,0,52,50,-1,0,50,48,-1,48,46,0,-1,0,46,44,-1,0,44,42,-1,0,30,4,-1,4,30,28,-1,4,28,6,-1,6,28,26,-1,6,26,24,-1,42,40,0,-1,0,40,38,-1,0,38,36,-1,36,34,0,-1,0,34,32,-1,0,32,30,-1,22,20,24,-1,24,20,18,-1,18,16,24,-1,24,16,14,-1,24,14,12,-1,12,10,24,-1,24,10,8,-1,24,8,6,-1,56,57,58,-1,58,57,59,-1,60,61,56,-1,56,61,57,-1,62,63,60,-1,60,63,61,-1,63,62,64,-1,63,64,65,-1,65,64,66,-1,65,66,67,-1,67,66,68,-1,67,68,69,-1,69,68,70,-1,69,70,71,-1,71,70,72,-1,71,72,73,-1,73,72,74,-1,73,74,75,-1,75,74,76,-1,75,76,77,-1,77,76,78,-1,77,78,79,-1,79,78,80,-1,79,80,81,-1,82,83,80,-1,80,83,81,-1,58,59,82,-1,82,59,83,-1,57,61,59,-1,59,61,63,-1,83,59,81,-1,81,59,63,-1,81,63,79,-1,79,63,65,-1,67,75,65,-1,65,75,77,-1,65,77,79,-1,67,69,75,-1,75,69,71,-1,75,71,73,-1,62,60,56,-1,58,82,56,-1,56,82,80,-1,56,80,62,-1,62,80,78,-1,62,78,64,-1,78,76,64,-1,64,76,74,-1,64,74,72,-1,72,70,64,-1,64,70,68,-1,64,68,66,-1,84,85,86,-1,86,85,87,-1,85,84,88,-1,85,88,89,-1,89,88,90,-1,89,90,91,-1,91,90,92,-1,91,92,93,-1,93,92,94,-1,93,94,95,-1,95,94,96,-1,95,96,97,-1,97,96,98,-1,97,98,99,-1,99,98,100,-1,99,100,101,-1,101,100,102,-1,101,102,103,-1,103,102,104,-1,103,104,105,-1,105,104,106,-1,105,106,107,-1,107,106,108,-1,107,108,109,-1,109,108,110,-1,109,110,111,-1,112,113,110,-1,110,113,111,-1,113,112,114,-1,113,114,115,-1,115,114,116,-1,115,116,117,-1,117,116,118,-1,117,118,119,-1,119,118,120,-1,119,120,121,-1,121,120,122,-1,121,122,123,-1,123,122,124,-1,123,124,125,-1,125,124,126,-1,125,126,127,-1,127,126,128,-1,127,128,129,-1,129,128,130,-1,129,130,131,-1,131,130,132,-1,131,132,133,-1,133,132,134,-1,133,134,135,-1,135,134,136,-1,135,136,137,-1,138,139,136,-1,136,139,137,-1,86,87,138,-1,138,87,139,-1,133,135,87,-1,87,135,137,-1,87,137,139,-1,91,111,89,-1,89,111,85,-1,91,93,111,-1,111,93,95,-1,111,95,109,-1,85,111,87,-1,87,111,113,-1,87,113,115,-1,115,117,87,-1,87,117,119,-1,87,119,121,-1,99,101,107,-1,107,101,103,-1,107,103,105,-1,121,123,87,-1,87,123,125,-1,87,125,127,-1,109,95,107,-1,107,95,97,-1,107,97,99,-1,127,129,87,-1,87,129,131,-1,87,131,133,-1,84,86,112,-1,86,138,136,-1,136,134,86,-1,86,134,132,-1,86,132,130,-1,124,122,86,-1,86,122,120,-1,86,120,118,-1,92,90,106,-1,106,90,108,-1,112,110,84,-1,84,110,108,-1,84,108,88,-1,88,108,90,-1,130,128,86,-1,86,128,126,-1,86,126,124,-1,118,116,86,-1,86,116,114,-1,86,114,112,-1,104,102,106,-1,106,102,100,-1,106,100,98,-1,98,96,106,-1,106,96,94,-1,106,94,92,-1,140,141,142,-1,142,141,143,-1,141,140,144,-1,141,144,145,-1,145,144,146,-1,145,146,147,-1,147,146,148,-1,147,148,149,-1,149,148,150,-1,149,150,151,-1,151,150,152,-1,151,152,153,-1,153,152,154,-1,153,154,155,-1,155,154,156,-1,155,156,157,-1,157,156,158,-1,157,158,159,-1,159,158,160,-1,159,160,161,-1,161,160,162,-1,161,162,163,-1,163,162,164,-1,163,164,165,-1,165,164,166,-1,165,166,167,-1,168,169,166,-1,166,169,167,-1,169,168,170,-1,169,170,171,-1,171,170,172,-1,171,172,173,-1,173,172,174,-1,173,174,175,-1,175,174,176,-1,175,176,177,-1,177,176,178,-1,177,178,179,-1,179,178,180,-1,179,180,181,-1,181,180,182,-1,181,182,183,-1,183,182,184,-1,183,184,185,-1,185,184,186,-1,185,186,187,-1,187,186,188,-1,187,188,189,-1,189,188,190,-1,189,190,191,-1,191,190,192,-1,191,192,193,-1,194,195,192,-1,192,195,193,-1,142,143,194,-1,194,143,195,-1,173,175,143,-1,189,191,143,-1,143,191,193,-1,143,193,195,-1,145,147,157,-1,161,163,141,-1,173,143,171,-1,163,165,141,-1,141,165,167,-1,141,167,143,-1,143,167,169,-1,143,169,171,-1,143,181,183,-1,147,149,157,-1,157,149,151,-1,157,151,155,-1,155,151,153,-1,145,157,141,-1,141,157,159,-1,141,159,161,-1,175,177,143,-1,143,177,179,-1,143,179,181,-1,183,185,143,-1,143,185,187,-1,143,187,189,-1,142,194,192,-1,192,190,142,-1,142,190,188,-1,142,188,186,-1,142,180,178,-1,172,170,142,-1,142,170,168,-1,142,168,140,-1,168,166,140,-1,140,166,164,-1,140,164,162,-1,154,152,150,-1,140,156,144,-1,144,156,146,-1,186,184,142,-1,142,184,182,-1,142,182,180,-1,178,176,142,-1,142,176,174,-1,142,174,172,-1,154,150,156,-1,156,150,148,-1,156,148,146,-1,162,160,140,-1,140,160,158,-1,140,158,156,-1,196,197,198,-1,198,197,199,-1,200,201,196,-1,196,201,197,-1,201,200,202,-1,201,202,203,-1,203,202,204,-1,203,204,205,-1,205,204,206,-1,205,206,207,-1,207,206,208,-1,207,208,209,-1,209,208,210,-1,209,210,211,-1,211,210,212,-1,211,212,213,-1,213,212,214,-1,213,214,215,-1,215,214,216,-1,215,216,217,-1,217,216,218,-1,217,218,219,-1,220,221,218,-1,218,221,219,-1,221,220,222,-1,221,222,223,-1,223,222,224,-1,223,224,225,-1,225,224,226,-1,225,226,227,-1,227,226,228,-1,227,228,229,-1,229,228,230,-1,229,230,231,-1,231,230,232,-1,231,232,233,-1,233,232,234,-1,233,234,235,-1,235,234,236,-1,235,236,237,-1,237,236,238,-1,237,238,239,-1,198,199,238,-1,238,199,239,-1,237,239,223,-1,199,197,239,-1,239,197,201,-1,219,201,203,-1,201,219,239,-1,239,219,221,-1,239,221,223,-1,203,205,219,-1,219,205,207,-1,219,207,209,-1,209,211,213,-1,213,215,209,-1,209,215,217,-1,209,217,219,-1,231,233,229,-1,229,233,227,-1,223,225,237,-1,237,225,227,-1,237,227,235,-1,235,227,233,-1,196,198,200,-1,200,198,238,-1,218,200,220,-1,220,200,238,-1,220,238,222,-1,222,238,236,-1,208,206,204,-1,218,216,200,-1,200,216,214,-1,200,214,212,-1,212,210,200,-1,200,210,208,-1,200,208,202,-1,202,208,204,-1,228,226,230,-1,230,226,232,-1,236,234,222,-1,222,234,232,-1,222,232,224,-1,224,232,226,-1,240,241,242,-1,242,241,243,-1,244,245,240,-1,240,245,241,-1,245,244,246,-1,245,246,247,-1,247,246,248,-1,247,248,249,-1,249,248,250,-1,249,250,251,-1,251,250,252,-1,251,252,253,-1,253,252,254,-1,253,254,255,-1,255,254,256,-1,255,256,257,-1,257,256,258,-1,257,258,259,-1,259,258,260,-1,259,260,261,-1,261,260,262,-1,261,262,263,-1,264,265,262,-1,262,265,263,-1,265,264,266,-1,265,266,267,-1,267,266,268,-1,267,268,269,-1,269,268,270,-1,269,270,271,-1,271,270,272,-1,271,272,273,-1,273,272,274,-1,273,274,275,-1,275,274,276,-1,275,276,277,-1,277,276,278,-1,277,278,279,-1,279,278,280,-1,279,280,281,-1,281,280,282,-1,281,282,283,-1,242,243,282,-1,282,243,283,-1,243,241,283,-1,283,241,245,-1,247,249,263,-1,249,251,263,-1,263,251,253,-1,263,253,255,-1,255,257,263,-1,263,257,259,-1,263,259,261,-1,267,281,265,-1,265,281,283,-1,265,283,263,-1,263,283,245,-1,263,245,247,-1,267,269,281,-1,281,269,271,-1,281,271,273,-1,273,275,281,-1,281,275,277,-1,281,277,279,-1,252,250,262,-1,262,250,248,-1,268,280,270,-1,270,280,278,-1,278,276,270,-1,270,276,274,-1,270,274,272,-1,242,282,264,-1,264,282,280,-1,264,280,266,-1,266,280,268,-1,262,260,258,-1,248,246,262,-1,262,246,244,-1,262,244,264,-1,264,244,240,-1,264,240,242,-1,258,256,262,-1,262,256,254,-1,262,254,252,-1,284,285,286,-1,286,285,287,-1,288,289,284,-1,284,289,285,-1,290,291,288,-1,288,291,289,-1,291,290,292,-1,291,292,293,-1,293,292,294,-1,293,294,295,-1,295,294,296,-1,295,296,297,-1,297,296,298,-1,297,298,299,-1,299,298,300,-1,299,300,301,-1,301,300,302,-1,301,302,303,-1,303,302,304,-1,303,304,305,-1,305,304,306,-1,305,306,307,-1,308,309,306,-1,306,309,307,-1,309,308,310,-1,309,310,311,-1,311,310,312,-1,311,312,313,-1,313,312,314,-1,313,314,315,-1,315,314,316,-1,315,316,317,-1,317,316,318,-1,317,318,319,-1,319,318,320,-1,319,320,321,-1,321,320,322,-1,321,322,323,-1,323,322,286,-1,323,286,287,-1,323,287,309,-1,309,287,285,-1,309,285,307,-1,301,303,305,-1,285,289,307,-1,307,289,291,-1,307,291,293,-1,293,295,307,-1,307,295,297,-1,307,297,305,-1,305,297,299,-1,305,299,301,-1,317,319,315,-1,315,319,313,-1,309,311,323,-1,323,311,313,-1,323,313,321,-1,321,313,319,-1,308,306,284,-1,300,298,296,-1,300,296,302,-1,288,284,290,-1,290,284,306,-1,290,306,292,-1,292,306,294,-1,284,286,308,-1,308,286,322,-1,308,322,310,-1,310,322,312,-1,294,306,296,-1,296,306,304,-1,296,304,302,-1,322,320,312,-1,312,320,318,-1,312,318,314,-1,314,318,316,-1,324,325,326,-1,326,325,327,-1,328,329,324,-1,324,329,325,-1,330,331,328,-1,328,331,329,-1,331,330,332,-1,331,332,333,-1,333,332,334,-1,333,334,335,-1,335,334,336,-1,335,336,337,-1,337,336,338,-1,337,338,339,-1,339,338,340,-1,339,340,341,-1,341,340,342,-1,341,342,343,-1,343,342,344,-1,343,344,345,-1,345,344,346,-1,345,346,347,-1,347,346,348,-1,347,348,349,-1,349,348,350,-1,349,350,351,-1,352,353,350,-1,350,353,351,-1,353,352,354,-1,353,354,355,-1,355,354,356,-1,355,356,357,-1,357,356,358,-1,357,358,359,-1,359,358,360,-1,359,360,361,-1,361,360,362,-1,361,362,363,-1,363,362,364,-1,363,364,365,-1,365,364,366,-1,365,366,367,-1,367,366,368,-1,367,368,369,-1,369,368,370,-1,369,370,371,-1,371,370,326,-1,371,326,327,-1,351,353,327,-1,327,353,355,-1,335,337,351,-1,351,337,339,-1,351,339,349,-1,349,339,347,-1,365,367,355,-1,325,329,327,-1,327,329,331,-1,327,331,351,-1,351,331,333,-1,351,333,335,-1,347,339,345,-1,345,339,341,-1,345,341,343,-1,355,357,359,-1,367,369,355,-1,355,369,371,-1,355,371,327,-1,359,361,355,-1,355,361,363,-1,355,363,365,-1,328,324,330,-1,330,324,326,-1,348,346,338,-1,346,344,338,-1,338,344,342,-1,338,342,340,-1,348,338,350,-1,350,338,336,-1,350,336,334,-1,334,332,350,-1,350,332,330,-1,350,330,352,-1,352,330,326,-1,352,326,354,-1,354,326,370,-1,354,370,368,-1,368,366,354,-1,354,366,364,-1,354,364,362,-1,362,360,354,-1,354,360,358,-1,354,358,356,-1,372,373,374,-1,374,373,375,-1,376,377,372,-1,372,377,373,-1,378,379,376,-1,376,379,377,-1,379,378,380,-1,379,380,381,-1,381,380,382,-1,381,382,383,-1,383,382,384,-1,383,384,385,-1,385,384,386,-1,385,386,387,-1,387,386,388,-1,387,388,389,-1,389,388,390,-1,389,390,391,-1,391,390,392,-1,391,392,393,-1,393,392,394,-1,393,394,395,-1,396,397,394,-1,394,397,395,-1,397,396,398,-1,397,398,399,-1,399,398,400,-1,399,400,401,-1,401,400,402,-1,401,402,403,-1,403,402,404,-1,403,404,405,-1,405,404,406,-1,405,406,407,-1,407,406,408,-1,407,408,409,-1,409,408,410,-1,409,410,411,-1,411,410,374,-1,411,374,375,-1,373,395,397,-1,373,377,395,-1,395,377,379,-1,395,379,381,-1,409,411,397,-1,397,411,375,-1,397,375,373,-1,401,403,405,-1,383,385,381,-1,381,385,387,-1,381,387,389,-1,389,391,381,-1,381,391,393,-1,381,393,395,-1,401,405,399,-1,399,405,397,-1,397,405,407,-1,397,407,409,-1,372,396,376,-1,376,396,394,-1,376,394,378,-1,372,374,396,-1,396,374,410,-1,396,410,408,-1,404,402,400,-1,390,388,380,-1,408,406,396,-1,396,406,404,-1,396,404,398,-1,398,404,400,-1,378,394,380,-1,380,394,392,-1,380,392,390,-1,388,386,380,-1,380,386,384,-1,380,384,382,-1,
        ]
    }
}
Shape{
    appearance Appearance {
        material  Material 	{
            diffuseColor 0.25098039215686274 0.25098039215686274 0.25098039215686274
            specularColor 0.12549019607843137 0.12549019607843137 0.12549019607843137
            ambientIntensity 0.251
            transparency 0.0
            shininess 0.5
        }
    }
    geometry IndexedFaceSet {
        ccw TRUE
        solid FALSE
        coord DEF co Coordinate {
            point [
                -0.2685 -0.1476 0.0197, -0.3591 -0.1476 0.0197, -0.3591 -0.0492 0.0197, 0.1523 -0.0018 0.0197, 0.1562 -0.0022 0.0197, 0.1438 -0.0313 0.0197, 0.1647 0.1315 0.0197, 0.1689 0.1382 0.0197, 0.2906 0.0157 0.0197, 0.1959 0.0021 0.0197, 0.1959 -0.0373 0.0197, 0.2914 0.0079 0.0197, 0.2941 0.0004 0.0197, 0.1476 -0.0024 0.0197, 0.1431 -0.0309 0.0197, 0.1431 -0.0043 0.0197, 0.1393 0.1184 0.0197, 0.1431 0.001 0.0197, 0.1592 -0.0033 0.0197, 0.1619 -0.0051 0.0197, 0.1643 -0.0077 0.0197, 0.1671 -0.018 0.0197, 0.1667 -0.0223 0.0197, 0.1657 -0.0257 0.0197, 0.1569 -0.0331 0.0197, 0.1532 -0.0335 0.0197, 0.1598 -0.032 0.0197, 0.1622 -0.0304 0.0197, 0.164 -0.0284 0.0197, 0.148 -0.0329 0.0197, 0.1907 0.0021 0.0197, 0.1449 0.119 0.0197, 0.1659 -0.0108 0.0197, 0.1669 -0.015 0.0197, 0.1524 0.1216 0.0197, 0.1591 0.1258 0.0197, 0.1724 0.2953 0.0197, 0.2906 0.2953 0.0197, 0.1724 0.1535 0.0197, 0.1716 0.1457 0.0197, 0.2983 -0.0063 0.0197, 0.3039 -0.012 0.0197, 0.3106 -0.0162 0.0197, 0.1626 -0.036 0.0197, 0.1658 -0.0339 0.0197, 0.1758 -0.0373 0.0197, 0.1687 -0.0308 0.0197, 0.1758 -0.033 0.0197, 0.1708 -0.0271 0.0197, 0.1907 -0.033 0.0197, 0.1703 -0.0083 0.0197, 0.168 -0.0046 0.0197, 0.1645 -0.0012 0.0197, 0.1607 0.0009 0.0197, 0.1563 0.0022 0.0197, 0.172 -0.0229 0.0197, 0.1724 -0.0184 0.0197, 0.1718 -0.0128 0.0197, 0.1524 0.0025 0.0197, 0.1477 0.0022 0.0197, 0.3181 -0.0188 0.0197, 0.326 -0.0197 0.0197, 0.3339 -0.0197 0.0197, 0.4284 -0.0375 0.0197, 0.3417 -0.0188 0.0197, 0.3492 -0.0162 0.0197, 0.356 -0.012 0.0197, 0.3616 -0.0063 0.0197, 0.3658 0.0004 0.0197, 0.1563 -0.0375 0.0197, 0.1588 -0.0373 0.0197, 0.3693 0.2953 0.0197, 0.4284 0.2953 0.0197, 0.3693 0.0157 0.0197, 0.3684 0.0079 0.0197, 0.3682 -0.1415 0.0197, 0.3651 -0.1339 0.0197, 0.3063 -0.1223 0.0197, 0.2998 -0.1273 0.0197, 0.1393 -0.1181 0.0197, 0.1393 -0.0375 0.0197, 0.1409 -0.1181 0.0197, 0.1491 -0.1192 0.0197, 0.4284 -0.2953 0.0197, 0.3693 -0.2953 0.0197, 0.3693 -0.1496 0.0197, 0.3601 -0.1273 0.0197, 0.3535 -0.1223 0.0197, 0.346 -0.1192 0.0197, 0.2916 -0.1415 0.0197, 0.1682 -0.1339 0.0197, 0.2948 -0.1339 0.0197, 0.1632 -0.1273 0.0197, 0.1567 -0.1223 0.0197, 0.1431 -0.0353 0.0197, 0.1473 -0.037 0.0197, 0.1513 -0.0375 0.0197, 0.1529 -0.0378 0.0197, 0.154 -0.0378 0.0197, 0.2906 -0.2953 0.0197, 0.1724 -0.2953 0.0197, 0.2906 -0.1496 0.0197, 0.1724 -0.1496 0.0197, 0.1714 -0.1415 0.0197, 0.3378 -0.1181 0.0197, 0.3221 -0.1181 0.0197, 0.3139 -0.1192 0.0197, 0.0721 -0.0373 0.0197, 0.0769 -0.0265 0.0197, 0.0792 -0.03 0.0197, 0.1066 -0.0373 0.0197, 0.1066 0.0021 0.0197, 0.1153 -0.0023 0.0197, 0.1153 0.0021 0.0197, -0.2276 -0.0256 0.0197, -0.2229 -0.0142 0.0197, 0.0365 -0.0373 0.0197, -0.1031 0.2953 0.0197, -0.2276 0.2224 0.0197, -0.2351 0.2322 0.0197, -0.2351 -0.0354 0.0197, 0.1162 -0.0195 0.0197, 0.1162 -0.0152 0.0197, 0.1302 -0.0152 0.0197, 0.1302 -0.0023 0.0197, 0.0824 -0.0331 0.0197, 0.0865 -0.0355 0.0197, 0.0911 -0.0369 0.0197, 0.0809 -0.0031 0.0197, 0.0781 -0.0062 0.0197, 0.0572 0.0021 0.0197, 0.0763 -0.0095 0.0197, 0.1014 0.1315 0.0197, -0.0244 0.0157 0.0197, 0.0972 0.1382 0.0197, 0.0946 0.1457 0.0197, 0.0752 -0.0134 0.0197, 0.0749 -0.0171 0.0197, 0.0755 -0.0224 0.0197, -0.0244 0.2953 0.0197, 0.0937 0.2953 0.0197, 0.0937 0.1535 0.0197, -0.052 -0.0188 0.0197, 0.0519 0.0021 0.0197, -0.0445 -0.0162 0.0197, -0.0377 -0.012 0.0197, -0.1023 0.0079 0.0197, -0.0996 0.0004 0.0197, 0.1291 0.1181 0.0197, 0.137 0.1181 0.0197, 0.1354 0.0021 0.0197, -0.0321 -0.0063 0.0197, -0.0279 0.0004 0.0197, -0.0253 0.0079 0.0197, 0.107 0.1258 0.0197, -0.1031 0.0157 0.0197, -0.2276 0.0256 0.0197, -0.2351 0.0354 0.0197, -0.2449 0.0429 0.0197, -0.2563 0.1492 0.0197, -0.2449 0.154 0.0197, -0.2449 0.2397 0.0197, -0.2563 0.2445 0.0197, -0.3591 0.2953 0.0197, -0.2685 0.2461 0.0197, -0.3591 0.2461 0.0197, 0.0959 -0.0373 0.0197, 0.0423 -0.0373 0.0197, -0.2379 -0.0375 0.0197, 0.1302 -0.0195 0.0197, 0.1302 -0.033 0.0197, 0.1143 -0.033 0.0197, 0.1143 -0.0373 0.0197, 0.1354 -0.0373 0.0197, 0.1213 0.119 0.0197, 0.0955 0.0021 0.0197, 0.1138 0.1216 0.0197, 0.0898 0.0015 0.0197, 0.0852 -0.0002 0.0197, 0.0809 -0.003 0.0197, -0.2213 -0.002 0.0197, -0.2213 0.002 0.0197, -0.2229 0.0142 0.0197, -0.0954 -0.0063 0.0197, -0.0898 -0.012 0.0197, -0.0831 -0.0162 0.0197, -0.2351 0.1615 0.0197, -0.2276 0.1713 0.0197, -0.2229 0.1827 0.0197, -0.2213 0.1949 0.0197, 0.0463 -0.0263 0.0197, 0.0625 -0.0263 0.0197, 0.0663 -0.0373 0.0197, -0.2213 0.1988 0.0197, -0.2229 0.211 0.0197, -0.0756 -0.0188 0.0197, -0.0677 -0.0197 0.0197, -0.0598 -0.0197 0.0197, -0.2685 0.0492 0.0197, -0.3591 0.0492 0.0197, -0.3591 0.1476 0.0197, -0.2563 0.0476 0.0197, -0.2685 0.1476 0.0197, -0.2449 -0.2397 0.0197, -0.2351 -0.2322 0.0197, -0.1031 -0.2953 0.0197, -0.2563 -0.2445 0.0197, 0.1252 -0.1181 0.0197, 0.117 -0.1192 0.0197, 0.1095 -0.1223 0.0197, 0.1029 -0.1273 0.0197, -0.0402 -0.1223 0.0197, 0.0948 -0.1415 0.0197, -0.0336 -0.1273 0.0197, -0.0286 -0.1339 0.0197, -0.1031 -0.1575 0.0197, -0.2685 -0.0492 0.0197, -0.2229 -0.1827 0.0197, -0.2276 -0.1713 0.0197, 0.0979 -0.1339 0.0197, -0.0477 -0.1192 0.0197, -0.2563 -0.0476 0.0197, -0.2449 -0.0429 0.0197, -0.0638 -0.1181 0.0197, -0.0559 -0.1181 0.0197, -0.2213 -0.1949 0.0197, 0.0937 -0.2953 0.0197, -0.0244 -0.2953 0.0197, 0.0937 -0.1496 0.0197, -0.0244 -0.1496 0.0197, -0.0255 -0.1415 0.0197, -0.2685 -0.2461 0.0197, -0.3591 -0.2953 0.0197, -0.3591 -0.2461 0.0197, -0.2276 -0.2224 0.0197, -0.2229 -0.211 0.0197, -0.2213 -0.1988 0.0197, -0.2351 -0.1615 0.0197, -0.2449 -0.154 0.0197, -0.2563 -0.1492 0.0197, 0.4284 0.2953 0.3543, 0.4284 -0.2953 0.3543, 0.0937 -0.2953 0.0591, 0.1724 -0.2953 0.0591, -0.3591 -0.2953 0.3543, -0.1031 -0.2953 0.0591, -0.0244 -0.2953 0.0591, 0.3693 -0.2953 0.0591, 0.2906 -0.2953 0.0591, -0.3591 0.1476 0.0591, -0.3591 -0.0492 0.0591, -0.3591 -0.1476 0.0591, -0.3591 0.0492 0.0591, -0.3591 0.2953 0.3543, -0.3591 0.2461 0.0591, -0.3591 -0.2461 0.0591, 0.2906 0.2953 0.0591, 0.1724 0.2953 0.0591, 0.0937 0.2953 0.0591, 0.3693 0.2953 0.0591, -0.1031 0.2953 0.0591, -0.0244 0.2953 0.0591, -0.2229 -0.2411 0.3543, -0.2148 -0.2306 0.3543, -0.2097 -0.2183 0.3543, -0.272 -0.2543 0.3543, -0.2842 -0.2492 0.3543, -0.2842 -0.1611 0.3543, -0.272 -0.1561 0.3543, -0.2334 -0.2492 0.3543, -0.2457 -0.2543 0.3543, -0.2588 -0.256 0.3543, -0.2948 -0.2411 0.3543, -0.3029 -0.2306 0.3543, -0.3079 -0.2183 0.3543, -0.2948 -0.1692 0.3543, -0.2229 -0.1692 0.3543, -0.2148 -0.1798 0.3543, -0.2097 -0.192 0.3543, -0.208 -0.2052 0.3543, -0.3097 -0.2052 0.3543, -0.3079 -0.192 0.3543, -0.3029 -0.1798 0.3543, -0.2588 -0.1543 0.3543, -0.2457 -0.1561 0.3543, -0.2334 -0.1611 0.3543
            ]
        }
        coordIndex [
            0,1,2,-1,3,4,5,-1,6,7,8,-1,9,8,10,-1,10,8,11,-1,10,11,12,-1,3,5,13,-1,13,5,14,-1,13,14,15,-1,15,14,16,-1,15,16,17,-1,4,18,5,-1,5,18,19,-1,5,19,20,-1,21,22,5,-1,5,22,23,-1,24,25,26,-1,26,25,27,-1,23,28,5,-1,5,28,27,-1,5,27,29,-1,29,27,25,-1,30,16,31,-1,20,32,5,-1,5,32,33,-1,5,33,21,-1,30,31,9,-1,9,31,34,-1,9,34,8,-1,8,34,35,-1,8,35,6,-1,36,37,38,-1,38,37,8,-1,38,8,39,-1,39,8,7,-1,12,40,10,-1,10,40,41,-1,10,41,42,-1,43,44,45,-1,45,44,46,-1,45,46,47,-1,47,46,48,-1,47,48,49,-1,50,51,30,-1,30,51,52,-1,30,52,16,-1,16,52,53,-1,16,53,54,-1,48,55,49,-1,49,55,56,-1,49,56,30,-1,30,56,57,-1,30,57,50,-1,54,58,16,-1,16,58,59,-1,16,59,17,-1,42,60,10,-1,10,60,61,-1,10,61,62,-1,63,64,65,-1,64,63,62,-1,65,66,63,-1,63,66,67,-1,63,67,68,-1,62,63,10,-1,10,63,69,-1,10,69,45,-1,45,69,70,-1,45,70,43,-1,71,72,73,-1,73,72,63,-1,73,63,74,-1,74,63,68,-1,75,76,63,-1,69,77,78,-1,79,80,81,-1,81,80,82,-1,83,84,63,-1,63,84,85,-1,63,85,75,-1,76,86,63,-1,63,86,87,-1,63,87,88,-1,89,90,91,-1,91,90,92,-1,91,92,80,-1,80,92,93,-1,80,93,82,-1,94,95,80,-1,80,95,96,-1,80,96,91,-1,91,96,97,-1,91,97,78,-1,78,97,98,-1,78,98,69,-1,99,100,101,-1,101,100,102,-1,101,102,89,-1,89,102,103,-1,89,103,90,-1,88,104,63,-1,63,104,105,-1,63,105,69,-1,69,105,106,-1,69,106,77,-1,107,108,109,-1,110,111,112,-1,112,111,113,-1,114,115,116,-1,117,118,119,-1,114,116,120,-1,121,110,122,-1,122,110,112,-1,122,112,123,-1,123,112,124,-1,109,125,107,-1,107,125,126,-1,107,126,127,-1,128,129,130,-1,130,129,131,-1,132,133,134,-1,134,133,135,-1,131,136,130,-1,130,136,137,-1,130,137,107,-1,107,137,138,-1,107,138,108,-1,139,140,133,-1,133,140,141,-1,133,141,135,-1,116,142,143,-1,143,142,144,-1,143,144,145,-1,146,147,115,-1,148,149,150,-1,150,149,16,-1,150,16,80,-1,80,16,14,-1,80,14,94,-1,145,151,143,-1,143,151,152,-1,143,152,153,-1,153,133,143,-1,143,133,132,-1,143,132,130,-1,130,132,154,-1,155,156,117,-1,117,156,157,-1,117,157,158,-1,159,160,158,-1,119,161,117,-1,117,161,162,-1,117,162,163,-1,163,162,164,-1,163,164,165,-1,80,166,110,-1,167,80,116,-1,116,80,168,-1,116,168,120,-1,169,170,121,-1,121,170,171,-1,121,171,110,-1,110,171,172,-1,110,172,80,-1,80,172,173,-1,80,173,150,-1,150,113,148,-1,148,113,111,-1,148,111,174,-1,174,111,175,-1,174,175,176,-1,176,175,177,-1,176,177,154,-1,154,177,178,-1,154,178,130,-1,130,178,179,-1,130,179,128,-1,115,180,146,-1,146,180,181,-1,146,181,155,-1,155,181,182,-1,155,182,156,-1,147,183,115,-1,115,183,184,-1,115,184,185,-1,160,186,158,-1,158,186,187,-1,158,187,117,-1,117,187,188,-1,117,188,189,-1,190,191,167,-1,167,191,192,-1,167,192,80,-1,80,192,107,-1,80,107,166,-1,166,107,127,-1,189,193,117,-1,117,193,194,-1,117,194,118,-1,185,195,115,-1,115,195,196,-1,115,196,116,-1,116,196,197,-1,116,197,142,-1,198,199,200,-1,158,201,159,-1,159,201,198,-1,159,198,202,-1,202,198,200,-1,203,204,205,-1,203,205,206,-1,79,207,80,-1,80,207,208,-1,80,208,168,-1,168,208,209,-1,168,209,210,-1,211,212,213,-1,213,212,214,-1,215,2,216,-1,217,218,215,-1,210,219,168,-1,168,219,212,-1,168,212,220,-1,220,212,211,-1,216,221,215,-1,215,221,222,-1,215,222,223,-1,223,222,168,-1,223,168,224,-1,224,168,220,-1,217,215,225,-1,226,227,228,-1,228,227,229,-1,228,229,212,-1,212,229,230,-1,212,230,214,-1,206,205,231,-1,231,205,232,-1,231,232,233,-1,204,234,205,-1,205,234,235,-1,205,235,215,-1,215,235,236,-1,215,236,225,-1,218,237,215,-1,215,237,238,-1,215,238,2,-1,2,238,239,-1,2,239,0,-1,72,240,63,-1,63,240,241,-1,63,241,83,-1,242,243,241,-1,232,205,244,-1,244,205,245,-1,244,245,246,-1,227,226,246,-1,246,226,242,-1,246,242,244,-1,244,242,241,-1,84,83,247,-1,247,83,241,-1,247,241,248,-1,248,241,243,-1,248,243,99,-1,99,243,100,-1,249,200,199,-1,2,1,250,-1,250,1,251,-1,199,252,249,-1,249,252,253,-1,249,253,254,-1,254,253,163,-1,254,163,165,-1,233,232,255,-1,255,232,244,-1,255,244,251,-1,251,244,253,-1,251,253,250,-1,250,253,252,-1,256,37,36,-1,240,257,253,-1,253,257,258,-1,36,257,256,-1,256,257,240,-1,256,240,259,-1,259,240,72,-1,259,72,71,-1,117,163,260,-1,260,163,253,-1,260,253,261,-1,261,253,258,-1,261,258,139,-1,139,258,140,-1,262,241,263,-1,263,241,264,-1,265,266,244,-1,267,268,253,-1,262,269,241,-1,241,269,270,-1,241,270,244,-1,244,270,271,-1,244,271,265,-1,266,272,244,-1,244,272,273,-1,244,273,274,-1,267,253,275,-1,276,277,240,-1,240,277,278,-1,240,278,241,-1,241,278,279,-1,241,279,264,-1,274,280,244,-1,244,280,281,-1,244,281,253,-1,253,281,282,-1,253,282,275,-1,268,283,253,-1,253,283,284,-1,253,284,240,-1,240,284,285,-1,240,285,276,-1,
        ]
    }
}
Shape{
    appearance Appearance {
        material  Material 	{
            diffuseColor 1.0 1.0 1.0
            specularColor 0.5019607843137255 0.5019607843137255 0.5019607843137255
            ambientIntensity 1.0
            transparency 0.0
            shininess 0.5
        }
    }
    geometry IndexedFaceSet {
        ccw TRUE
        solid FALSE
        coord DEF co Coordinate {
            point [
                -0.3591 0.1476 0.0591, -0.2685 0.1476 0.0591, -0.3591 0.1476 0.0197, -0.2685 0.1476 0.0197, -0.2213 0.1949 0.0591, -0.2213 0.1949 0.0197, -0.2229 0.1827 0.0591, -0.2229 0.1827 0.0197, -0.2276 0.1713 0.0591, -0.2276 0.1713 0.0197, -0.2351 0.1615 0.0591, -0.2351 0.1615 0.0197, -0.2449 0.154 0.0591, -0.2449 0.154 0.0197, -0.2563 0.1492 0.0591, -0.2563 0.1492 0.0197
            ]
        }
        coordIndex [
            0,1,2,-1,2,1,3,-1,4,5,6,-1,6,5,7,-1,6,7,8,-1,8,7,9,-1,8,9,10,-1,10,9,11,-1,10,11,12,-1,12,11,13,-1,12,13,14,-1,14,13,15,-1,14,15,1,-1,1,15,3,-1,
        ]
    }
}
Shape{
    appearance Appearance {
        material  Material 	{
            diffuseColor 0.792156862745098 0.8196078431372549 0.9333333333333333
            specularColor 0.396078431372549 0.4117647058823529 0.4666666666666667
            ambientIntensity 0.8244
            transparency 0.0
            shininess 0.5
        }
    }
    geometry IndexedFaceSet {
        ccw TRUE
        solid FALSE
        coord DEF co Coordinate {
            point [
                -0.2213 0.1949 0.0591, -0.2213 0.1988 0.0591, -0.2213 0.1949 0.0197, -0.2213 0.1988 0.0197, -0.2685 0.2461 0.0591, -0.2685 0.2461 0.0197, -0.2563 0.2445 0.0591, -0.2563 0.2445 0.0197, -0.2449 0.2397 0.0591, -0.2449 0.2397 0.0197, -0.2351 0.2322 0.0591, -0.2351 0.2322 0.0197, -0.2276 0.2224 0.0591, -0.2276 0.2224 0.0197, -0.2229 0.211 0.0591, -0.2229 0.211 0.0197, -0.3591 0.2461 0.0591, -0.3591 0.2461 0.0197, -0.2685 0.1476 0.0591, -0.3591 0.1476 0.0591, -0.2276 0.1713 0.0591, -0.2351 0.1615 0.0591, -0.2229 0.1827 0.0591, -0.2449 0.154 0.0591, -0.2563 0.1492 0.0591, 0.3693 -0.2953 0.0591, 0.3693 -0.1496 0.0591, 0.3693 -0.2953 0.0197, 0.3693 -0.1496 0.0197, 0.3378 -0.1181 0.0591, 0.3378 -0.1181 0.0197, 0.346 -0.1192 0.0591, 0.346 -0.1192 0.0197, 0.3535 -0.1223 0.0591, 0.3535 -0.1223 0.0197, 0.3601 -0.1273 0.0591, 0.3601 -0.1273 0.0197, 0.3651 -0.1339 0.0591, 0.3651 -0.1339 0.0197, 0.3682 -0.1415 0.0591, 0.3682 -0.1415 0.0197, 0.3221 -0.1181 0.0591, 0.3221 -0.1181 0.0197, 0.2906 -0.1496 0.0591, 0.2906 -0.1496 0.0197, 0.2916 -0.1415 0.0591, 0.2916 -0.1415 0.0197, 0.2948 -0.1339 0.0591, 0.2948 -0.1339 0.0197, 0.2998 -0.1273 0.0591, 0.2998 -0.1273 0.0197, 0.3063 -0.1223 0.0591, 0.3063 -0.1223 0.0197, 0.3139 -0.1192 0.0591, 0.3139 -0.1192 0.0197, 0.2906 -0.2953 0.0591, 0.2906 -0.2953 0.0197, -0.1031 0.2953 0.0591, -0.1031 0.0157 0.0591, -0.1031 0.2953 0.0197, -0.1031 0.0157 0.0197, -0.0677 -0.0197 0.0591, -0.0677 -0.0197 0.0197, -0.0756 -0.0188 0.0591, -0.0756 -0.0188 0.0197, -0.0831 -0.0162 0.0591, -0.0831 -0.0162 0.0197, -0.0898 -0.012 0.0591, -0.0898 -0.012 0.0197, -0.0954 -0.0063 0.0591, -0.0954 -0.0063 0.0197, -0.0996 0.0004 0.0591, -0.0996 0.0004 0.0197, -0.1023 0.0079 0.0591, -0.1023 0.0079 0.0197, -0.0598 -0.0197 0.0591, -0.0598 -0.0197 0.0197, -0.0244 0.0157 0.0591, -0.0244 0.0157 0.0197, -0.0253 0.0079 0.0591, -0.0253 0.0079 0.0197, -0.0279 0.0004 0.0591, -0.0279 0.0004 0.0197, -0.0321 -0.0063 0.0591, -0.0321 -0.0063 0.0197, -0.0377 -0.012 0.0591, -0.0377 -0.012 0.0197, -0.0445 -0.0162 0.0591, -0.0445 -0.0162 0.0197, -0.052 -0.0188 0.0591, -0.052 -0.0188 0.0197, -0.0244 0.2953 0.0591, -0.0244 0.2953 0.0197, 0.0937 0.2953 0.0591, 0.0937 0.1535 0.0591, 0.0937 0.2953 0.0197, 0.0937 0.1535 0.0197, 0.1291 0.1181 0.0591, 0.1291 0.1181 0.0197, 0.1213 0.119 0.0591, 0.1213 0.119 0.0197, 0.1138 0.1216 0.0591, 0.1138 0.1216 0.0197, 0.107 0.1258 0.0591, 0.107 0.1258 0.0197, 0.1014 0.1315 0.0591, 0.1014 0.1315 0.0197, 0.0972 0.1382 0.0591, 0.0972 0.1382 0.0197, 0.0946 0.1457 0.0591, 0.0946 0.1457 0.0197, 0.137 0.1181 0.0591, 0.137 0.1181 0.0197, 0.1724 0.1535 0.0591, 0.1724 0.1535 0.0197, 0.1716 0.1457 0.0591, 0.1716 0.1457 0.0197, 0.1689 0.1382 0.0591, 0.1689 0.1382 0.0197, 0.1647 0.1315 0.0591, 0.1647 0.1315 0.0197, 0.1591 0.1258 0.0591, 0.1591 0.1258 0.0197, 0.1524 0.1216 0.0591, 0.1524 0.1216 0.0197, 0.1449 0.119 0.0591, 0.1393 0.1184 0.0197, 0.1449 0.119 0.0197, 0.1724 0.2953 0.0591, 0.1724 0.2953 0.0197, 0.2906 0.2953 0.0591, 0.2906 0.0157 0.0591, 0.2906 0.2953 0.0197, 0.2906 0.0157 0.0197, 0.326 -0.0197 0.0591, 0.326 -0.0197 0.0197, 0.3181 -0.0188 0.0591, 0.3181 -0.0188 0.0197, 0.3106 -0.0162 0.0591, 0.3106 -0.0162 0.0197, 0.3039 -0.012 0.0591, 0.3039 -0.012 0.0197, 0.2983 -0.0063 0.0591, 0.2983 -0.0063 0.0197, 0.2941 0.0004 0.0591, 0.2941 0.0004 0.0197, 0.2914 0.0079 0.0591, 0.2914 0.0079 0.0197, 0.3339 -0.0197 0.0591, 0.3339 -0.0197 0.0197, 0.3693 0.0157 0.0591, 0.3693 0.0157 0.0197, 0.3684 0.0079 0.0591, 0.3684 0.0079 0.0197, 0.3658 0.0004 0.0591, 0.3658 0.0004 0.0197, 0.3616 -0.0063 0.0591, 0.3616 -0.0063 0.0197, 0.356 -0.012 0.0591, 0.356 -0.012 0.0197, 0.3492 -0.0162 0.0591, 0.3492 -0.0162 0.0197, 0.3417 -0.0188 0.0591, 0.3417 -0.0188 0.0197, 0.3693 0.2953 0.0591, 0.3693 0.2953 0.0197, -0.1031 -0.1575 0.0591, -0.1031 -0.2953 0.0591, -0.1031 -0.1575 0.0197, -0.1031 -0.2953 0.0197, -0.0244 -0.2953 0.0591, -0.0244 -0.1496 0.0591, -0.0244 -0.2953 0.0197, -0.0244 -0.1496 0.0197, -0.0559 -0.1181 0.0591, -0.0559 -0.1181 0.0197, -0.0477 -0.1192 0.0591, -0.0477 -0.1192 0.0197, -0.0402 -0.1223 0.0591, -0.0402 -0.1223 0.0197, -0.0336 -0.1273 0.0591, -0.0336 -0.1273 0.0197, -0.0286 -0.1339 0.0591, -0.0286 -0.1339 0.0197, -0.0255 -0.1415 0.0591, -0.0255 -0.1415 0.0197, -0.0638 -0.1181 0.0591, -0.0638 -0.1181 0.0197, -0.2685 0.0492 0.0591, -0.3591 0.0492 0.0591, -0.2685 0.0492 0.0197, -0.3591 0.0492 0.0197, -0.3591 -0.0492 0.0591, -0.2685 -0.0492 0.0591, -0.3591 -0.0492 0.0197, -0.2685 -0.0492 0.0197, -0.2213 -0.002 0.0591, -0.2213 -0.002 0.0197, -0.2229 -0.0142 0.0591, -0.2229 -0.0142 0.0197, -0.2276 -0.0256 0.0591, -0.2276 -0.0256 0.0197, -0.2351 -0.0354 0.0591, -0.2351 -0.0354 0.0197, -0.2379 -0.0375 0.0197, -0.2449 -0.0429 0.0591, -0.2449 -0.0429 0.0197, -0.2563 -0.0476 0.0591, -0.2563 -0.0476 0.0197, -0.2213 0.002 0.0591, -0.2213 0.002 0.0197, -0.2563 0.0476 0.0591, -0.2563 0.0476 0.0197, -0.2449 0.0429 0.0591, -0.2449 0.0429 0.0197, -0.2351 0.0354 0.0591, -0.2351 0.0354 0.0197, -0.2276 0.0256 0.0591, -0.2276 0.0256 0.0197, -0.2229 0.0142 0.0591, -0.2229 0.0142 0.0197, -0.2685 -0.1476 0.0591, -0.3591 -0.1476 0.0591, -0.2685 -0.1476 0.0197, -0.3591 -0.1476 0.0197, -0.3591 -0.2461 0.0591, -0.2685 -0.2461 0.0591, -0.3591 -0.2461 0.0197, -0.2685 -0.2461 0.0197, -0.2213 -0.1988 0.0591, -0.2213 -0.1988 0.0197, -0.2229 -0.211 0.0591, -0.2229 -0.211 0.0197, -0.2276 -0.2224 0.0591, -0.2276 -0.2224 0.0197, -0.2351 -0.2322 0.0591, -0.2351 -0.2322 0.0197, -0.2449 -0.2397 0.0591, -0.2449 -0.2397 0.0197, -0.2563 -0.2445 0.0591, -0.2563 -0.2445 0.0197, -0.2213 -0.1949 0.0591, -0.2213 -0.1949 0.0197, -0.2563 -0.1492 0.0591, -0.2563 -0.1492 0.0197, -0.2449 -0.154 0.0591, -0.2449 -0.154 0.0197, -0.2351 -0.1615 0.0591, -0.2351 -0.1615 0.0197, -0.2276 -0.1713 0.0591, -0.2276 -0.1713 0.0197, -0.2229 -0.1827 0.0591, -0.2229 -0.1827 0.0197, 0.1724 -0.2953 0.0591, 0.1724 -0.1496 0.0591, 0.1724 -0.2953 0.0197, 0.1724 -0.1496 0.0197, 0.1409 -0.1181 0.0591, 0.1409 -0.1181 0.0197, 0.1491 -0.1192 0.0591, 0.1491 -0.1192 0.0197, 0.1567 -0.1223 0.0591, 0.1567 -0.1223 0.0197, 0.1632 -0.1273 0.0591, 0.1632 -0.1273 0.0197, 0.1682 -0.1339 0.0591, 0.1682 -0.1339 0.0197, 0.1714 -0.1415 0.0591, 0.1714 -0.1415 0.0197, 0.1393 -0.1181 0.0197, 0.1252 -0.1181 0.0591, 0.1252 -0.1181 0.0197, 0.0937 -0.1496 0.0591, 0.0937 -0.1496 0.0197, 0.0948 -0.1415 0.0591, 0.0948 -0.1415 0.0197, 0.0979 -0.1339 0.0591, 0.0979 -0.1339 0.0197, 0.1029 -0.1273 0.0591, 0.1029 -0.1273 0.0197, 0.1095 -0.1223 0.0591, 0.1095 -0.1223 0.0197, 0.117 -0.1192 0.0591, 0.117 -0.1192 0.0197, 0.0937 -0.2953 0.0591, 0.0937 -0.2953 0.0197
            ]
        }
        coordIndex [
            0,1,2,-1,2,1,3,-1,4,5,6,-1,6,5,7,-1,6,7,8,-1,8,7,9,-1,8,9,10,-1,10,9,11,-1,10,11,12,-1,12,11,13,-1,12,13,14,-1,14,13,15,-1,14,15,1,-1,1,15,3,-1,4,16,5,-1,5,16,17,-1,18,19,16,-1,20,21,16,-1,10,12,14,-1,20,16,22,-1,21,23,16,-1,16,23,24,-1,16,24,18,-1,22,16,0,-1,0,16,4,-1,0,4,1,-1,1,4,6,-1,1,6,14,-1,14,6,8,-1,14,8,10,-1,25,26,27,-1,27,26,28,-1,29,30,31,-1,31,30,32,-1,31,32,33,-1,33,32,34,-1,33,34,35,-1,35,34,36,-1,35,36,37,-1,37,36,38,-1,37,38,39,-1,39,38,40,-1,39,40,26,-1,26,40,28,-1,29,41,30,-1,30,41,42,-1,43,44,45,-1,45,44,46,-1,45,46,47,-1,47,46,48,-1,47,48,49,-1,49,48,50,-1,49,50,51,-1,51,50,52,-1,51,52,53,-1,53,52,54,-1,53,54,41,-1,41,54,42,-1,43,55,44,-1,44,55,56,-1,25,41,29,-1,51,43,49,-1,49,43,45,-1,49,45,47,-1,25,55,41,-1,41,55,43,-1,41,43,53,-1,53,43,51,-1,31,39,29,-1,29,39,26,-1,29,26,25,-1,31,33,39,-1,39,33,35,-1,39,35,37,-1,57,58,59,-1,59,58,60,-1,61,62,63,-1,63,62,64,-1,63,64,65,-1,65,64,66,-1,65,66,67,-1,67,66,68,-1,67,68,69,-1,69,68,70,-1,69,70,71,-1,71,70,72,-1,71,72,73,-1,73,72,74,-1,73,74,58,-1,58,74,60,-1,61,75,62,-1,62,75,76,-1,77,78,79,-1,79,78,80,-1,79,80,81,-1,81,80,82,-1,81,82,83,-1,83,82,84,-1,83,84,85,-1,85,84,86,-1,85,86,87,-1,87,86,88,-1,87,88,89,-1,89,88,90,-1,89,90,75,-1,75,90,76,-1,77,91,78,-1,78,91,92,-1,73,58,61,-1,61,58,75,-1,57,91,58,-1,58,91,77,-1,58,77,79,-1,65,67,69,-1,79,81,58,-1,58,81,83,-1,58,83,85,-1,65,69,63,-1,85,87,58,-1,58,87,89,-1,58,89,75,-1,63,69,61,-1,61,69,71,-1,61,71,73,-1,93,94,95,-1,95,94,96,-1,97,98,99,-1,99,98,100,-1,99,100,101,-1,101,100,102,-1,101,102,103,-1,103,102,104,-1,103,104,105,-1,105,104,106,-1,105,106,107,-1,107,106,108,-1,107,108,109,-1,109,108,110,-1,109,110,94,-1,94,110,96,-1,97,111,98,-1,98,111,112,-1,113,114,115,-1,115,114,116,-1,115,116,117,-1,117,116,118,-1,117,118,119,-1,119,118,120,-1,119,120,121,-1,121,120,122,-1,121,122,123,-1,123,122,124,-1,123,124,125,-1,112,111,126,-1,126,111,125,-1,126,125,127,-1,127,125,124,-1,113,128,114,-1,114,128,129,-1,111,113,115,-1,111,97,113,-1,113,97,99,-1,113,99,101,-1,101,103,113,-1,113,103,105,-1,113,105,107,-1,93,128,94,-1,94,128,113,-1,94,113,109,-1,109,113,107,-1,115,117,111,-1,111,117,119,-1,111,119,125,-1,125,119,121,-1,125,121,123,-1,130,131,132,-1,132,131,133,-1,134,135,136,-1,136,135,137,-1,136,137,138,-1,138,137,139,-1,138,139,140,-1,140,139,141,-1,140,141,142,-1,142,141,143,-1,142,143,144,-1,144,143,145,-1,144,145,146,-1,146,145,147,-1,146,147,131,-1,131,147,133,-1,134,148,135,-1,135,148,149,-1,150,151,152,-1,152,151,153,-1,152,153,154,-1,154,153,155,-1,154,155,156,-1,156,155,157,-1,156,157,158,-1,158,157,159,-1,158,159,160,-1,160,159,161,-1,160,161,162,-1,162,161,163,-1,162,163,148,-1,148,163,149,-1,150,164,151,-1,151,164,165,-1,136,138,150,-1,152,148,150,-1,150,148,134,-1,150,134,136,-1,138,140,150,-1,150,140,142,-1,150,142,144,-1,156,158,160,-1,130,164,131,-1,131,164,150,-1,131,150,146,-1,146,150,144,-1,152,154,148,-1,148,154,156,-1,148,156,162,-1,162,156,160,-1,166,167,168,-1,168,167,169,-1,170,171,172,-1,172,171,173,-1,174,175,176,-1,176,175,177,-1,176,177,178,-1,178,177,179,-1,178,179,180,-1,180,179,181,-1,180,181,182,-1,182,181,183,-1,182,183,184,-1,184,183,185,-1,184,185,171,-1,171,185,173,-1,174,186,175,-1,175,186,187,-1,186,166,187,-1,187,166,168,-1,171,170,167,-1,176,178,180,-1,184,171,174,-1,174,171,167,-1,174,167,186,-1,186,167,166,-1,176,180,174,-1,174,180,182,-1,174,182,184,-1,188,189,190,-1,190,189,191,-1,192,193,194,-1,194,193,195,-1,196,197,198,-1,198,197,199,-1,198,199,200,-1,200,199,201,-1,200,201,202,-1,201,203,202,-1,202,203,204,-1,202,204,205,-1,205,204,206,-1,205,206,207,-1,207,206,208,-1,207,208,193,-1,193,208,195,-1,196,209,197,-1,197,209,210,-1,188,190,211,-1,211,190,212,-1,211,212,213,-1,213,212,214,-1,213,214,215,-1,215,214,216,-1,215,216,217,-1,217,216,218,-1,217,218,219,-1,219,218,220,-1,219,220,209,-1,209,220,210,-1,189,188,192,-1,192,188,211,-1,211,213,192,-1,192,213,215,-1,192,215,217,-1,217,219,192,-1,192,219,209,-1,192,209,196,-1,198,207,196,-1,196,207,193,-1,196,193,192,-1,198,200,207,-1,207,200,202,-1,207,202,205,-1,221,222,223,-1,223,222,224,-1,225,226,227,-1,227,226,228,-1,229,230,231,-1,231,230,232,-1,231,232,233,-1,233,232,234,-1,233,234,235,-1,235,234,236,-1,235,236,237,-1,237,236,238,-1,237,238,239,-1,239,238,240,-1,239,240,226,-1,226,240,228,-1,229,241,230,-1,230,241,242,-1,221,223,243,-1,243,223,244,-1,243,244,245,-1,245,244,246,-1,245,246,247,-1,247,246,248,-1,247,248,249,-1,249,248,250,-1,249,250,251,-1,251,250,252,-1,251,252,241,-1,241,252,242,-1,225,222,221,-1,239,226,229,-1,229,226,225,-1,229,225,241,-1,221,243,225,-1,225,243,245,-1,225,245,247,-1,247,249,225,-1,225,249,251,-1,225,251,241,-1,229,231,239,-1,239,231,233,-1,239,233,237,-1,237,233,235,-1,253,254,255,-1,255,254,256,-1,257,258,259,-1,259,258,260,-1,259,260,261,-1,261,260,262,-1,261,262,263,-1,263,262,264,-1,263,264,265,-1,265,264,266,-1,265,266,267,-1,267,266,268,-1,267,268,254,-1,254,268,256,-1,258,257,269,-1,269,257,270,-1,269,270,271,-1,272,273,274,-1,274,273,275,-1,274,275,276,-1,276,275,277,-1,276,277,278,-1,278,277,279,-1,278,279,280,-1,280,279,281,-1,280,281,282,-1,282,281,283,-1,282,283,270,-1,270,283,271,-1,272,284,273,-1,273,284,285,-1,253,284,254,-1,254,284,272,-1,259,261,257,-1,257,261,263,-1,257,263,265,-1,265,267,257,-1,257,267,254,-1,257,254,270,-1,270,254,272,-1,270,272,282,-1,282,272,274,-1,274,276,282,-1,282,276,278,-1,282,278,280,-1,
        ]
    }
}
Shape{
    appearance Appearance {
        material  Material 	{
            diffuseColor 0.7529411764705882 0.7529411764705882 0.7529411764705882
            specularColor 0.3764705882352941 0.3764705882352941 0.3764705882352941
            ambientIntensity 0.7529
            transparency 0.0
            shininess 0.5
        }
    }
    geometry IndexedFaceSet {
        ccw TRUE
        solid FALSE
        coord DEF co Coordinate {
            point [
                -0.208 -0.2052 0.3504, -0.208 -0.2052 0.3543, -0.2097 -0.192 0.3504, -0.2097 -0.192 0.3543, -0.2148 -0.1798 0.3504, -0.2148 -0.1798 0.3543, -0.2229 -0.1692 0.3504, -0.2229 -0.1692 0.3543, -0.2334 -0.1611 0.3504, -0.2334 -0.1611 0.3543, -0.2457 -0.1561 0.3504, -0.2457 -0.1561 0.3543, -0.2588 -0.1543 0.3504, -0.2588 -0.1543 0.3543, -0.272 -0.1561 0.3504, -0.272 -0.1561 0.3543, -0.2842 -0.1611 0.3504, -0.2842 -0.1611 0.3543, -0.2948 -0.1692 0.3504, -0.2948 -0.1692 0.3543, -0.3029 -0.1798 0.3504, -0.3029 -0.1798 0.3543, -0.3079 -0.192 0.3504, -0.3079 -0.192 0.3543, -0.3097 -0.2052 0.3504, -0.3097 -0.2052 0.3543, -0.3079 -0.2183 0.3504, -0.3079 -0.2183 0.3543, -0.3029 -0.2306 0.3504, -0.3029 -0.2306 0.3543, -0.2948 -0.2411 0.3504, -0.2948 -0.2411 0.3543, -0.2842 -0.2492 0.3504, -0.2842 -0.2492 0.3543, -0.272 -0.2543 0.3504, -0.272 -0.2543 0.3543, -0.2588 -0.256 0.3504, -0.2588 -0.256 0.3543, -0.2457 -0.2543 0.3504, -0.2457 -0.2543 0.3543, -0.2334 -0.2492 0.3504, -0.2334 -0.2492 0.3543, -0.2229 -0.2411 0.3504, -0.2229 -0.2411 0.3543, -0.2148 -0.2306 0.3504, -0.2148 -0.2306 0.3543, -0.2097 -0.2183 0.3504, -0.2097 -0.2183 0.3543, -0.2588 -0.2052 0.3504
            ]
        }
        coordIndex [
            0,1,2,-1,2,1,3,-1,2,3,4,-1,4,3,5,-1,4,5,6,-1,6,5,7,-1,6,7,8,-1,8,7,9,-1,8,9,10,-1,10,9,11,-1,10,11,12,-1,12,11,13,-1,12,13,14,-1,14,13,15,-1,14,15,16,-1,16,15,17,-1,16,17,18,-1,18,17,19,-1,18,19,20,-1,20,19,21,-1,20,21,22,-1,22,21,23,-1,22,23,24,-1,24,23,25,-1,24,25,26,-1,26,25,27,-1,26,27,28,-1,28,27,29,-1,28,29,30,-1,30,29,31,-1,30,31,32,-1,32,31,33,-1,32,33,34,-1,34,33,35,-1,34,35,36,-1,36,35,37,-1,36,37,38,-1,38,37,39,-1,38,39,40,-1,40,39,41,-1,40,41,42,-1,42,41,43,-1,42,43,44,-1,44,43,45,-1,44,45,46,-1,46,45,47,-1,46,47,0,-1,0,47,1,-1,44,46,48,-1,48,46,0,-1,48,0,2,-1,38,40,48,-1,48,40,42,-1,48,42,44,-1,32,34,48,-1,48,34,36,-1,48,36,38,-1,26,28,48,-1,48,28,30,-1,48,30,32,-1,20,22,48,-1,48,22,24,-1,48,24,26,-1,14,16,48,-1,48,16,18,-1,48,18,20,-1,8,10,48,-1,48,10,12,-1,48,12,14,-1,2,4,48,-1,48,4,6,-1,48,6,8,-1,
        ]
    }
}
Shape{
    appearance Appearance {
        material  Material 	{
            diffuseColor 0.5019607843137255 0.5019607843137255 0.5019607843137255
            specularColor 0.25098039215686274 0.25098039215686274 0.25098039215686274
            ambientIntensity 0.502
            transparency 0.0
            shininess 0.5
        }
    }
    geometry IndexedFaceSet {
        ccw TRUE
        solid FALSE
        coord DEF co Coordinate {
            point [
                0.0519 0.0021 0.0236, 0.0365 -0.0373 0.0236, 0.0519 0.0021 0.0197, 0.0365 -0.0373 0.0197, 0.0423 -0.0373 0.0236, 0.0423 -0.0373 0.0197, 0.0463 -0.0263 0.0236, 0.0463 -0.0263 0.0197, 0.0625 -0.0263 0.0236, 0.0625 -0.0263 0.0197, 0.0663 -0.0373 0.0236, 0.0663 -0.0373 0.0197, 0.0721 -0.0373 0.0236, 0.0721 -0.0373 0.0197, 0.0572 0.0021 0.0236, 0.0572 0.0021 0.0197, 0.0612 -0.0219 0.0236, 0.0481 -0.0219 0.0236, 0.0553 -0.0055 0.0236, 0.055 -0.0041 0.0236, 0.0547 -0.0027 0.0236, 0.0546 -0.0027 0.0236, 0.0543 -0.0041 0.0236, 0.054 -0.0055 0.0236, 0.0612 -0.0219 0.0197, 0.0481 -0.0219 0.0197, 0.0553 -0.0055 0.0197, 0.055 -0.0041 0.0197, 0.0547 -0.0027 0.0197, 0.0546 -0.0027 0.0197, 0.0543 -0.0041 0.0197, 0.054 -0.0055 0.0197, 0.0959 -0.0373 0.0236, 0.1066 -0.0373 0.0236, 0.0959 -0.0373 0.0197, 0.1066 -0.0373 0.0197, 0.1066 0.0021 0.0236, 0.1066 0.0021 0.0197, 0.0955 0.0021 0.0236, 0.0955 0.0021 0.0197, 0.0749 -0.0171 0.0236, 0.0749 -0.0171 0.0197, 0.0752 -0.0134 0.0197, 0.0752 -0.0134 0.0236, 0.0763 -0.0095 0.0197, 0.0763 -0.0095 0.0236, 0.0781 -0.0062 0.0197, 0.0781 -0.0062 0.0236, 0.0809 -0.0031 0.0197, 0.0809 -0.0031 0.0236, 0.0809 -0.003 0.0197, 0.0809 -0.003 0.0236, 0.0852 -0.0002 0.0197, 0.0852 -0.0002 0.0236, 0.0898 0.0015 0.0197, 0.0898 0.0015 0.0236, 0.0911 -0.0369 0.0197, 0.0911 -0.0369 0.0236, 0.0865 -0.0355 0.0197, 0.0865 -0.0355 0.0236, 0.0824 -0.0331 0.0197, 0.0824 -0.0331 0.0236, 0.0792 -0.03 0.0197, 0.0792 -0.03 0.0236, 0.0769 -0.0265 0.0197, 0.0769 -0.0265 0.0236, 0.0755 -0.0224 0.0197, 0.0755 -0.0224 0.0236, 0.0828 -0.0078 0.0236, 0.0848 -0.0057 0.0236, 0.0876 -0.0039 0.0236, 0.0909 -0.0028 0.0236, 0.0955 -0.0023 0.0236, 0.1014 -0.0023 0.0236, 0.1014 -0.033 0.0236, 0.0958 -0.033 0.0236, 0.0916 -0.0326 0.0236, 0.0883 -0.0316 0.0236, 0.0856 -0.03 0.0236, 0.0834 -0.0278 0.0236, 0.0817 -0.0251 0.0236, 0.0806 -0.0214 0.0236, 0.0802 -0.0172 0.0236, 0.0806 -0.0133 0.0236, 0.0815 -0.0102 0.0236, 0.0955 -0.0023 0.0197, 0.1014 -0.0023 0.0197, 0.0909 -0.0028 0.0197, 0.0876 -0.0039 0.0197, 0.0848 -0.0057 0.0197, 0.0828 -0.0078 0.0197, 0.0815 -0.0102 0.0197, 0.0806 -0.0133 0.0197, 0.0802 -0.0172 0.0197, 0.0806 -0.0214 0.0197, 0.0817 -0.0251 0.0197, 0.0834 -0.0278 0.0197, 0.0856 -0.03 0.0197, 0.0883 -0.0316 0.0197, 0.0916 -0.0326 0.0197, 0.0958 -0.033 0.0197, 0.1014 -0.033 0.0197, 0.1143 -0.033 0.0236, 0.1143 -0.0373 0.0236, 0.1143 -0.033 0.0197, 0.1143 -0.0373 0.0197, 0.1354 -0.0373 0.0236, 0.1354 -0.0373 0.0197, 0.1354 0.0021 0.0236, 0.1354 0.0021 0.0197, 0.1153 0.0021 0.0236, 0.1153 0.0021 0.0197, 0.1153 -0.0023 0.0236, 0.1153 -0.0023 0.0197, 0.1302 -0.0023 0.0236, 0.1302 -0.0023 0.0197, 0.1302 -0.0152 0.0236, 0.1302 -0.0152 0.0197, 0.1162 -0.0152 0.0236, 0.1162 -0.0152 0.0197, 0.1162 -0.0195 0.0236, 0.1162 -0.0195 0.0197, 0.1302 -0.0195 0.0236, 0.1302 -0.0195 0.0197, 0.1302 -0.033 0.0236, 0.1302 -0.033 0.0197, 0.1431 -0.0309 0.0236, 0.1431 -0.0353 0.0236, 0.1431 -0.0309 0.0197, 0.1431 -0.0353 0.0197, 0.1473 -0.037 0.0236, 0.154 -0.0378 0.0236, 0.154 -0.0378 0.0197, 0.1529 -0.0378 0.0197, 0.1529 -0.0378 0.0236, 0.1513 -0.0375 0.0197, 0.1473 -0.037 0.0197, 0.1724 -0.0184 0.0236, 0.1724 -0.0184 0.0197, 0.172 -0.0229 0.0197, 0.172 -0.0229 0.0236, 0.1708 -0.0271 0.0197, 0.1708 -0.0271 0.0236, 0.1687 -0.0308 0.0197, 0.1687 -0.0308 0.0236, 0.1658 -0.0339 0.0197, 0.1658 -0.0339 0.0236, 0.1626 -0.036 0.0197, 0.1626 -0.036 0.0236, 0.1588 -0.0373 0.0197, 0.1588 -0.0373 0.0236, 0.1563 -0.0375 0.0197, 0.1524 0.0025 0.0236, 0.1524 0.0025 0.0197, 0.1563 0.0022 0.0197, 0.1563 0.0022 0.0236, 0.1607 0.0009 0.0197, 0.1607 0.0009 0.0236, 0.1645 -0.0012 0.0197, 0.1645 -0.0012 0.0236, 0.168 -0.0046 0.0197, 0.168 -0.0046 0.0236, 0.1703 -0.0083 0.0197, 0.1703 -0.0083 0.0236, 0.1718 -0.0128 0.0197, 0.1718 -0.0128 0.0236, 0.1431 0.001 0.0236, 0.1431 0.001 0.0197, 0.1477 0.0022 0.0197, 0.1477 0.0022 0.0236, 0.1431 -0.0043 0.0236, 0.1431 -0.0043 0.0197, 0.1523 -0.0018 0.0236, 0.1523 -0.0018 0.0197, 0.1476 -0.0024 0.0197, 0.1476 -0.0024 0.0236, 0.1671 -0.018 0.0236, 0.1671 -0.018 0.0197, 0.1669 -0.015 0.0197, 0.1669 -0.015 0.0236, 0.1659 -0.0108 0.0197, 0.1659 -0.0108 0.0236, 0.1643 -0.0077 0.0197, 0.1643 -0.0077 0.0236, 0.1619 -0.0051 0.0197, 0.1619 -0.0051 0.0236, 0.1592 -0.0033 0.0197, 0.1592 -0.0033 0.0236, 0.1562 -0.0022 0.0197, 0.1562 -0.0022 0.0236, 0.1532 -0.0335 0.0236, 0.1532 -0.0335 0.0197, 0.1569 -0.0331 0.0197, 0.1569 -0.0331 0.0236, 0.1598 -0.032 0.0197, 0.1598 -0.032 0.0236, 0.1622 -0.0304 0.0197, 0.1622 -0.0304 0.0236, 0.164 -0.0284 0.0197, 0.164 -0.0284 0.0236, 0.1657 -0.0257 0.0197, 0.1657 -0.0257 0.0236, 0.1667 -0.0223 0.0197, 0.1667 -0.0223 0.0236, 0.1438 -0.0313 0.0197, 0.1438 -0.0313 0.0236, 0.148 -0.0329 0.0197, 0.148 -0.0329 0.0236, 0.1758 -0.033 0.0236, 0.1758 -0.0373 0.0236, 0.1758 -0.033 0.0197, 0.1758 -0.0373 0.0197, 0.1959 -0.0373 0.0236, 0.1959 -0.0373 0.0197, 0.1959 0.0021 0.0236, 0.1959 0.0021 0.0197, 0.1907 0.0021 0.0236, 0.1907 0.0021 0.0197, 0.1907 -0.033 0.0236, 0.1907 -0.033 0.0197
            ]
        }
        coordIndex [
            0,1,2,-1,2,1,3,-1,1,4,3,-1,3,4,5,-1,4,6,5,-1,5,6,7,-1,6,8,7,-1,7,8,9,-1,8,10,9,-1,9,10,11,-1,10,12,11,-1,11,12,13,-1,12,14,13,-1,13,14,15,-1,14,0,15,-1,15,0,2,-1,16,8,17,-1,17,8,6,-1,18,14,16,-1,16,14,12,-1,16,12,8,-1,8,12,10,-1,18,19,14,-1,14,19,20,-1,14,20,0,-1,0,20,21,-1,0,21,22,-1,22,23,0,-1,0,23,17,-1,0,17,1,-1,1,17,6,-1,1,6,4,-1,16,17,24,-1,24,17,25,-1,18,16,26,-1,26,16,24,-1,18,26,27,-1,18,27,19,-1,19,27,28,-1,19,28,20,-1,21,20,29,-1,29,20,28,-1,21,29,30,-1,21,30,22,-1,22,30,31,-1,22,31,23,-1,17,23,25,-1,25,23,31,-1,32,33,34,-1,34,33,35,-1,33,36,35,-1,35,36,37,-1,36,38,37,-1,37,38,39,-1,40,41,42,-1,40,42,43,-1,43,42,44,-1,43,44,45,-1,45,44,46,-1,45,46,47,-1,47,46,48,-1,47,48,49,-1,49,48,50,-1,49,50,51,-1,51,50,52,-1,51,52,53,-1,53,52,54,-1,53,54,55,-1,55,54,39,-1,55,39,38,-1,32,34,56,-1,32,56,57,-1,57,56,58,-1,57,58,59,-1,59,58,60,-1,59,60,61,-1,61,60,62,-1,61,62,63,-1,63,62,64,-1,63,64,65,-1,65,64,66,-1,65,66,67,-1,67,66,41,-1,67,41,40,-1,45,47,68,-1,68,47,49,-1,68,49,69,-1,69,49,51,-1,69,51,70,-1,70,51,53,-1,70,53,71,-1,71,53,55,-1,71,55,72,-1,72,55,38,-1,72,38,73,-1,73,38,36,-1,73,36,74,-1,74,36,33,-1,74,33,75,-1,75,33,32,-1,75,32,76,-1,76,32,57,-1,76,57,77,-1,77,57,59,-1,77,59,78,-1,78,59,61,-1,78,61,79,-1,79,61,63,-1,79,63,80,-1,80,63,65,-1,80,65,81,-1,81,65,67,-1,81,67,82,-1,82,67,40,-1,82,40,83,-1,83,40,43,-1,83,43,84,-1,84,43,45,-1,84,45,68,-1,72,73,85,-1,85,73,86,-1,72,85,87,-1,72,87,71,-1,71,87,88,-1,71,88,70,-1,70,88,89,-1,70,89,69,-1,69,89,90,-1,69,90,68,-1,68,90,91,-1,68,91,84,-1,84,91,92,-1,84,92,83,-1,83,92,93,-1,83,93,82,-1,82,93,94,-1,82,94,81,-1,81,94,95,-1,81,95,80,-1,80,95,96,-1,80,96,79,-1,79,96,97,-1,79,97,78,-1,78,97,98,-1,78,98,77,-1,77,98,99,-1,77,99,76,-1,76,99,100,-1,76,100,75,-1,74,75,101,-1,101,75,100,-1,73,74,86,-1,86,74,101,-1,102,103,104,-1,104,103,105,-1,103,106,105,-1,105,106,107,-1,106,108,107,-1,107,108,109,-1,108,110,109,-1,109,110,111,-1,110,112,111,-1,111,112,113,-1,112,114,113,-1,113,114,115,-1,114,116,115,-1,115,116,117,-1,116,118,117,-1,117,118,119,-1,118,120,119,-1,119,120,121,-1,120,122,121,-1,121,122,123,-1,122,124,123,-1,123,124,125,-1,124,102,125,-1,125,102,104,-1,106,103,102,-1,102,124,106,-1,106,124,122,-1,106,122,108,-1,112,110,114,-1,114,110,108,-1,114,108,116,-1,116,108,122,-1,116,122,118,-1,118,122,120,-1,126,127,128,-1,128,127,129,-1,129,127,130,-1,131,132,133,-1,131,133,134,-1,134,133,135,-1,134,135,130,-1,130,135,136,-1,130,136,129,-1,137,138,139,-1,137,139,140,-1,140,139,141,-1,140,141,142,-1,142,141,143,-1,142,143,144,-1,144,143,145,-1,144,145,146,-1,146,145,147,-1,146,147,148,-1,148,147,149,-1,148,149,150,-1,150,149,131,-1,131,149,151,-1,131,151,132,-1,152,153,154,-1,152,154,155,-1,155,154,156,-1,155,156,157,-1,157,156,158,-1,157,158,159,-1,159,158,160,-1,159,160,161,-1,161,160,162,-1,161,162,163,-1,163,162,164,-1,163,164,165,-1,165,164,138,-1,165,138,137,-1,166,167,168,-1,166,168,169,-1,169,168,153,-1,169,153,152,-1,166,170,167,-1,167,170,171,-1,172,173,174,-1,172,174,175,-1,175,174,171,-1,175,171,170,-1,176,177,178,-1,176,178,179,-1,179,178,180,-1,179,180,181,-1,181,180,182,-1,181,182,183,-1,183,182,184,-1,183,184,185,-1,185,184,186,-1,185,186,187,-1,187,186,188,-1,187,188,189,-1,189,188,173,-1,189,173,172,-1,190,191,192,-1,190,192,193,-1,193,192,194,-1,193,194,195,-1,195,194,196,-1,195,196,197,-1,197,196,198,-1,197,198,199,-1,199,198,200,-1,199,200,201,-1,201,200,202,-1,201,202,203,-1,203,202,177,-1,203,177,176,-1,126,128,204,-1,126,204,205,-1,205,204,206,-1,205,206,207,-1,207,206,191,-1,207,191,190,-1,193,131,190,-1,190,131,134,-1,190,134,207,-1,207,134,130,-1,207,130,205,-1,205,130,127,-1,205,127,126,-1,170,166,175,-1,175,166,169,-1,175,169,172,-1,172,169,152,-1,172,152,189,-1,189,152,155,-1,189,155,187,-1,187,155,157,-1,187,157,185,-1,185,157,159,-1,185,159,183,-1,183,159,161,-1,183,161,181,-1,181,161,163,-1,181,163,179,-1,179,163,165,-1,179,165,176,-1,176,165,137,-1,176,137,203,-1,203,137,140,-1,203,140,201,-1,201,140,142,-1,201,142,199,-1,199,142,144,-1,199,144,197,-1,197,144,146,-1,197,146,195,-1,195,146,148,-1,195,148,193,-1,193,148,150,-1,193,150,131,-1,208,209,210,-1,210,209,211,-1,209,212,211,-1,211,212,213,-1,212,214,213,-1,213,214,215,-1,214,216,215,-1,215,216,217,-1,216,218,217,-1,217,218,219,-1,218,208,219,-1,219,208,210,-1,216,214,218,-1,218,214,212,-1,218,212,208,-1,208,212,209,-1,
        ]
    }
}
Shape{
    appearance Appearance {
        material  Material 	{
            diffuseColor 0.25098039215686274 0.25098039215686274 0.25098039215686274
            specularColor 0.12549019607843137 0.12549019607843137 0.12549019607843137
            ambientIntensity 0.251
            transparency 0.0
            shininess 0.5
        }
    }
    geometry IndexedFaceSet {
        ccw TRUE
        solid FALSE
        coord DEF co Coordinate {
            point [
                0.0612 -0.0219 0.0197, 0.0481 -0.0219 0.0197, 0.0553 -0.0055 0.0197, 0.054 -0.0055 0.0197, 0.055 -0.0041 0.0197, 0.0543 -0.0041 0.0197, 0.0547 -0.0027 0.0197, 0.0546 -0.0027 0.0197, 0.1014 -0.0023 0.0197, 0.1014 -0.033 0.0197, 0.0955 -0.0023 0.0197, 0.0958 -0.033 0.0197, 0.0916 -0.0326 0.0197, 0.0802 -0.0172 0.0197, 0.0806 -0.0133 0.0197, 0.0815 -0.0102 0.0197, 0.0909 -0.0028 0.0197, 0.0883 -0.0316 0.0197, 0.0856 -0.03 0.0197, 0.0834 -0.0278 0.0197, 0.0817 -0.0251 0.0197, 0.0806 -0.0214 0.0197, 0.0828 -0.0078 0.0197, 0.0848 -0.0057 0.0197, 0.0876 -0.0039 0.0197
            ]
        }
        coordIndex [
            0,1,2,-1,2,1,3,-1,2,3,4,-1,4,3,5,-1,4,5,6,-1,6,5,7,-1,8,9,10,-1,10,9,11,-1,10,11,12,-1,13,14,10,-1,10,14,15,-1,10,15,16,-1,12,17,10,-1,10,17,18,-1,10,18,19,-1,19,20,10,-1,10,20,21,-1,10,21,13,-1,22,23,15,-1,15,23,24,-1,15,24,16,-1,
        ]
    }
}